<?xml version="1.0" encoding="UTF-8" standalone="no"?>
<!-- Created with Inkscape (http://www.inkscape.org/) -->

<svg
   width="21.308001mm"
   height="18.350725mm"
   viewBox="0 0 21.308001 18.350725"
   version="1.1"
   id="svg1"
   xml:space="preserve"
   xmlns="http://www.w3.org/2000/svg"
   xmlns:svg="http://www.w3.org/2000/svg"><defs
     id="defs1" /><g
     id="layer1"
     transform="translate(-34.214226,-53.715097)"><path
       style="fill:#000000"
       d="m 34.56039,71.899958 c -0.710282,-0.397494 -0.259438,-1.030167 0.734099,-1.030167 h 0.88234 l -0.155272,-1.852084 c -0.154108,-1.838197 -0.08223,-2.013891 0.77185,-1.886589 0.103904,0.01549 0.128251,-0.129932 0.0541,-0.323153 -0.165106,-0.43026 0.554347,-1.076013 0.936015,-0.840129 0.369789,0.228542 0.355462,0.08877 -0.249588,-2.434974 -0.292959,-1.221968 -0.747828,-2.403327 -1.03654,-2.69204 -0.830007,-0.830006 -0.267099,-3.200198 0.760031,-3.200198 0.521718,0 0.658683,0.273857 0.944216,1.887929 0.09793,0.553556 0.05686,1.031909 -0.09673,1.126835 -0.171318,0.10588 -0.126929,0.445507 0.123957,0.94842 0.214966,0.430911 0.611995,1.888366 0.882286,3.238791 0.410332,2.050098 0.70275,2.292755 0.567517,0.470942 -0.04731,-0.637384 0.409039,-1.148968 0.867863,-0.9729 0.339729,0.130366 0.423578,0.583187 0.423578,2.287512 0,1.639938 0.08413,2.124971 0.368567,2.124971 0.426592,0 0.689766,0.56348 0.689766,1.476848 0,0.554178 0.12329,0.639819 0.921095,0.639819 h 0.921095 l -0.165914,-3.647299 c -0.179289,-3.94129 0.002,-6.018963 0.543228,-6.226662 0.729499,-0.279935 0.929795,0.202002 0.721593,1.736249 -0.112444,0.828606 -0.11525,1.650875 -0.0062,1.827266 0.239411,0.387376 0.382701,-0.45184 0.771426,-4.518081 0.158963,-1.662824 0.344521,-3.113113 0.41235,-3.222863 0.06783,-0.10975 0.0023,-0.274331 -0.145573,-0.365735 -0.384641,-0.237721 -0.332203,-1.799329 0.07932,-2.362118 0.460794,-0.630174 1.261291,-0.446715 1.735241,0.397685 0.336081,0.59877 0.331474,0.781313 -0.03843,1.522799 -0.231155,0.463362 -0.494267,1.525593 -0.584693,2.360514 -0.09043,0.83492 -0.226849,1.955722 -0.303161,2.490671 -0.128682,0.90207 -0.09603,0.961464 0.450103,0.818647 l 0.588852,-0.153988 -0.145508,2.356353 c -0.08003,1.295994 -0.09434,2.058697 -0.03181,1.694895 0.284816,-1.656917 0.38212,-1.852083 0.923393,-1.852083 0.890208,0 0.5642,2.836993 -0.496361,4.31944 -1.056458,1.476712 -0.946708,2.82431 0.230015,2.82431 0.729545,0 0.76372,-0.05365 0.76372,-1.198929 0,-0.836411 0.123424,-1.246291 0.408191,-1.355567 0.323124,-0.123994 0.371088,-0.404055 0.230155,-1.343865 -0.191054,-1.274035 0.212238,-1.8951 0.873972,-1.345909 0.268436,0.222781 0.305291,0.110958 0.176186,-0.534567 -0.329353,-1.646765 0.54024,-3.194251 1.50487,-2.677996 0.559801,0.299596 0.751585,2.455952 0.246209,2.768291 -0.14552,0.08994 -0.264583,0.87087 -0.264583,1.735407 0,1.365883 0.06564,1.571885 0.500859,1.571885 0.570309,0 0.822058,0.492787 0.822058,1.609139 0,0.706023 0.07926,0.772111 0.926041,0.772111 0.749653,0 0.926042,0.100793 0.926042,0.529166 0,0.41644 -0.183182,0.533508 -0.859896,0.549547 -7.480756,0.177295 -19.751311,0.147662 -20.101914,-0.04855 z m 2.880789,-3.21298 c -0.0734,-0.181901 -0.133453,-0.03307 -0.133453,0.330729 0,0.363802 0.06005,0.512631 0.133453,0.330729 0.0734,-0.181901 0.0734,-0.479557 0,-0.661458 z M 52.3472,69.149999 c 0,-0.07276 -0.05953,-0.132292 -0.132292,-0.132292 -0.07276,0 -0.132291,0.05953 -0.132291,0.132292 0,0.07276 0.05953,0.132292 0.132291,0.132292 0.07276,0 0.132292,-0.05953 0.132292,-0.132292 z m -7.408333,-2.910417 c 0,-0.07276 -0.05953,-0.132291 -0.132292,-0.132291 -0.07276,0 -0.132292,0.05953 -0.132292,0.132291 0,0.07276 0.05953,0.132292 0.132292,0.132292 0.07276,0 0.132292,-0.05953 0.132292,-0.132292 z"
       id="path16" /></g></svg>
