<?xml version="1.0" encoding="UTF-8" standalone="no"?>
<!-- Created with Inkscape (http://www.inkscape.org/) -->

<svg
   width="32.375225mm"
   height="17.053089mm"
   viewBox="0 0 32.375225 17.053089"
   version="1.1"
   id="svg1"
   xml:space="preserve"
   xmlns="http://www.w3.org/2000/svg"
   xmlns:svg="http://www.w3.org/2000/svg"><defs
     id="defs1" /><g
     id="layer1"
     transform="translate(-141.97991,-104.13688)"><path
       style="fill:#000000"
       d="m 158.15515,121.06736 c -3.88658,-0.25581 -13.00347,-0.61463 -14.71648,-0.5792 -0.68435,0.0142 -1.32837,-0.11034 -1.43116,-0.27665 -0.2155,-0.3487 0.89075,-1.34636 1.24805,-1.12554 0.36895,0.22802 4.22468,-3.78842 5.47742,-5.70574 0.61802,-0.94588 1.79227,-3.05924 2.60943,-4.69635 1.7908,-3.58768 1.93382,-3.63588 4.11955,-1.38828 1.47956,1.52145 1.56479,1.56877 2.02531,1.12448 0.65381,-0.63077 2.3394,-3.13429 2.54373,-3.7781 0.25539,-0.80464 1.26356,-0.63694 2.55244,0.42457 0.63223,0.52071 2.71348,2.49034 4.625,4.37696 3.26641,3.22387 3.45741,3.46858 3.175,4.06782 -0.32003,0.67906 -1.19041,1.19182 -2.02305,1.19182 -0.7213,0 -3.88562,-3.04699 -4.65409,-4.48152 -1.20675,-2.25268 -2.66998,-4.44847 -2.82128,-4.23377 -0.0451,0.064 -0.40727,0.60223 -0.80484,1.1961 -0.39757,0.59387 -1.07779,1.41981 -1.5116,1.83543 -0.98783,0.9464 -0.98415,1.00988 0.10685,1.84203 0.79893,0.60937 0.9736,0.64758 1.61796,0.35399 0.66282,-0.302 0.78023,-0.26452 1.42474,0.45483 0.38631,0.43117 1.95018,1.84442 3.47527,3.14055 1.52508,1.29614 2.81138,2.51653 2.85843,2.71198 0.0471,0.19546 0.1822,0.35538 0.30033,0.35538 0.11813,0 0.8656,0.53578 1.66103,1.19062 1.29453,1.06573 1.5875,1.19063 2.79291,1.19063 1.37564,0 1.99654,0.33668 1.19098,0.6458 -0.71482,0.27431 -12.33154,0.39322 -15.84193,0.16216 z m 3.47352,-2.02989 0.9029,-0.95735 -0.78353,-1.88693 c -0.43094,-1.0378 -0.85883,-2.26739 -0.95086,-2.73241 l -0.16733,-0.84549 -0.69741,0.51337 c -0.41717,0.30708 -1.35952,0.58199 -2.34513,0.68413 -1.46609,0.15193 -1.6661,0.11563 -1.81438,-0.32934 -0.0917,-0.27505 -0.70872,-1.61721 -1.37124,-2.98257 l -1.20459,-2.48247 -0.51834,1.02726 c -1.75407,3.4763 -4.04155,6.85739 -6.10989,9.03092 l -1.07006,1.12448 1.31186,0.0188 c 0.72152,0.0104 2.0408,0.0767 2.93172,0.14746 l 1.61985,0.12864 -0.12934,-0.67664 c -0.10913,-0.57088 -0.0315,-0.67726 0.49681,-0.68068 0.34438,-0.002 0.79395,-0.11027 0.99904,-0.2401 0.20508,-0.12983 0.5325,-0.1748 0.7276,-0.0999 0.58371,0.224 0.40305,0.83014 -0.37288,1.25109 -0.68938,0.37399 -0.69614,0.39529 -0.1287,0.40533 0.32939,0.006 0.84266,-0.13824 1.14059,-0.32014 0.45393,-0.27715 0.5959,-0.25774 0.87632,0.11977 0.24978,0.33627 0.8327,0.47389 2.29899,0.54274 1.0804,0.0507 2.29978,0.1159 2.70973,0.14481 0.55278,0.039 0.97867,-0.19479 1.64827,-0.90477 z"
       id="path13" /></g></svg>
