<?xml version="1.0" encoding="UTF-8" standalone="no"?>
<!-- Created with Inkscape (http://www.inkscape.org/) -->

<svg
   width="13.393535mm"
   height="19.595663mm"
   viewBox="0 0 13.393535 19.595663"
   version="1.1"
   id="svg1"
   xml:space="preserve"
   xmlns="http://www.w3.org/2000/svg"
   xmlns:svg="http://www.w3.org/2000/svg"><defs
     id="defs1" /><g
     id="layer1"
     transform="translate(-55.006526,-127.86286)"><path
       style="fill:#000000"
       d="m 56.469004,147.13776 c -0.356269,-0.57646 0.74704,-1.0182 2.543095,-1.0182 h 1.755689 l -0.10611,-0.8599 c -0.193168,-1.56538 -0.204006,-1.57102 -1.725455,-0.89816 -0.775738,0.34306 -1.97005,0.70768 -2.654027,0.81025 -1.811487,0.27164 -1.690913,-0.46283 0.343907,-2.0949 0.873125,-0.70031 1.5875,-1.3291 1.5875,-1.39732 0,-0.0682 -0.349558,-0.0541 -0.776795,0.0313 -1.046278,0.20925 -2.012863,-0.54217 -1.752528,-1.36241 0.101053,-0.31839 0.351269,-0.57889 0.556036,-0.57889 0.411284,0 3.707962,-3.11602 3.508113,-3.31587 -0.0688,-0.0688 -0.825779,0.11599 -1.682182,0.41064 -2.68696,0.92445 -2.925271,0.35203 -0.71254,-1.71151 0.836745,-0.78033 1.447714,-1.49373 1.35771,-1.58532 -0.09,-0.0916 -0.832605,0.0837 -1.650224,0.38965 -1.398811,0.52336 -2.02259,0.52257 -2.02259,-0.003 0,-0.12514 0.745798,-0.98131 1.657328,-1.90262 0.911531,-0.9213 2.15473,-2.24064 2.762665,-2.93187 0.607934,-0.69122 1.283928,-1.25677 1.502207,-1.25677 0.218279,0 0.941629,0.70795 1.607444,1.57323 0.665815,0.86528 1.922931,2.19282 2.79359,2.9501 1.959235,1.70409 2.16524,2.61875 0.590828,2.62327 l -0.992187,0.003 1.136184,1.08652 c 1.351626,1.29253 1.31227,1.68591 -0.168672,1.68591 -0.605269,0 -1.100334,0.067 -1.100146,0.14893 5.62e-4,0.2444 1.463958,1.57075 1.734612,1.57217 0.137558,7.2e-4 0.607293,0.29787 1.043855,0.66032 l 0.79375,0.65901 -0.51359,0.39801 c -0.282475,0.21891 -1.056381,0.40078 -1.719792,0.40415 l -1.206201,0.006 1.006454,0.9066 c 0.55355,0.49863 1.23816,0.98014 1.521355,1.07003 0.701784,0.22273 0.656202,1.08742 -0.0673,1.27662 -0.329842,0.0863 -1.247317,-0.1164 -2.116667,-0.46755 -1.627463,-0.65736 -1.727094,-0.59011 -1.216735,0.82126 l 0.317735,0.87868 h 1.798932 c 1.588652,0 1.798931,0.0585 1.798931,0.50086 0,0.27547 -0.188331,0.57313 -0.418514,0.66146 -0.810825,0.31114 -10.915268,0.18013 -11.115668,-0.14412 z m 6.507099,-1.24952 c 0,-0.12722 -0.180316,-0.74239 -0.400703,-1.36703 -0.495157,-1.40342 -0.31143,-2.10582 0.550824,-2.10582 0.737488,0 0.827815,-0.31151 0.233377,-0.80485 -0.228297,-0.18947 -0.374982,-0.64389 -0.330729,-1.02458 0.08384,-0.7212 0.604348,-0.84699 1.665026,-0.40237 0.422152,0.17696 0.363894,0.0128 -0.292445,-0.82413 -1.472569,-1.8777 -1.833898,-3.08068 -1.019222,-3.3933 0.365114,-0.1401 0.365114,-0.23515 0,-0.94121 -0.67538,-1.30604 -0.550518,-1.69137 0.485111,-1.49708 l 0.891239,0.16719 -1.369389,-1.39452 c -0.753164,-0.76699 -1.617817,-1.74744 -1.92145,-2.17879 l -0.552061,-0.78426 -1.192734,1.31343 c -0.656003,0.72239 -1.160294,1.34766 -1.120646,1.38948 0.03965,0.0418 0.398172,-0.0725 0.79672,-0.25411 0.628148,-0.2862 0.771264,-0.26639 1.074834,0.14876 0.405656,0.55477 0.116113,1.47179 -0.789392,2.50009 l -0.544818,0.6187 0.969406,-0.18085 c 0.82929,-0.15472 1.014479,-0.0966 1.28124,0.40181 0.270909,0.5062 0.18266,0.77022 -0.672433,2.01177 -0.541346,0.78601 -1.41556,1.80881 -1.942698,2.27287 -0.551414,0.48544 -0.73371,0.75584 -0.429265,0.63672 1.255496,-0.49121 2.248958,-0.51196 2.248958,-0.0469 0,0.69861 -0.505513,1.53621 -1.415751,2.34582 l -0.833207,0.74109 1.410003,-0.69002 c 0.775501,-0.3795 1.535719,-0.6481 1.689373,-0.59689 0.153654,0.0512 0.320088,0.89838 0.369853,1.88258 0.04977,0.9842 0.159778,1.90158 0.244471,2.03861 0.194037,0.31396 0.916508,0.32802 0.916508,0.0178 z"
       id="path19" /></g></svg>
