<?xml version="1.0" encoding="UTF-8" standalone="no"?>
<!-- Created with Inkscape (http://www.inkscape.org/) -->

<svg
   width="14.447898mm"
   height="18.07608mm"
   viewBox="0 0 14.447898 18.07608"
   version="1.1"
   id="svg1"
   xml:space="preserve"
   xmlns="http://www.w3.org/2000/svg"
   xmlns:svg="http://www.w3.org/2000/svg"><defs
     id="defs1" /><g
     id="layer1"
     transform="translate(-93.755628,-130.23108)"><path
       style="fill:#000000"
       d="m 95.014409,147.76886 c 0,-0.61666 0.854799,-0.86903 2.94349,-0.86903 1.1066,0 1.289844,-0.074 1.289844,-0.52086 0,-0.30565 -0.136654,-0.47024 -0.330729,-0.39834 -0.629829,0.23333 -3.771745,0.58558 -4.101042,0.45977 -0.469597,-0.1794 -0.409987,-0.80228 0.168269,-1.7583 0.994019,-1.64338 0.969216,-1.97225 -0.155746,-2.06503 -1.411181,-0.11639 -1.428601,-0.80776 -0.06189,-2.45625 0.599647,-0.72328 1.319852,-1.76508 1.600454,-2.31511 l 0.510187,-1.00005 H 96.09976 c -1.947369,0 -2.027207,-0.46448 -0.386562,-2.24895 0.668961,-0.72761 1.815286,-2.00753 2.547389,-2.84428 0.732103,-0.83674 1.52801,-1.52135 1.768683,-1.52135 0.24067,0 0.84789,0.4315 1.34938,0.95889 0.50149,0.52739 1.38805,1.30818 1.97013,1.7351 1.61993,1.18809 3.3073,2.8664 3.3073,3.28953 0,0.33344 -0.29292,0.50147 -1.80182,1.03358 -0.2351,0.0829 0.21545,0.93969 1.40049,2.66324 1.39366,2.02696 1.68471,2.6162 1.43869,2.91263 -0.16962,0.20439 -0.54101,0.37161 -0.8253,0.37161 -0.49049,0 -0.48546,0.0398 0.0985,0.77911 0.33849,0.42852 0.773,0.7857 0.96557,0.79375 0.19257,0.008 0.30953,0.223 0.25991,0.47766 -0.076,0.38993 -0.38185,0.46067 -1.93763,0.44812 -1.01608,-0.008 -2.23437,-0.11238 -2.70731,-0.23151 -0.76256,-0.19209 -0.85989,-0.15473 -0.85989,0.33002 0,0.79124 0.31777,0.89602 2.84306,0.93746 1.48237,0.0243 2.3074,0.14589 2.37587,0.35008 0.22691,0.67672 -1.14116,0.88483 -6.92279,1.05309 l -5.969061,0.17372 z m 6.359311,-1.3808 c -0.37359,-0.69806 -0.3447,-1.74865 0.0568,-2.06644 0.36552,-0.28929 1.62028,-0.26509 3.24114,0.0625 l 1.05833,0.21391 -0.85989,-0.88371 c -0.49394,-0.50762 -0.8599,-1.15858 -0.8599,-1.52956 0,-0.59035 0.0796,-0.63294 0.92604,-0.49558 0.50933,0.0827 0.92605,0.1137 0.92605,0.069 0,-0.0447 -0.77391,-1.23882 -1.7198,-2.65356 -2.09849,-3.13869 -2.14403,-3.41334 -0.52574,-3.17067 1.4788,0.22176 1.42078,-0.17171 -0.19717,-1.33725 -0.60601,-0.43657 -1.6145,-1.25586 -2.24109,-1.82066 l -1.13925,-1.0269 -1.712021,1.82065 c -0.941613,1.00136 -1.715022,1.89741 -1.718686,1.99123 -0.0037,0.0938 0.38029,0.0836 0.853232,-0.0227 0.472943,-0.10631 1.008724,-0.14338 1.190625,-0.0824 0.467567,0.15682 0.410585,0.99409 -0.09628,1.41476 -0.234857,0.19491 -0.775085,0.95363 -1.200507,1.68604 -0.425421,0.73241 -0.968321,1.60882 -1.206444,1.94757 l -0.43295,0.61593 0.941698,-0.17667 c 0.534553,-0.10028 1.011142,-0.0643 1.102316,0.0832 0.141389,0.22877 -0.742509,2.60898 -1.405902,3.7859 -0.219201,0.38888 -0.08839,0.39453 1.487083,0.0643 0.950085,-0.19915 1.838983,-0.43104 1.975329,-0.51531 0.557787,-0.34473 1.016867,0.47067 0.850547,1.51074 -0.14831,0.9275 -0.10862,1.02744 0.408,1.02744 0.48382,0 0.52995,-0.0791 0.2984,-0.51177 z"
       id="path18" /></g></svg>
