<?xml version="1.0" encoding="UTF-8" standalone="no"?>
<!-- Created with Inkscape (http://www.inkscape.org/) -->

<svg
   width="17.239447mm"
   height="20.297495mm"
   viewBox="0 0 17.239447 20.297495"
   version="1.1"
   id="svg1"
   xml:space="preserve"
   xmlns="http://www.w3.org/2000/svg"
   xmlns:svg="http://www.w3.org/2000/svg"><defs
     id="defs1" /><g
     id="layer1"
     transform="translate(-85.831488,-72.407474)"><path
       style="fill:#000000"
       d="m 90.123327,92.540264 c -0.574465,-0.574466 -0.02851,-1.011006 1.264411,-1.011006 1.510115,0 1.587505,-0.130028 1.587505,-2.667473 v -1.830443 h -0.87313 c -1.062526,0 -1.508125,-0.401243 -1.508125,-1.358004 0,-0.490712 -0.170071,-0.776982 -0.529344,-0.891011 -0.664571,-0.210927 -1.752797,-1.619976 -1.99228,-2.579631 -0.110002,-0.440797 -0.360676,-0.727604 -0.635938,-0.727604 -0.660647,0 -1.604938,-1.116269 -1.604938,-1.897235 0,-0.877586 1.616546,-2.981236 2.638563,-3.433625 0.440561,-0.195011 0.801021,-0.515867 0.801021,-0.713013 0,-0.769068 0.902069,-2.200636 1.620918,-2.572367 0.415696,-0.214965 1.294126,-0.414274 1.952063,-0.442909 1.02039,-0.04441 1.31645,0.06814 2.01384,0.765525 0.78744,0.787435 0.84671,0.803061 1.60719,0.423686 0.98842,-0.493093 2.499084,-0.281647 3.233294,0.452564 0.462763,0.462764 0.495693,0.64667 0.23799,1.329383 l -0.29907,0.792323 1.365333,0.677513 c 2.07478,1.029567 2.61177,2.154649 1.50601,3.155347 -0.46891,0.424364 -0.48209,0.526514 -0.13229,1.02592 0.51179,0.730681 0.4964,2.407837 -0.0269,2.931133 -0.50271,0.50271 -1.55256,0.794441 -2.10125,0.58389 -0.307943,-0.118167 -0.387683,0.02277 -0.343193,0.606568 0.0319,0.418275 -0.10012,0.950955 -0.29331,1.183732 -0.41312,0.497777 -1.63179,0.559559 -2.085624,0.105731 -0.24695,-0.246944 -0.3175,0.139097 -0.3175,1.737186 0,2.83481 0.16877,3.078231 2.134284,3.078231 1.196383,0 1.625623,0.101963 1.745613,0.41466 0.0875,0.228062 0.054,0.51188 -0.0744,0.630705 -0.37412,0.346057 -10.559544,0.561372 -10.890693,0.230224 z m 6.058856,-1.407743 c 0.0176,-0.145597 0.0565,-1.336284 0.0864,-2.645971 0.03,-1.309688 0.19559,-2.720124 0.36806,-3.134304 l 0.31358,-0.753054 0.50946,0.620762 c 0.661134,0.805556 1.369314,0.431068 1.708074,-0.903227 0.22258,-0.876653 0.29843,-0.933407 1.078443,-0.80683 0.57434,0.0932 0.97874,-0.0036 1.28194,-0.306766 0.49243,-0.492436 0.60121,-2.128148 0.15967,-2.401036 -0.17126,-0.105844 -0.21689,-0.567851 -0.11541,-1.168514 0.14917,-0.882918 0.0777,-1.06934 -0.6427,-1.675479 -0.4458,-0.375114 -1.233633,-0.835016 -1.750743,-1.022006 -0.96035,-0.347267 -1.0129,-0.550895 -0.49227,-1.907638 0.2571,-0.669967 -1.110114,-0.849595 -2.511964,-0.330031 -1.14652,0.424928 -1.22413,0.423624 -1.54686,-0.026 -0.9691,-1.35016 -1.15388,-1.463721 -2.1252,-1.306099 -1.298374,0.210698 -2.259207,1.217407 -2.285117,2.394228 -0.01855,0.842478 -0.12514,0.968988 -1.145375,1.359409 -1.271488,0.48657 -1.917786,1.242942 -1.917786,2.244416 0,0.821476 0.442467,1.316685 1.177396,1.31774 0.438797,6.3e-4 0.546138,0.176336 0.561991,0.919917 0.03168,1.485995 1.479171,2.562877 2.601014,1.935062 0.506717,-0.283573 0.544825,0.02499 0.118616,0.960416 -0.444986,0.976639 0.09458,1.538662 1.266171,1.318871 l 0.8894,-0.166853 v 2.42809 c 0,2.950187 0.18332,3.375273 1.44192,3.343404 0.51663,-0.01308 0.9537,-0.14291 0.97127,-0.288506 z"
       id="path24" /></g></svg>
