<?xml version="1.0" encoding="UTF-8" standalone="no"?>
<!-- Created with Inkscape (http://www.inkscape.org/) -->

<svg
   width="32.938992mm"
   height="28.738066mm"
   viewBox="0 0 32.938992 28.738066"
   version="1.1"
   id="svg1"
   xml:space="preserve"
   xmlns="http://www.w3.org/2000/svg"
   xmlns:svg="http://www.w3.org/2000/svg"><defs
     id="defs1" /><g
     id="layer1"
     transform="translate(-131.74454,-69.4288)"><path
       style="fill:#000000"
       d="m 153.64441,97.468531 c -0.32878,-0.864738 -0.32461,-1.101029 0.0232,-1.315996 0.42313,-0.261511 1.30624,0.66756 1.30624,1.374228 0,0.884082 -0.98764,0.840822 -1.32946,-0.05823 z m 5.64209,0.328001 c -0.27572,-0.45697 -1.13763,-0.771667 -1.13763,-0.415364 0,0.550688 -0.90771,0.08429 -1.0865,-0.55826 -0.31359,-1.126985 -0.25305,-2.785139 0.12032,-3.295755 0.57102,-0.780911 0.96413,-0.228598 0.99256,1.39453 0.0185,1.056483 0.0813,1.308385 0.21036,0.844281 0.2654,-0.9541 1.22181,-0.909778 1.20883,0.05602 -0.009,0.633313 0.0388,0.67368 0.40291,0.344114 0.26704,-0.241662 0.54701,-0.29027 0.79371,-0.137801 0.32806,0.202749 0.3186,0.366735 -0.0679,1.17724 -0.46049,0.965676 -1.06143,1.212884 -1.43665,0.590996 z m -3.78946,-0.45427 c -0.39755,-0.74284 -0.22789,-2.50234 0.2413,-2.50234 0.37661,0 1.07294,2.160693 0.88146,2.735137 -0.16338,0.490124 -0.80732,0.356606 -1.12276,-0.232797 z m -21.05358,-5.943248 c -0.48303,-0.737207 -0.12806,-1.546853 0.56208,-1.282021 0.28655,0.109958 0.31988,-0.02256 0.15368,-0.611039 -0.25447,-0.901004 -0.11661,-1.412907 0.38052,-1.412907 0.47516,0 0.80703,0.655526 1.03812,2.050521 0.16684,1.007167 0.1316,1.124479 -0.33784,1.124479 -0.28827,0 -0.59265,0.178594 -0.67641,0.396875 -0.22325,0.581763 -0.62763,0.485768 -1.12015,-0.265908 z m 4.86832,-0.153714 c -0.0579,-0.173696 -0.57488,-0.328932 -1.14885,-0.344969 -0.93626,-0.02616 -1.06101,-0.110783 -1.21313,-0.822909 -0.28006,-1.310978 -0.25083,-2.653642 0.0647,-2.969116 0.57547,-0.57547 1.02545,-0.05479 1.04698,1.211486 0.0194,1.138502 0.0403,1.17518 0.28663,0.500859 0.32652,-0.894001 1.27998,-1.017686 1.27998,-0.16604 0,0.427077 0.0813,0.494065 0.3396,0.279718 0.19248,-0.159747 0.49301,-0.187038 0.69371,-0.063 0.29426,0.181863 0.28905,0.414057 -0.0308,1.373927 -0.3693,1.108262 -1.09841,1.661149 -1.31877,1.000041 z m 8.15926,-0.374128 c -0.61193,-0.611932 -0.56256,-1.455208 0.0852,-1.455208 0.74814,0 1.23718,1.002187 0.73439,1.504974 -0.33682,0.33682 -0.43921,0.330603 -0.81958,-0.04977 z m 5.05403,-0.65755 c -0.48682,-0.568556 -0.56542,-1.013029 -0.30102,-1.70206 0.44472,-1.158919 2.20325,0.227433 1.78762,1.40928 -0.30457,0.866039 -0.89603,0.982523 -1.4866,0.29278 z m -3.98939,-0.44488 c -0.27914,-0.279134 -0.20505,-1.626751 0.0998,-1.81515 0.45434,-0.280798 1.04674,0.415424 1.04674,1.230185 0,0.735619 -0.65942,1.072063 -1.14652,0.584965 z m 1.79236,-0.453101 c -0.2889,-1.151083 -0.036,-2.148636 0.54479,-2.148636 0.45182,0 0.54086,0.203047 0.60914,1.389063 0.0718,1.246458 0.0247,1.389062 -0.45798,1.389062 -0.34587,0 -0.59437,-0.224765 -0.69595,-0.629489 z m 12.91406,-4.317847 c -0.1819,-0.06811 -0.33073,-0.342125 -0.33073,-0.608914 0,-0.630365 -0.57942,-0.819245 -0.95393,-0.310962 -0.17136,0.232577 -0.47768,0.325866 -0.73977,0.225293 -0.37053,-0.142184 -0.43387,-0.47883 -0.36899,-1.961218 0.0694,-1.587076 0.13819,-1.789571 0.60748,-1.789571 0.43551,0 0.54381,0.203963 0.61189,1.15238 0.0727,1.012343 0.12406,1.095849 0.42288,0.687182 0.40847,-0.558614 0.94961,-0.300289 0.94961,0.453319 0,0.36061 0.12628,0.4934 0.37753,0.396987 0.20764,-0.07968 0.52554,0.03347 0.70643,0.251433 0.27027,0.325646 0.21475,0.506098 -0.31138,1.01211 -0.35216,0.338693 -0.78912,0.560076 -0.97102,0.491961 z m -5.4618,-1.292012 c -0.28178,-0.734304 -0.17569,-0.94335 0.43472,-0.856658 0.79005,0.112205 1.01362,1.275173 0.24514,1.275173 -0.28559,0 -0.59153,-0.188331 -0.67986,-0.418515 z m 1.61159,-0.56069 c -0.17256,-0.871961 0.42504,-1.691904 0.89244,-1.2245 0.42137,0.421363 0.19206,1.787425 -0.3162,1.883696 -0.2893,0.0548 -0.47757,-0.160573 -0.57624,-0.659196 z m -13.94302,-3.734701 c 0,-0.387189 -0.20561,-0.477162 -1.05813,-0.463021 -0.58197,0.0097 -1.05822,0.120735 -1.05833,0.246848 -1.1e-4,0.126113 -0.23833,0.167025 -0.52937,0.09092 -0.29104,-0.07611 -0.52917,-0.03046 -0.52917,0.101433 0,0.5586 -0.81298,0.176345 -1.19464,-0.561707 -0.43621,-0.84353 -0.34068,-1.315146 0.26638,-1.315146 0.19989,0 0.44116,-0.244896 0.53616,-0.544214 0.23072,-0.726941 0.98194,-0.553051 1.21402,0.28102 0.13395,0.481399 0.19081,0.288299 0.21004,-0.713379 0.0145,-0.755396 0.12136,-1.432149 0.23744,-1.503896 0.41725,-0.257869 0.90671,0.314517 0.94656,1.106918 0.037,0.735346 0.42987,1.573262 0.42987,0.916789 0,-0.56334 0.76767,-0.553261 1.43344,0.01882 0.719,0.617814 0.86702,1.452227 0.40934,2.307418 -0.35297,0.65952 -1.31361,0.682337 -1.31361,0.0312 z m -13.50306,-4.690016 c -0.26106,-0.31456 -0.26681,-0.479954 -0.0251,-0.721657 0.38477,-0.384766 1.1812,0.03763 1.31059,0.695084 0.11107,0.564314 -0.82316,0.583626 -1.28548,0.02657 z m 5.3886,0.0723 c -0.27545,-0.457896 -1.14596,-0.796272 -1.14596,-0.445451 0,0.391803 -1.65309,0.2161 -2.18281,-0.232004 -0.51185,-0.432991 -0.62146,-1.503437 -0.18176,-1.775181 0.15469,-0.0956 0.5208,0.04296 0.81359,0.30793 l 0.53233,0.481755 -0.16914,-0.673907 c -0.1125,-0.448241 -0.0344,-0.785708 0.23315,-1.007781 0.62458,-0.518352 0.95134,-0.106508 0.99068,1.248651 0.0198,0.682636 0.0865,0.981911 0.14817,0.665057 0.21429,-1.100813 0.80186,-1.288123 1.58477,-0.505207 0.59285,0.592848 0.66708,0.818502 0.46101,1.401509 -0.28757,0.813594 -0.77237,1.052694 -1.08403,0.534629 z m 18.17142,-1.645213 c -0.39874,-0.480458 -0.1682,-1.193994 0.38578,-1.193994 0.27381,0 0.40518,-0.257354 0.40518,-0.79375 0,-0.982374 0.90446,-1.137612 1.15615,-0.198438 0.33385,1.245745 0.20416,1.857433 -0.3624,1.709275 -0.39251,-0.102643 -0.52917,-0.0081 -0.52917,0.366016 0,0.600752 -0.59694,0.663464 -1.05554,0.110891 z m 2.55485,-0.04747 c -0.29554,-0.295539 -0.19646,-3.137294 0.12043,-3.454186 0.52126,-0.521256 1.02528,-0.06361 1.04287,0.946903 0.0147,0.843838 0.0466,0.889739 0.25605,0.368567 0.30424,-0.75689 0.59193,-0.749447 1.44082,0.03728 0.60122,0.557194 0.64587,0.713126 0.37467,1.308361 -0.43216,0.948473 -1.05138,1.113463 -1.57477,0.41959 l -0.43425,-0.57569 -0.14717,0.562784 c -0.14217,0.543682 -0.71586,0.749188 -1.07865,0.386396 z"
       id="path22" /></g></svg>
