<?xml version="1.0" encoding="UTF-8" standalone="no"?>
<!-- Created with Inkscape (http://www.inkscape.org/) -->

<svg
   width="36.040615mm"
   height="40.569443mm"
   viewBox="0 0 36.040615 40.569443"
   version="1.1"
   id="svg1"
   xml:space="preserve"
   xmlns="http://www.w3.org/2000/svg"
   xmlns:svg="http://www.w3.org/2000/svg"><defs
     id="defs1" /><g
     id="layer1"
     transform="translate(-73.291007,-19.128807)"><path
       style="fill:#000000"
       d="M 90.634423,45.122721 V 30.54719 l -2.028472,0.244769 -2.028473,0.244769 -1.411111,0.395947 -1.411111,0.395947 -0.435076,0.281852 -0.435077,0.281852 -0.09409,9.478585 -0.09409,9.478586 -0.440973,0.146831 -0.440972,0.146831 V 42.26515 l -0.0058,-9.562715 -0.328399,0.144302 -0.403436,0.259742 -1.957612,1.304288 -2.067281,1.523626 -0.983701,1.292839 -0.983701,1.292839 -0.89702,1.85784 -0.897021,1.857841 0.215954,-1.058334 0.215953,-1.058333 1.211764,-2.494302 1.211764,-2.494303 1.391731,-1.58109 1.391731,-1.581089 1.442523,-0.99967 1.442523,-0.999669 v -1.753654 -1.753654 l -0.552235,0.211913 -0.552235,0.211912 0.238415,-0.79153 0.238415,-0.791531 0.578403,-1.344026 0.578404,-1.344026 0.748867,2.158296 0.748867,2.158296 -0.484284,-0.185837 -0.484284,-0.185837 v 1.332393 1.332394 l 2.557639,-0.798068 2.557639,-0.798068 1.322917,-0.208605 1.322917,-0.208605 v -2.138424 -2.138425 l -0.568445,0.218133 -0.568446,0.218133 0.252983,-0.621362 0.252982,-0.621362 0.525014,-1.499305 0.525013,-1.499306 h 0.110841 0.11084 l 0.70707,2.093748 0.70707,2.093748 -0.498295,-0.191213 -0.498294,-0.191214 v 2.113265 2.170986 l 0.859053,0.04888 0.908031,0.122925 0.898271,0.163262 1.143158,0.23673 1.306765,0.468756 1.763889,0.640177 0.617361,0.267994 0.617361,0.267993 V 27.99706 26.559277 l -0.517233,0.198482 -0.517234,0.198481 0.726009,-2.149831 0.726011,-2.149831 h 0.11161 0.11162 l 0.72601,2.149831 0.72601,2.149831 -0.51724,-0.198481 -0.51723,-0.198482 v 1.616189 1.616189 l 2.43106,2.25079 2.43106,2.250791 1.09517,1.706677 1.09518,1.706676 0.7071,2.055222 0.7071,2.055222 v 0.344948 0.344949 l -1.23245,-2.463519 -1.23245,-2.463519 -1.87482,-1.773129 -1.87483,-1.773129 -1.12606,-0.58231 -1.12606,-0.582309 v 9.35767 9.357671 h -0.52917 -0.529163 v -9.673031 -9.673037 l -1.694495,-0.562821 -1.694496,-0.562821 -2.414398,-0.365221 -2.3105,-0.203603 v 14.577215 14.577214 h -0.529167 -0.529166 z m -1.763889,12.031948 v -2.285954 l 0.705555,-0.638519 0.705556,-0.638519 v 2.027505 2.027505 l -0.705556,0.896968 -0.705555,0.896969 z m 3.792361,1.233018 -0.617361,-0.685269 v -2.07909 -2.079089 l 0.724922,0.724922 0.724922,0.724922 -0.107561,2.039436 -0.107561,2.039437 z m -8.802005,-8.032389 -0.669186,-0.915256 0.105387,-2.014645 0.105387,-2.014645 0.635967,0.936612 0.635966,0.936612 -0.1068,2.05101 -0.1068,2.05101 C 84.086794,50.737854 84.060864,50.698864 83.86089,50.355298 Z m 14.189711,-1.273898 -0.0078,-2.326574 0.705556,-0.638519 0.705556,-0.638519 -0.0078,2.083148 -0.0078,2.083149 -0.689867,0.881944 -0.689867,0.881945 z m 3.784519,1.252071 -0.61736,-0.822107 V 47.470857 45.43035 l 0.72394,0.723947 0.72395,0.723947 -0.10659,2.138667 -0.10658,2.138668 z M 80.051089,48.871493 v -2.116667 l 0.705556,-0.638519 0.705555,-0.638519 v 2.116667 2.116666 l -0.705555,0.638519 -0.705556,0.638519 z"
       id="path1" /></g></svg>
