<?xml version="1.0" encoding="UTF-8" standalone="no"?>
<!-- Created with Inkscape (http://www.inkscape.org/) -->

<svg
   width="15.379128mm"
   height="14.753613mm"
   viewBox="0 0 15.379128 14.753613"
   version="1.1"
   id="svg1"
   xml:space="preserve"
   xmlns="http://www.w3.org/2000/svg"
   xmlns:svg="http://www.w3.org/2000/svg"><defs
     id="defs1" /><g
     id="layer1"
     transform="translate(-167.80041,-37.645296)"><path
       style="fill:#000000"
       d="m 171.51178,52.120835 c -0.12388,-0.200435 -0.17617,-0.377204 -0.11622,-0.392819 0.06,-0.01561 0.82339,-0.214052 1.69652,-0.440972 1.31862,-0.342701 1.60558,-0.568347 1.69425,-1.332233 0.0854,-0.735489 -0.10394,-1.006925 -0.94538,-1.355464 -1.47006,-0.608915 -2.22043,-2.358226 -2.08933,-4.870724 l 0.10574,-2.026383 h 3.52777 3.52778 l 0.10574,2.026383 c 0.1311,2.512498 -0.61928,4.261809 -2.08933,4.870724 -0.84145,0.348539 -1.03076,0.619975 -0.94539,1.355464 0.0885,0.76218 0.36653,0.982307 1.62384,1.285569 0.8344,0.201255 1.54878,0.518755 1.5875,0.705556 0.0983,0.474075 -7.3932,0.644604 -7.68349,0.174899 z m -0.88915,-4.597762 c 0,-0.194027 0.15875,-0.352777 0.35278,-0.352777 0.19403,0 0.35278,0.15875 0.35278,0.352777 0,0.194028 -0.15875,0.352778 -0.35278,0.352778 -0.19403,0 -0.35278,-0.15875 -0.35278,-0.352778 z m 8.46667,-0.155569 c 0,-0.27959 0.15875,-0.606459 0.35278,-0.726375 0.62662,-0.387275 0.40034,-4.62979 -0.3526,-6.610799 -0.87355,-2.29832 -0.873,-2.385034 0.0152,-2.385034 1.11951,0 3.46366,2.389411 3.88718,3.962232 0.53793,1.997731 -0.1042,3.721829 -1.62245,4.356192 -0.64373,0.268968 -1.27204,0.80923 -1.39625,1.200582 -0.2594,0.817297 -0.88385,0.960862 -0.88385,0.203202 z m -9.17222,-0.549986 c 0,-0.194028 0.15875,-0.352778 0.35277,-0.352778 0.19403,0 0.35278,0.15875 0.35278,0.352778 0,0.194028 -0.15875,0.352778 -0.35278,0.352778 -0.19402,0 -0.35277,-0.15875 -0.35277,-0.352778 z m 1.05833,-0.373598 c 0,-0.205479 0.15875,-0.275485 0.35278,-0.155569 0.19403,0.119916 0.35278,0.288035 0.35278,0.373598 0,0.08556 -0.15875,0.155569 -0.35278,0.155569 -0.19403,0 -0.35278,-0.168119 -0.35278,-0.373598 z m -2.46944,-0.684735 c 0,-0.194028 0.15875,-0.352778 0.35277,-0.352778 0.19403,0 0.35278,0.15875 0.35278,0.352778 0,0.194027 -0.15875,0.352777 -0.35278,0.352777 -0.19402,0 -0.35277,-0.15875 -0.35277,-0.352777 z m 1.56152,-0.31423 c 0.45619,-0.51069 0.79636,-0.644001 1.03482,-0.405541 0.42826,0.428265 0.31359,0.552139 -0.83246,0.899219 -0.88095,0.266798 -0.88118,0.266244 -0.20236,-0.493678 z m -1.20875,-0.909421 c 0,-0.315592 0.20683,-0.438727 0.52917,-0.315034 0.29104,0.111683 0.52917,0.344826 0.52917,0.518094 0,0.173269 -0.23813,0.315035 -0.52917,0.315035 -0.29104,0 -0.52917,-0.233143 -0.52917,-0.518095 z m -1.05833,-0.540238 c 0,-0.194028 0.15875,-0.352778 0.35278,-0.352778 0.19403,0 0.35278,0.15875 0.35278,0.352778 0,0.194027 -0.15875,0.352777 -0.35278,0.352777 -0.19403,0 -0.35278,-0.15875 -0.35278,-0.352777 z m 2.46944,-0.518095 c 0,-0.315593 0.20683,-0.438727 0.52917,-0.315035 0.29104,0.111684 0.52917,0.344826 0.52917,0.518095 0,0.173269 -0.23813,0.315035 -0.52917,0.315035 -0.29104,0 -0.52917,-0.233143 -0.52917,-0.518095 z M 168.026,43.044964 c -0.39438,-0.394389 -0.24552,-0.778065 0.44534,-1.147803 0.57165,-0.305938 0.64365,-0.254759 0.48658,0.345863 -0.20909,0.799565 -0.59887,1.134984 -0.93192,0.80194 z m 2.59663,-0.989946 c 0,-0.291042 0.15875,-0.529167 0.35278,-0.529167 0.19403,0 0.35278,0.238125 0.35278,0.529167 0,0.291042 -0.15875,0.529167 -0.35278,0.529167 -0.19403,0 -0.35278,-0.238125 -0.35278,-0.529167 z m 0,-1.381713 c 0,-0.307211 0.25136,-0.558565 0.55857,-0.558565 0.62298,0 0.51449,0.759446 -0.13964,0.977489 -0.23041,0.0768 -0.41893,-0.111713 -0.41893,-0.418924 z m -1.91557,-0.165815 c -0.24008,-0.388461 0.65886,-1.179088 0.97789,-0.86006 0.12767,0.127669 0.23213,0.443792 0.23213,0.702495 0,0.525533 -0.90942,0.643954 -1.21002,0.157565 z m 1.75365,-1.074892 c -0.32546,-0.526616 0.606,-1.580481 1.21692,-1.376839 0.28467,0.09489 0.20081,0.408722 -0.26191,0.980159 -0.50139,0.619192 -0.75292,0.723667 -0.95501,0.39668 z"
       id="path2" /></g></svg>
