<?xml version="1.0" encoding="UTF-8" standalone="no"?>
<!-- Created with Inkscape (http://www.inkscape.org/) -->

<svg
   width="28.643608mm"
   height="31.549805mm"
   viewBox="0 0 28.643608 31.549805"
   version="1.1"
   id="svg1"
   xml:space="preserve"
   xmlns="http://www.w3.org/2000/svg"
   xmlns:svg="http://www.w3.org/2000/svg"><defs
     id="defs1" /><g
     id="layer1"
     transform="translate(-120.39304,-29.905059)"><path
       style="fill:#000000"
       d="m 121.22815,60.565937 -0.83511,-0.888928 1.74375,-1.785426 c 0.95906,-0.981984 2.65346,-2.579361 3.76533,-3.549726 l 2.02157,-1.764301 1.07266,0.763799 c 1.37187,0.976858 4.60393,2.116287 6.00299,2.116287 0.80188,0 1.5385,0.426759 2.84333,1.647276 2.06168,1.928464 1.89344,2.219854 -1.2863,2.227878 -2.66166,0.0067 -5.10169,-0.699283 -7.35361,-2.127695 l -1.73333,-1.099468 -2.44035,2.674616 c -1.34219,1.471038 -2.55859,2.674615 -2.70309,2.674615 -0.14451,0 -0.63854,-0.400017 -1.09784,-0.888927 z m 22.92658,-1.411542 c -1.22764,-0.864457 -2.74591,-1.668138 -3.37395,-1.785958 -0.62803,-0.11782 -1.5005,-0.595948 -1.93881,-1.062507 -0.4383,-0.466558 -0.97825,-0.848288 -1.19988,-0.848288 -0.47673,0 -12.35044,-11.449342 -12.35044,-11.909033 0,-0.17334 -0.87312,-1.333093 -1.94028,-2.577229 -1.91833,-2.236476 -1.92374,-2.249144 -0.4784,-1.119846 1.5365,1.200519 2.10441,1.438521 1.6733,0.701247 -0.14181,-0.242535 0.0869,-0.138555 0.50835,0.231065 0.91427,0.801912 1.02889,1.205288 0.14884,0.523766 -0.50259,-0.389203 -0.49242,-0.331646 0.0547,0.309582 0.68849,0.806961 1.12935,1.066373 0.73907,0.434893 -0.63954,-1.034799 1.3271,0.498241 8.98492,7.003965 3.22365,2.738668 6.70663,6.176348 6.9114,6.821524 0.1064,0.335228 0.80196,1.091459 1.5457,1.680512 l 1.35226,1.071006 -1.45964,-2.268634 c -0.8028,-1.247749 -1.83939,-2.476479 -2.30353,-2.73051 -0.74926,-0.410077 -1.88594,-1.846368 -3.084,-3.896893 -0.22006,-0.376646 -0.57725,-0.861947 -0.79375,-1.078446 -0.2165,-0.2165 -0.39363,-0.69605 -0.39363,-1.065668 0,-0.369619 -0.46083,-1.354844 -1.02406,-2.18939 -0.56322,-0.834546 -1.13656,-1.889444 -1.27407,-2.344217 -0.13752,-0.454773 -1.35058,-3.04936 -2.6957,-5.765749 -2.20811,-4.459167 -2.43373,-5.101192 -1.09549,-3.117364 0.45049,0.667815 0.0689,-0.424959 -1.10656,-3.16896 -0.66093,-1.542879 -0.12782,-1.429107 0.68702,0.146618 0.29792,0.576123 0.68106,0.961356 0.85141,0.856073 0.26738,-0.165248 3.68398,5.466911 7.16034,11.803581 0.5835,1.063611 1.43656,2.528893 1.89568,3.256184 0.45912,0.727291 0.83535,1.523939 0.83608,1.77033 7.2e-4,0.24639 0.31822,0.967757 0.70555,1.603036 0.38733,0.63528 0.70542,1.508405 0.70686,1.940278 0.001,0.431873 0.71582,2.033802 1.5875,3.559843 0.87169,1.526041 1.58488,2.89574 1.58488,3.043776 0,0.148037 0.3466,0.499292 0.77022,0.780567 0.4529,0.300714 0.61985,0.604349 0.40522,0.736997 -0.20076,0.124074 -1.36944,-0.481695 -2.59708,-1.346151 z M 131.81804,35.878476 c 0,-0.09701 -0.0794,-0.176389 -0.17639,-0.176389 -0.097,0 -0.17639,0.07937 -0.17639,0.176389 0,0.09701 0.0794,0.176389 0.17639,0.176389 0.097,0 0.17639,-0.07937 0.17639,-0.176389 z m -0.35278,-0.705556 c 0,-0.09701 -0.0794,-0.176389 -0.17639,-0.176389 -0.097,0 -0.17639,0.07937 -0.17639,0.176389 0,0.09701 0.0794,0.176389 0.17639,0.176389 0.097,0 0.17639,-0.07937 0.17639,-0.176389 z m 1.05833,-0.705555 c 0,-0.09701 -0.0794,-0.176389 -0.17639,-0.176389 -0.097,0 -0.17639,0.07937 -0.17639,0.176389 0,0.09701 0.0794,0.176388 0.17639,0.176388 0.097,0 0.17639,-0.07938 0.17639,-0.176388 z m -0.77042,-1.412602 c -0.22139,-0.48589 -0.46897,-0.816986 -0.55019,-0.73577 -0.16476,0.164764 0.5505,1.619205 0.79629,1.619205 0.086,0 -0.0247,-0.397546 -0.2461,-0.883435 z m 12.81412,20.762637 -0.79689,-1.640243 1.13057,-2.121169 c 1.2898,-2.419908 1.72699,-5.78078 1.0685,-8.214115 -0.53478,-1.976204 -2.173,-4.135125 -4.29411,-5.658996 -0.97534,-0.700713 -1.6925,-1.354872 -1.59369,-1.453687 0.0988,-0.09882 1.04083,0.241661 2.09336,0.756614 5.18226,2.535446 8.01669,8.955586 6.41453,14.529261 -0.57373,1.995944 -2.46068,5.442577 -2.97967,5.442577 -0.13514,0 -0.60431,-0.738109 -1.0426,-1.640242 z M 123.67745,42.533375 c -0.76316,-0.829713 -0.77616,-0.888759 -0.12067,-0.548427 0.87721,0.45546 1.78387,1.47825 1.31039,1.47825 -0.18396,0 -0.71933,-0.41842 -1.18972,-0.929823 z"
       id="path3" /></g></svg>
