<?xml version="1.0" encoding="UTF-8" standalone="no"?>
<!-- Created with Inkscape (http://www.inkscape.org/) -->

<svg
   width="28.57925mm"
   height="40.135014mm"
   viewBox="0 0 28.57925 40.135014"
   version="1.1"
   id="svg1"
   xml:space="preserve"
   xmlns="http://www.w3.org/2000/svg"
   xmlns:svg="http://www.w3.org/2000/svg"><defs
     id="defs1" /><g
     id="layer1"
     transform="translate(-18.901264,-48.559506)"><path
       style="fill:#000000"
       d="m 22.314814,88.119239 c -0.276239,-0.44275 -1.052873,-1.68323 -1.725854,-2.75663 -2.364271,-3.77099 -2.472058,-3.14738 1.142741,-6.61143 l 3.212575,-3.0786 -0.549937,-1.54366 c -0.302465,-0.84901 -0.549937,-2.46579 -0.549937,-3.59284 v -2.049181 l 2.028472,0.685726 c 1.369708,0.46303 2.734247,1.314775 4.201699,2.622705 2.106058,1.8771 2.236897,1.93704 4.233333,1.9392 1.874141,0.002 2.110568,0.0896 2.619098,0.97014 0.421204,0.72933 1.790773,1.52769 5.55625,3.23889 2.748493,1.24904 4.99726,2.33357 4.99726,2.41007 0,0.0765 -0.590279,0.85945 -1.311731,1.73989 l -1.31173,1.60079 -2.304242,-0.2022 c -1.267333,-0.11121 -3.983173,-0.0279 -6.0352,0.18513 l -3.730959,0.38733 -1.666647,-0.97672 -1.666647,-0.97672 0.219373,0.87405 c 0.195692,0.7797 -0.116571,1.11936 -2.892672,3.14645 -4.143921,3.02586 -3.888417,2.91213 -4.465245,1.98761 z m 9.01401,-15.54067 c -0.730184,-0.77724 -0.735326,-0.84859 -0.173735,-2.41031 l 0.578721,-1.609351 -1.114166,-1.382054 c -0.878979,-1.09032 -1.996178,-1.776802 -5.292593,-3.252124 -4.168655,-1.865695 -4.179817,-1.873946 -4.772561,-3.527777 -0.646987,-1.805176 -0.746151,-3.159305 -0.28466,-3.887128 0.201968,-0.318528 0.550547,0.217318 1.10388,1.696917 0.784498,2.097728 0.882347,2.199534 3.269406,3.401638 l 2.460704,1.23919 -2.511654,-3.047579 c -1.381409,-1.676169 -2.511653,-3.216446 -2.511653,-3.422838 0,-0.206392 0.345678,-1.636606 0.768172,-3.178253 l 0.768172,-2.802994 1.965856,-0.975168 c 2.531241,-1.255629 4.445527,-1.139536 5.878845,0.356526 1.060352,1.106769 0.843145,1.298338 -0.5616,0.495313 -1.38528,-0.791897 -2.795204,-0.620055 -4.643421,0.565943 l -1.706579,1.095108 v 2.040173 2.040173 l 5.171019,6.477913 c 2.844061,3.562852 5.200548,6.519295 5.236638,6.569874 0.266726,0.373809 3.371384,-1.199838 4.1863,-2.121895 l 1.012012,-1.145066 -0.207533,1.411111 c -0.121019,0.822865 -0.52242,1.668468 -0.9629,2.028472 -0.752606,0.615104 -0.751033,0.617309 0.430243,0.603024 0.787075,-0.0095 1.593231,-0.362812 2.398247,-1.051021 1.495763,-1.278727 1.76849,-1.113039 0.70398,0.427686 -0.443403,0.641761 -0.833737,1.209127 -0.867409,1.260807 -0.03367,0.0517 -1.434752,0.49217 -3.11351,0.97886 -2.810438,0.81478 -3.133564,0.84286 -4.078049,0.35445 -1.005036,-0.51973 -1.033165,-0.50921 -1.392105,0.52044 -0.439572,1.26096 -0.746762,1.30514 -1.738067,0.24994 z m 1.471758,-6.794779 c -0.321798,-0.491125 -0.523895,-0.93429 -0.449105,-0.984813 0.725567,-0.490137 3.413497,-2.250944 3.827464,-2.507292 0.384329,-0.237994 0.345557,-0.04421 -0.141163,0.705556 -1.864671,2.872402 -2.419788,3.679503 -2.530733,3.679503 -0.06676,0 -0.384666,-0.401829 -0.706463,-0.892954 z m -6.422809,-8.030741 c -0.736986,-0.788172 -0.780585,-1.013843 -0.440138,-2.278168 0.268776,-0.998158 0.765681,-1.672083 1.72103,-2.334141 l 1.343151,-0.930804 1.742821,0.618821 1.742821,0.61882 -1.561507,0.111518 c -2.298823,0.164175 -3.337035,1.128494 -3.553771,3.300839 l -0.176389,1.767946 z"
       id="path4" /></g></svg>
