<?xml version="1.0" encoding="UTF-8" standalone="no"?>
<!-- Created with Inkscape (http://www.inkscape.org/) -->

<svg
   width="23.450378mm"
   height="60.690128mm"
   viewBox="0 0 23.450378 60.690128"
   version="1.1"
   id="svg1"
   xml:space="preserve"
   xmlns="http://www.w3.org/2000/svg"
   xmlns:svg="http://www.w3.org/2000/svg"><defs
     id="defs1" /><g
     id="layer1"
     transform="translate(-164.99468,-57.525574)"><path
       style="fill:#000000"
       d="m 175.45159,117.62813 c -0.40523,-0.75718 -2.55826,-16.61858 -2.31028,-17.01983 0.0929,-0.15031 0.6432,-0.37746 1.22289,-0.50479 0.90461,-0.198679 1.02346,-0.353169 0.83852,-1.089989 -0.1185,-0.47217 -0.0918,-1.61053 0.0594,-2.52967 l 0.27488,-1.67118 0.26056,1.76389 c 0.14331,0.97014 0.77236,5.510379 1.3979,10.089419 l 1.13734,8.32552 -0.96136,1.64045 c -1.05043,1.79242 -1.39738,1.97244 -1.91986,0.99618 z m 5.96442,-14.35347 c -1.96149,-1.0005 -3.27314,-1.46449 -3.79236,-1.34153 -0.6813,0.16134 -0.7943,0.0451 -0.79763,-0.82041 -0.002,-0.55461 -0.0919,-1.643379 -0.1995,-2.419489 l -0.19561,-1.41111 1.06768,1.20491 c 0.58723,0.66271 1.66919,1.40847 2.40436,1.657259 l 1.33667,0.45233 -0.97014,-0.716539 c -0.53357,-0.39409 -0.97013,-0.92656 -0.97013,-1.18325 0,-0.28764 -0.26165,-0.39829 -0.6819,-0.2884 -0.53545,0.14003 -0.86723,-0.18908 -1.54482,-1.53233 -0.4746,-0.94086 -0.9697,-2.35132 -1.10022,-3.13436 -0.18248,-1.09473 -0.39614,-1.42371 -0.92464,-1.42371 -0.72067,0 -0.93973,0.7095 -0.33454,1.08353 0.19403,0.11992 0.35278,0.60553 0.35278,1.07915 0,0.62594 -0.1927,0.86113 -0.70555,0.86113 -0.86676,0 -1.02426,-0.12684 -0.22672,-1.07419 0.60815,-0.7224 0.68723,0.35524 -0.0352,0.9634 -0.40334,0.33955 -1.0203,-0.59477 -1.44159,-0.59477 -0.69793,0 -0.76549,-0.18019 -0.76057,-2.02847 0.003,-1.11566 0.12527,-2.21699 0.27178,-2.44739 0.1465,-0.23041 1.48913,-0.52973 2.98362,-0.66516 l 2.71726,-0.24623 1.68527,3.46477 1.68528,3.46477 3.60273,1.19412 3.60274,1.19412 -1.7919,2.885429 c -0.98555,1.58699 -1.8924,2.99039 -2.01523,3.11868 -0.12284,0.12829 -1.57271,-0.45503 -3.22195,-1.29626 z m -11.23867,-3.354299 c -0.34544,-0.99094 -0.32763,-1.00844 1.40481,-1.37999 2.53658,-0.54399 3.13108,-0.48763 3.13108,0.29686 0,0.50731 -0.51569,0.84732 -2.093,1.379989 l -2.09301,0.70682 z m -0.403,-2.59911 c 0,-1.13392 0.0612,-1.18634 1.63674,-1.4023 3.02881,-0.41514 3.36248,-0.3397 3.23739,0.73194 -0.11607,0.99437 -0.0412,0.96148 -3.7276,1.63792 -1.10661,0.20306 -1.14653,0.16938 -1.14653,-0.96756 z m -0.70555,-2.82311 c 0,-0.9878 0.15665,-1.2358 0.89817,-1.42191 1.15429,-0.28971 1.65615,0.0313 1.38491,0.88592 -0.14189,0.44706 -0.0167,0.75373 0.36801,0.90135 0.8492,0.32587 -0.0491,0.81886 -1.50456,0.82571 -1.06922,0.005 -1.14653,-0.0753 -1.14653,-1.19107 z m 0,-2.82273 c 0,-1.21906 0.0518,-1.27246 1.23472,-1.27246 1.13673,0 1.23472,0.084 1.23472,1.05833 0,0.80811 -0.15999,1.05834 -0.6767,1.05834 -0.37219,0 -0.92781,0.0964 -1.23472,0.21413 -0.44528,0.17087 -0.55802,-0.043 -0.55802,-1.05834 z m 14.17013,-6.21061 c -1.48767,-3.10404 -2.81287,-5.64404 -2.94488,-5.64445 -0.13202,-4e-4 0.78763,2.16201 2.04367,4.80536 1.25604,2.64335 2.20433,4.88546 2.10733,4.98247 -0.55959,0.55959 -1.52011,-1.06588 -5.53146,-9.3609 l -4.4427,-9.18701 0.52775,-3.29324 c 0.29026,-1.81129 0.57908,-3.35556 0.64182,-3.43171 0.3099,-0.376187 1.33873,1.03238 2.39643,3.28095 0.64729,1.37608 3.33103,6.90727 5.96387,12.29154 4.13798,8.46236 4.69066,9.78958 4.07656,9.78958 -0.56698,0 -1.21495,-1.05058 -3.20934,-5.20347 -2.67507,-5.57026 -2.67655,-5.57301 -2.8823,-5.35046 -0.0747,0.0808 1.11588,2.75078 2.64583,5.93319 1.52995,3.18242 2.78173,5.84148 2.78173,5.90903 0,0.0675 -0.33062,0.12282 -0.73472,0.12282 -0.60112,0 -1.22661,-1.0263 -3.43959,-5.6437 z m -11.8259,3.10602 c -0.11986,-0.44754 -0.2201,-1.30874 -0.22275,-1.91378 -0.004,-1.02772 0.0934,-1.11325 1.48774,-1.30027 0.8209,-0.11011 1.52493,-0.16782 1.5645,-0.12825 0.0396,0.0396 0.18212,0.9025 0.31678,1.91763 l 0.24484,1.84569 h -1.07493 c -0.59121,0 -1.30517,0.0884 -1.58658,0.19634 -0.32919,0.12632 -0.58938,-0.0939 -0.7296,-0.61736 z m 5.33569,-5.39982 c -1.26437,-2.54939 -1.61739,-2.99861 -2.35649,-2.99861 h -0.86932 l 0.95288,0.9946 c 1.08554,1.13306 0.87194,1.74058 -0.33413,0.95033 -0.74102,-0.48553 -0.84731,-0.46558 -1.35108,0.25364 -0.30073,0.42936 -0.54678,0.98345 -0.54678,1.23132 0,0.24787 -0.24882,0.45067 -0.55294,0.45067 -0.41033,0 -0.49018,-0.20471 -0.3096,-0.79375 0.13383,-0.43656 0.40209,-0.99219 0.59613,-1.23472 0.52107,-0.6513 -0.60969,-0.57282 -1.27069,0.0882 -0.69836,0.69835 -0.93235,0.66751 -0.93235,-0.12288 0,-0.43645 0.49573,-0.85326 1.49931,-1.26065 1.38878,-0.56374 1.44739,-0.6392 0.79513,-1.02365 -0.3873,-0.22827 -1.36436,-1.05371 -2.17125,-1.83431 -1.21756,-1.17789 -1.50376,-1.71787 -1.68283,-3.175 -0.11868,-0.96565 -0.56567,-2.94636 -0.99331,-4.40156 -0.42764,-1.45521 -0.74092,-3.28084 -0.69618,-4.05695 0.0447,-0.77611 0.11942,-2.04611 0.16594,-2.822217 0.0767,-1.27967 0.005,-1.41182 -0.77051,-1.41876 -1.24027,-0.0111 -1.23559,-0.53078 0.0201,-2.2383 2.58787,-3.51896 6.11318,-2.80921 8.14585,1.64001 l 1.08268,2.36983 -0.55832,3.704167 -0.55832,3.70416 3.51194,7.23194 c 1.93156,3.97757 3.50894,7.35101 3.50528,7.49653 -0.004,0.14552 -0.64282,0.26459 -1.42034,0.26459 h -1.41368 z"
       id="path5" /></g></svg>
