<?xml version="1.0" encoding="UTF-8" standalone="no"?>
<!-- Created with Inkscape (http://www.inkscape.org/) -->

<svg
   width="19.178236mm"
   height="37.306213mm"
   viewBox="0 0 19.178236 37.306213"
   version="1.1"
   id="svg1"
   xml:space="preserve"
   xmlns="http://www.w3.org/2000/svg"
   xmlns:svg="http://www.w3.org/2000/svg"><defs
     id="defs1" /><g
     id="layer1"
     transform="translate(-40.699361,-136.21043)"><path
       style="fill:#000000"
       d="m 40.877359,173.37882 c 0,-0.13432 1.111251,-2.3333 2.469445,-4.88661 1.358194,-2.55332 2.469445,-4.78942 2.469445,-4.96912 0,-0.18234 -0.545652,-0.22436 -1.234723,-0.0951 -0.726762,0.13634 -1.234722,0.0898 -1.234722,-0.11309 0,-0.3127 2.965349,-5.48872 7.399833,-12.91642 2.62156,-4.39107 2.600252,-4.33526 1.580662,-4.14035 -0.476633,0.0911 -0.868061,0.0281 -0.869839,-0.14005 -0.0018,-0.16814 0.975024,-2.38944 2.170672,-4.93623 l 2.173904,-4.63053 1.962673,-0.20256 c 1.079471,-0.11141 2.028341,-0.1369 2.108601,-0.0566 0.08026,0.0803 -0.976439,1.88965 -2.348221,4.02088 l -2.494147,3.87495 1.563029,0.10665 1.563029,0.10666 -5.47339,8.46667 -5.47339,8.46666 1.066903,0.11055 c 0.586797,0.0608 1.066903,0.195 1.066903,0.29821 0,0.1437 -7.74152,11.03353 -8.340695,11.73268 -0.06928,0.0808 -0.125972,0.0371 -0.125972,-0.0972 z m 14.21456,-5.86969 -4.285173,-5.95862 1.215155,-0.10795 1.215156,-0.10796 -1.283097,-1.90073 c -1.268726,-1.87945 -1.276763,-1.91402 -0.717501,-3.08681 0.311078,-0.65234 0.709896,-1.18607 0.886261,-1.18607 0.307467,0 4.338682,6.56158 4.829029,7.86018 0.212143,0.56182 0.07938,0.60299 -1.255919,0.38947 l -1.493139,-0.23876 1.852679,3.49108 c 1.018973,1.9201 2.241644,4.17824 2.717046,5.01809 1.70945,3.01993 0.530543,1.68361 -3.680497,-4.17192 z m -9.929466,-18.58734 -2.909723,-4.52052 1.428982,-0.10848 c 0.785939,-0.0597 1.428981,-0.20392 1.428981,-0.32057 0,-0.11666 -0.952882,-1.68304 -2.117516,-3.48086 -2.982713,-4.60434 -2.964049,-4.44277 -0.480887,-4.16285 1.13808,0.12829 2.069236,0.2509 2.069236,0.27246 0,0.0216 0.992188,2.06487 2.204861,4.5407 1.212674,2.47583 2.204862,4.67714 2.204862,4.89182 0,0.2261 -0.371036,0.31938 -0.881945,0.22172 -0.485069,-0.0927 -0.881944,-0.12261 -0.881944,-0.0664 0,0.0562 0.569053,1.05746 1.264563,2.22501 1.318374,2.21316 1.344801,2.74235 0.210349,4.21214 l -0.630096,0.81635 z"
       id="path8" /></g></svg>
