<?xml version="1.0" encoding="UTF-8" standalone="no"?>
<!-- Created with Inkscape (http://www.inkscape.org/) -->

<svg
   width="29.841309mm"
   height="38.363358mm"
   viewBox="0 0 29.841309 38.363358"
   version="1.1"
   id="svg1"
   xml:space="preserve"
   xmlns="http://www.w3.org/2000/svg"
   xmlns:svg="http://www.w3.org/2000/svg"><defs
     id="defs1" /><g
     id="layer1"
     transform="translate(-110.79266,-135.98406)"><path
       style="fill:#000000"
       d="m 123.91456,172.49721 c -0.22264,-2.14386 -0.9194,-17.54414 -0.91766,-20.28281 l 0.001,-1.85209 h 3.02871 3.02871 l -0.19851,2.55764 c -0.10918,1.4067 -0.28428,5.33576 -0.3891,8.73125 -0.10483,3.39549 -0.28563,7.63658 -0.4018,9.42464 l -0.2112,3.25103 -0.93335,-0.48265 c -0.79196,-0.40954 -1.07585,-0.40798 -1.87409,0.0103 l -0.94075,0.4929 z m -2.86833,-5.01034 -1.71366,-5.806 -3.98314,-3.27803 c -2.19073,-1.80291 -3.98537,-3.35983 -3.98809,-3.45982 -0.003,-0.1 2.33662,-1.07863 5.19853,-2.17477 l 5.20348,-1.99299 0.29758,3.34711 c 0.16366,1.8409 0.21962,3.42505 0.12434,3.52033 -0.0953,0.0953 -1.29678,-0.39258 -2.67002,-1.08414 -1.37324,-0.69155 -2.57326,-1.25736 -2.66673,-1.25736 -0.0935,0 0.41851,0.86707 1.13772,1.92683 1.2275,1.80871 1.39763,1.92765 2.7753,1.94028 l 1.46764,0.0135 0.19848,2.91041 c 0.38155,5.5947 0.62019,11.2007 0.4768,11.2007 -0.0795,0 -0.91572,-2.6127 -1.85823,-5.806 z m 8.12723,1.60547 c 0.096,-2.4073 0.17461,-5.62199 0.17461,-7.14375 v -2.76683 h 1.57435 c 1.53063,0 1.61458,-0.0592 3.02264,-2.13268 l 1.44827,-2.13269 -2.84624,1.43107 -2.84624,1.43106 v -3.53172 c 0,-1.94244 0.0452,-3.53171 0.10046,-3.53171 0.22169,0 9.96491,3.5977 10.39489,3.83833 0.31344,0.17541 -0.8077,1.27285 -3.48729,3.41357 -2.17209,1.73527 -4.09527,3.25208 -4.27374,3.37067 -0.17847,0.1186 -1.02465,2.89672 -1.8804,6.17361 l -1.55591,5.95799 z m -18.21491,-15.95573 c 0.17648,-0.45871 0.71869,-1.72956 1.20492,-2.82411 l 0.88405,-1.9901 -0.81593,-6.12379 c -0.44876,-3.36809 -0.77568,-6.16415 -0.72648,-6.21348 0.0492,-0.0493 1.74786,1.61756 3.77481,3.70417 3.24398,3.33947 3.84915,4.16379 5.05293,6.88272 0.75216,1.69888 1.30235,3.13781 1.22264,3.19761 -0.11473,0.0861 -7.30047,2.85678 -10.29386,3.96914 -0.53407,0.19846 -0.57773,0.11173 -0.30308,-0.60216 z m 24.21035,-1.52174 c -4.02375,-1.52177 -4.91739,-1.98425 -4.82287,-2.49599 0.0638,-0.34547 0.73,-1.91359 1.48041,-3.48471 1.09131,-2.28484 2.0462,-3.56266 4.77093,-6.38436 2.54935,-2.64009 3.36057,-3.30585 3.22385,-2.64583 -0.10047,0.48507 -0.46576,3.30962 -0.81175,6.27678 l -0.62908,5.39484 1.30179,2.63085 c 0.78537,1.58722 1.12799,2.62004 0.8637,2.60357 -0.24095,-0.015 -2.66059,-0.86783 -5.37698,-1.89515 z m -12.85394,-2.75186 c -0.17208,-0.43657 -0.72378,-1.71109 -1.226,-2.83228 -0.50221,-1.1212 -0.91311,-2.11338 -0.91311,-2.20487 0,-0.0915 2.55069,-0.16633 5.66821,-0.16633 6.49888,0 6.04608,-0.40272 4.17843,3.71629 l -1.03422,2.28094 h -3.18022 c -2.97012,0 -3.20089,-0.0524 -3.49309,-0.79375 z"
       id="path7" /></g></svg>
