<?xml version="1.0" encoding="UTF-8" standalone="no"?>
<!-- Created with Inkscape (http://www.inkscape.org/) -->

<svg
   width="9.3479929mm"
   height="15.189126mm"
   viewBox="0 0 9.3479929 15.189126"
   version="1.1"
   id="svg1"
   xml:space="preserve"
   xmlns="http://www.w3.org/2000/svg"
   xmlns:svg="http://www.w3.org/2000/svg"><defs
     id="defs1" /><g
     id="layer1"
     transform="translate(-85.961751,-112.5872)"><path
       style="fill:#000000"
       d="m 87.796729,127.52146 c -0.45225,-0.45225 -0.22756,-0.73648 0.73496,-0.92967 0.53357,-0.1071 2.16076,-1.23452 3.61597,-2.50538 1.45521,-1.27087 2.76489,-2.31433 2.91042,-2.31882 0.46077,-0.0142 0.27256,1.17484 -0.43148,2.72586 -0.44497,0.98031 -0.90704,1.49931 -1.33482,1.49931 -0.35985,0 -1.1922,0.39687 -1.84968,0.88194 -1.12506,0.83005 -3.10993,1.1822 -3.64537,0.64676 z m -0.99815,-1.7037 c -0.1169,-0.11691 1.37701,-1.83192 3.31981,-3.81114 1.94279,-1.97922 3.82856,-4.07483 4.1906,-4.65692 l 0.65825,-1.05833 -6.4e-4,1.41111 c -0.001,2.91225 -0.4851,3.73452 -3.46481,5.88924 -2.66743,1.9289 -4.25089,2.67836 -4.70321,2.22604 z m -0.80184,-1.55217 c -0.10744,-0.17384 0.041,-0.76915 0.32978,-1.32292 0.28882,-0.55377 0.5261,-1.30804 0.5273,-1.67616 0.001,-0.36811 0.93915,-1.5976 2.08435,-2.73219 1.36009,-1.34749 2.36133,-2.7364 2.88714,-4.005 0.44273,-1.06817 0.92054,-1.94212 1.06181,-1.94212 0.50666,0 0.71232,2.77217 0.3151,4.24733 -0.3134,1.16388 -1.11054,2.21131 -3.52047,4.62584 -1.71344,1.7167 -3.19957,3.12128 -3.30251,3.12128 -0.10294,0 -0.27507,-0.14223 -0.3825,-0.31606 z"
       id="path9" /></g></svg>
