<?xml version="1.0" encoding="UTF-8" standalone="no"?>
<!-- Created with Inkscape (http://www.inkscape.org/) -->

<svg
   width="27.63345mm"
   height="31.39724mm"
   viewBox="0 0 27.63345 31.39724"
   version="1.1"
   id="svg1"
   xml:space="preserve"
   xmlns="http://www.w3.org/2000/svg"
   xmlns:svg="http://www.w3.org/2000/svg"><defs
     id="defs1" /><g
     id="layer1"
     transform="translate(-158.11716,-133.62149)"><path
       style="fill:#000000"
       d="m 162.03006,161.80698 c 1.18776,-1.76646 2.28146,-3.07615 2.43044,-2.91042 0.48331,0.53766 3.89485,5.73167 3.89485,5.92985 0,0.10577 -1.9091,0.19232 -4.24243,0.19232 h -4.24244 z m 8.00328,2.56687 c -1.61889,-0.57098 -1.84573,-0.84234 -6.96369,-8.33047 -4.82575,-7.0606 -5.24965,-7.80404 -4.8275,-8.46649 0.25453,-0.39942 0.58338,-0.93053 0.73077,-1.18024 0.32099,-0.54385 0.31564,-0.55105 7.74842,10.41999 3.05626,4.51115 5.42826,8.18978 5.27112,8.17475 -0.15715,-0.015 -1.03875,-0.29293 -1.95912,-0.61754 z m 3.79006,-0.0421 c -1.75817,-0.58979 -1.78416,-0.62128 -8.02081,-9.71774 l -6.25692,-9.12602 0.61248,-1.0466 c 0.33686,-0.57563 0.77123,-0.98727 0.96525,-0.91475 0.39129,0.14624 14.76453,21.1434 14.57989,21.29904 -0.0638,0.0538 -0.90975,-0.16849 -1.87989,-0.49393 z m 3.78068,0.0133 c -2.05891,-0.66419 -1.00788,0.70602 -13.19777,-17.20574 l -3.16471,-4.65021 0.85357,-1.25613 0.85356,-1.25614 8.1934,12.02033 c 7.37455,10.81901 8.8611,13.10299 8.45166,12.98533 -0.0693,-0.0199 -0.96464,-0.30675 -1.98971,-0.63744 z m 4.33321,0.0919 c -0.97014,-0.29294 -1.98782,-0.74962 -2.26152,-1.01483 -0.2737,-0.26522 -4.09942,-5.76103 -8.5016,-12.21292 l -8.00397,-11.7307 0.69591,-1.17948 c 0.38275,-0.64871 0.83026,-1.1331 0.99446,-1.07642 0.26366,0.091 19.017,27.38735 19.017,27.68011 0,0.0638 -0.0397,0.10494 -0.0882,0.0914 -0.0485,-0.0135 -0.88195,-0.26425 -1.85209,-0.55719 z m -6.07679,-12.20166 -3.60734,-5.34493 0.66321,-1.04747 c 0.36476,-0.57611 1.81156,-2.71568 3.21509,-4.75462 2.38162,-3.4598 2.58507,-3.66192 3.04924,-3.02932 0.27355,0.3728 1.86368,2.94131 3.53363,5.7078 l 3.03628,5.03 -2.96499,4.39304 c -1.63075,2.41617 -3.04437,4.39245 -3.14138,4.39173 -0.097,-7.2e-4 -1.7997,-2.40652 -3.78374,-5.34623 z m -5.00563,-11.68597 c -0.56228,-0.90979 -0.9205,-1.15021 -1.53793,-1.03218 -0.51322,0.0981 -1.04535,-0.11181 -1.46839,-0.57927 -0.56055,-0.6194 -0.59885,-0.87499 -0.24687,-1.64749 0.35095,-0.77026 0.30417,-1.09627 -0.29681,-2.06868 -0.39238,-0.63488 -0.71341,-1.25465 -0.71341,-1.37727 0,-0.12262 2.38125,-0.22294 5.29167,-0.22294 2.91041,0 5.29166,0.12189 5.29166,0.27088 0,0.14899 -0.39642,0.85428 -0.88094,1.5673 -0.52094,0.76664 -0.73718,1.38526 -0.52916,1.51383 0.4868,0.30086 0.44145,1.70886 -0.0716,2.22187 -0.23284,0.23284 -0.85886,0.42334 -1.39117,0.42334 -0.70126,0 -1.14003,0.2915 -1.59301,1.05833 -0.34384,0.58208 -0.73674,1.05833 -0.87311,1.05833 -0.13637,0 -0.57781,-0.53372 -0.98097,-1.18605 z"
       id="path6" /></g></svg>
