<?xml version="1.0" encoding="UTF-8" standalone="no"?>
<!-- Created with Inkscape (http://www.inkscape.org/) -->

<svg
   width="14.383721mm"
   height="19.047281mm"
   viewBox="0 0 14.383721 19.047281"
   version="1.1"
   id="svg1"
   xml:space="preserve"
   xmlns="http://www.w3.org/2000/svg"
   xmlns:svg="http://www.w3.org/2000/svg"><defs
     id="defs1" /><g
     id="layer1"
     transform="translate(-124.94788,-219.15034)"><path
       style="fill:#000000"
       d="m 131.43466,237.96244 c -0.12936,-0.12935 -0.23519,-1.2406 -0.23519,-2.46945 0,-2.14802 0.034,-2.23426 0.88195,-2.23426 0.85674,0 0.88194,0.0706 0.88194,2.46945 0,2.15943 -0.0812,2.46944 -0.64676,2.46944 -0.35572,0 -0.75259,-0.10583 -0.88194,-0.23518 z m 0.38217,-5.6429 c 0.24254,-0.0979 0.63941,-0.0979 0.88195,0 0.24253,0.0979 0.0441,0.17794 -0.44098,0.17794 -0.48507,0 -0.6835,-0.0801 -0.44097,-0.17794 z m -0.16967,-1.06917 c 0.34324,-0.0894 0.81949,-0.0836 1.05833,0.0131 0.23884,0.0966 -0.042,0.16981 -0.62407,0.16262 -0.58209,-0.007 -0.7775,-0.0862 -0.43426,-0.1757 z m -0.007,-1.25483 c 0.0808,-0.24253 0.35866,-0.44097 0.61736,-0.44097 0.25871,0 0.53652,0.19844 0.61737,0.44097 0.0874,0.26232 -0.16267,0.44097 -0.61737,0.44097 -0.45469,0 -0.7048,-0.17865 -0.61736,-0.44097 z m -2.14175,-1.54212 c -1.46574,-0.87407 -1.76754,-1.61852 -0.73725,-1.81857 0.76922,-0.14936 3.04417,1.90033 2.60829,2.35002 -0.24901,0.25691 -0.82187,0.0942 -1.87104,-0.53145 z m 3.62652,0.54846 c -0.28493,-0.46103 0.75239,-1.64774 2.00778,-2.29692 0.82914,-0.42877 0.96296,-0.41557 1.16656,0.115 0.24008,0.62564 -0.2592,1.1403 -1.99325,2.05464 -0.64583,0.34054 -1.02409,0.3813 -1.18109,0.12728 z m -1.54908,-1.69574 c -0.20716,-0.38709 -0.37666,-1.58736 -0.37666,-2.66727 0,-1.8682 0.0435,-1.96347 0.8974,-1.96347 0.88754,0 0.89626,0.0278 0.79375,2.52942 -0.10705,2.6123 -0.61039,3.41694 -1.31449,2.10132 z m -4.78193,-2.41777 c 0.12199,-1.99914 0.66016,-2.77088 1.26567,-1.81499 0.67222,1.06118 -0.0115,3.83535 -0.9452,3.83535 -0.3192,0 -0.40916,-0.56712 -0.32047,-2.02036 z m 9.89333,1.23631 c -0.87147,-1.2442 -0.6346,-3.44928 0.37052,-3.44928 0.33182,0 0.49299,0.42964 0.49624,1.32292 0.003,0.7276 0.10054,1.6801 0.21753,2.11666 0.27486,1.02562 -0.36868,1.03138 -1.08429,0.01 z m -10.42695,-4.22029 c 0,-0.23003 -0.34458,-0.78503 -0.76574,-1.23333 -1.36207,-1.44986 0.0378,-1.5282 1.82408,-0.10208 0.86291,0.68894 0.86716,0.71546 0.19715,1.22889 -0.82615,0.63308 -1.25549,0.66951 -1.25549,0.10652 z m 10.84792,0.17505 c -0.97022,-0.25354 -0.72583,-1.04334 0.57081,-1.84471 1.77921,-1.09962 2.10241,-0.89385 1.06301,0.67678 -0.51361,0.77611 -0.95242,1.3927 -0.97514,1.37019 -0.0227,-0.0225 -0.31913,-0.11352 -0.65868,-0.20226 z m -5.83137,-1.51799 c 0.44236,-0.77462 0.89412,-1.40962 1.00391,-1.41111 0.10979,-0.001 0.55651,0.63228 0.99271,1.40839 l 0.79309,1.41112 h -1.797 -1.79699 z"
       id="path14" /></g></svg>
