<?xml version="1.0" encoding="UTF-8" standalone="no"?>
<!-- Created with Inkscape (http://www.inkscape.org/) -->

<svg
   width="13.87613mm"
   height="20.74789mm"
   viewBox="0 0 13.87613 20.74789"
   version="1.1"
   id="svg1"
   xml:space="preserve"
   xmlns="http://www.w3.org/2000/svg"
   xmlns:svg="http://www.w3.org/2000/svg"><defs
     id="defs1" /><g
     id="layer1"
     transform="translate(-92.117688,-213.19507)"><path
       style="fill:#000000"
       d="m 98.847017,233.71521 c -0.0871,-0.14868 -0.10711,-0.72328 -0.0446,-1.27688 0.11028,-0.97591 0.0929,-0.98767 -0.57163,-0.3863 -0.58106,0.52585 -0.68537,0.53797 -0.68537,0.0796 0,-0.29736 0.23812,-0.73828 0.52917,-0.97982 0.29104,-0.24154 0.52916,-0.883 0.52916,-1.42545 0,-1.24185 0.32228,-2.10233 0.7874,-2.10233 0.20779,0 0.27327,0.42933 0.15537,1.0188 -0.14415,0.72075 -0.0199,1.18516 0.42466,1.5875 0.843593,0.76344 1.349803,0.7267 0.670503,-0.0487 -0.733813,-0.83758 -1.011093,-2.91042 -0.38933,-2.91042 0.25744,0 0.46807,0.36513 0.46807,0.81139 0,0.44627 0.1905,1.00189 0.42333,1.23473 0.32926,0.32925 0.31358,0.42333 -0.0705,0.42333 -0.36503,0 -0.39063,0.10326 -0.0981,0.39576 0.4804,0.4804 0.17665,1.45829 -0.35157,1.13184 -0.23564,-0.14563 -0.29176,-0.0133 -0.15049,0.3548 0.33659,0.87714 -0.28695,0.70852 -0.764433,-0.20671 -0.36391,-0.69756 -0.39589,-0.61207 -0.26387,0.70549 0.13639,1.3612 -0.20335,2.26682 -0.59773,1.59332 z m -1.4821,-3.87331 c 0.072,-0.81747 0.29602,-1.76997 0.49779,-2.11667 0.29793,-0.51193 0.36887,-0.36134 0.37758,0.80152 0.006,0.78754 -0.21811,1.74004 -0.49779,2.11667 -0.46633,0.62798 -0.49765,0.56149 -0.37758,-0.80152 z m -1.09193,-1.01199 c 0.11778,-0.30691 0.21414,-0.86253 0.21414,-1.23472 0,-0.37219 0.15875,-0.6767 0.35277,-0.6767 0.39244,0 0.4687,1.05134 0.13865,1.91142 -0.11777,0.30691 -0.37288,0.55802 -0.56691,0.55802 -0.19403,0 -0.25642,-0.25111 -0.13865,-0.55802 z m 5.064833,0.002 c -0.14552,-0.14676 -0.25975,-0.67694 -0.25385,-1.17818 0.009,-0.79955 0.0556,-0.83425 0.37651,-0.2829 0.40174,0.69023 0.30115,1.88848 -0.12266,1.46108 z m -3.968753,-2.17387 c -0.20642,-0.15707 -0.26687,-1.07338 -0.14569,-2.20871 0.11389,-1.06715 0.23295,-1.74184 0.26458,-1.4993 0.12803,0.98183 0.76911,0.35097 0.97934,-0.96373 0.23694,-1.48174 0.84205,-1.61311 0.84205,-0.1828 0,1.23227 0.67994,1.4452 0.919563,0.28796 0.21394,-1.03323 2.67598,-2.93379 3.80051,-2.93379 0.85396,0 0.68957,0.59945 -0.22751,0.82962 -0.4395,0.11031 -1.32886,0.74714 -1.97635,1.41518 -1.04205,1.07512 -1.18323,1.45147 -1.22937,3.27726 l -0.0521,2.06266 -1.411113,0.092 c -0.77611,0.0506 -1.56986,-0.0288 -1.76389,-0.17639 z m -1.42242,-4.0852 c -0.26493,-1.41222 -0.87063,-1.77565 -0.87063,-0.5224 0,0.90012 -0.57092,0.4713 -0.75951,-0.57049 -0.15082,-0.83307 -1.00438,-1.1827 -1.00438,-0.41141 0,0.98193 -0.52014,0.5994 -0.91938,-0.67615 -0.21255,-0.6791 -0.32624,-1.23472 -0.25265,-1.23472 0.0736,0 1.06179,0.46843 2.19598,1.04097 2.07295,1.04643 2.79682,2.14747 2.12572,3.23334 -0.17111,0.27687 -0.36165,-0.0409 -0.51515,-0.85914 z m 5.745713,0.52572 c -0.19472,-0.7446 0.25204,-1.42965 1.48785,-2.28139 1.19682,-0.82488 1.32312,-0.7682 1.13559,0.50957 -0.15621,1.06433 -0.18005,1.07893 -0.5705,0.34938 -0.52501,-0.981 -1.26095,-0.35074 -1.26095,1.07988 0,1.10641 -0.53206,1.33654 -0.79199,0.34256 z m -4.914373,-1.58639 c -0.13125,-0.64376 -0.0821,-0.87572 0.13881,-0.65484 0.18812,0.18813 0.27959,0.63673 0.20325,0.99689 -0.10281,0.48501 -0.19152,0.3963 -0.34206,-0.34205 z m 8.407573,-0.25624 c -0.0932,-0.47495 -0.14948,-1.21194 -0.12503,-1.63775 0.0338,-0.58891 0.15301,-0.68412 0.49803,-0.39778 0.52592,0.43648 0.58671,1.65001 0.11963,2.38831 -0.25513,0.40326 -0.35882,0.32901 -0.49263,-0.35278 z m -8.840143,-1.1572 c -0.75703,-0.7436 -1.73846,-1.48964 -2.18094,-1.65787 -0.73272,-0.27858 -0.77045,-0.4098 -0.42274,-1.47023 1.02323,-3.12067 0.91087,-2.99304 3.00529,-3.41366 2.85709,-0.57379 3.558743,-0.49968 4.458223,0.47087 0.44213,0.47707 1.21865,1.0251 1.7256,1.21784 0.50694,0.19274 1.0957,0.67553 1.30835,1.07288 0.35348,0.66049 0.28643,0.72244 -0.782,0.72244 -2.0827,0 -3.4512,1.61388 -2.32416,2.74091 0.31492,0.31492 0.21054,0.48847 -0.44097,0.73321 -0.48582,0.18249 -0.904223,0.18712 -0.971153,0.0108 -0.20961,-0.55236 -1.48534,-0.32768 -1.74586,0.30749 -0.21951,0.53519 -0.43642,0.4374 -1.62964,-0.73463 z m -2.16102,-0.602 c -0.96482,-0.56792 -1.56485,-1.0353 -1.33341,-1.0386 0.23144,-0.003 1.02519,0.34016 1.76389,0.76327 1.66215,0.95205 1.67197,0.95969 1.4804,1.15126 -0.0862,0.0862 -0.94606,-0.30801 -1.91088,-0.87593 z m 6.888843,-0.85582 c 0,-0.7278 1.31697,-1.34725 2.32591,-1.09402 0.81267,0.20397 1.22851,1.258 0.49631,1.258 -0.19403,0 -0.35278,-0.23813 -0.35278,-0.52917 0,-0.76534 -0.97694,-0.64992 -1.49298,0.17639 -0.5183,0.82994 -0.97646,0.91852 -0.97646,0.1888 z m 1.41818,-0.0209 c 0.24544,-0.29573 0.5189,-0.46504 0.60769,-0.37625 0.24465,0.24466 -0.25243,0.91395 -0.67878,0.91395 -0.23392,0 -0.20716,-0.20242 0.0711,-0.5377 z"
       id="path13" /></g></svg>
