<?xml version="1.0" encoding="UTF-8" standalone="no"?>
<!-- Created with Inkscape (http://www.inkscape.org/) -->

<svg
   width="19.565786mm"
   height="18.880299mm"
   viewBox="0 0 19.565786 18.880299"
   version="1.1"
   id="svg1"
   xml:space="preserve"
   xmlns="http://www.w3.org/2000/svg"
   xmlns:svg="http://www.w3.org/2000/svg"><defs
     id="defs1" /><g
     id="layer1"
     transform="translate(-53.98579,-204.56046)"><path
       style="fill:#000000"
       d="m 63.196322,221.94145 c 0.08852,-0.82461 0.258574,-2.05493 0.377905,-2.73402 l 0.216963,-1.23473 0.252343,1.05834 c 0.138789,0.58208 0.271126,1.81239 0.294082,2.73402 0.03555,1.42722 -0.05791,1.6757 -0.630248,1.6757 -0.580632,0 -0.650107,-0.20383 -0.511045,-1.49931 z m -1.286413,-1.37018 c 0,-0.97812 0.75082,-3.48051 1.044295,-3.48051 0.124883,0 0.06953,0.9525 -0.123002,2.11667 -0.337966,2.04353 -0.921293,2.90707 -0.921293,1.36384 z m 2.851455,-1.02843 c -0.46277,-2.15782 -0.471303,-2.45208 -0.07111,-2.45208 0.310462,0 1.100213,2.64443 1.100213,3.68399 0,1.23505 -0.672745,0.42972 -1.029101,-1.23191 z m -2.486265,-4.19278 c -0.491073,-0.91758 -0.463589,-4.00736 0.04559,-5.12488 0.32282,-0.70851 0.307423,-1.09468 -0.0719,-1.80346 -0.664709,-1.24202 -0.089,-2.06083 1.546855,-2.20005 1.085709,-0.0924 1.348213,0.0291 1.691832,0.7833 0.307815,0.67558 0.306973,1.01287 -0.0035,1.38692 -0.284054,0.34226 -0.33847,1.42729 -0.176961,3.52847 0.262964,3.42106 -0.01667,4.11207 -1.664032,4.11207 -0.630313,0 -1.138358,-0.25343 -1.367916,-0.68237 z m -3.892968,-0.45852 c -0.827741,-0.36659 -0.773538,-0.40544 0.881945,-0.63202 1.989802,-0.27234 2.11042,-0.23765 1.818542,0.52297 -0.240549,0.62686 -1.42347,0.67463 -2.700487,0.10905 z m 8.11389,-0.23721 c 0,-0.60651 0.12207,-0.63507 1.243571,-0.29087 1.317375,0.40432 1.062227,0.94772 -0.449821,0.95801 -0.547464,0.004 -0.79375,-0.20328 -0.79375,-0.66714 z m 1.263825,-1.04489 c -1.811613,-0.39225 -1.526661,-1.10479 0.441813,-1.10479 0.970438,0 2.05523,-0.0975 2.410648,-0.21656 0.393167,-0.13176 0.231788,0.13955 -0.41212,0.69286 -0.582083,0.50019 -1.137708,0.89636 -1.234722,0.88038 -0.09701,-0.016 -0.639542,-0.12933 -1.205619,-0.25189 z m -11.229798,-0.42749 c -0.339549,-0.19777 -0.617361,-0.58589 -0.617361,-0.86249 0,-0.39407 0.195838,-0.42845 0.90491,-0.15886 0.497701,0.18923 1.608951,0.34405 2.469445,0.34405 1.658028,0 2.100303,0.47968 0.770784,0.83598 -1.192657,0.31962 -2.833283,0.24582 -3.527778,-0.15868 z m 1.322917,-1.77278 c -1.996689,-0.45091 -2.989916,-1.03591 -3.509472,-2.06705 -0.755222,-1.49885 -0.31463,-1.79322 1.322414,-0.88353 0.814826,0.45279 2.402696,1.16605 3.528601,1.58503 3.036204,1.12984 2.051805,2.13186 -1.341543,1.36555 z m 8.525463,0.15474 c -0.507188,-0.50719 -0.174266,-0.77089 1.26412,-1.00129 0.824618,-0.13208 2.491494,-0.77803 3.704167,-1.43544 1.594297,-0.8643 2.204861,-1.0552 2.204861,-0.6894 0,1.16138 -0.874334,2.2939 -2.171713,2.81301 -1.378492,0.55156 -4.563585,0.75097 -5.001435,0.31312 z m -0.651071,-1.56771 c -0.533832,-0.32993 -0.673971,-0.22864 2.257704,-1.63175 1.304042,-0.62412 2.992729,-1.69647 3.752637,-2.383 1.39677,-1.26189 1.813878,-1.17434 1.813878,0.38077 0,1.62047 -6.327228,4.55917 -7.824219,3.63398 z m -6.666098,-0.62824 c -3.24222,-1.03743 -4.912461,-2.13205 -4.912461,-3.21948 0,-1.45797 0.351802,-1.48792 1.82661,-0.15552 0.752906,0.6802 2.387217,1.73888 3.631802,2.35261 1.244585,0.61373 2.183097,1.24497 2.085582,1.40276 -0.230629,0.37316 -0.314435,0.36105 -2.631533,-0.38037 z m 3.906984,-3.87567 c 0,-0.17027 0.227054,-0.49802 0.504564,-0.72834 0.403557,-0.33492 0.582596,-0.27294 0.894357,0.30959 0.346211,0.6469 0.289797,0.72833 -0.504565,0.72833 -0.491896,0 -0.894356,-0.13931 -0.894356,-0.30958 z"
       id="path12" /></g></svg>
