<?xml version="1.0" encoding="UTF-8" standalone="no"?>
<!-- Created with Inkscape (http://www.inkscape.org/) -->

<svg
   width="16.622196mm"
   height="19.14831mm"
   viewBox="0 0 16.622196 19.14831"
   version="1.1"
   id="svg1"
   xml:space="preserve"
   xmlns="http://www.w3.org/2000/svg"
   xmlns:svg="http://www.w3.org/2000/svg"><defs
     id="defs1" /><g
     id="layer1"
     transform="translate(-10.959866,-199.77111)"><path
       style="fill:#000000"
       d="m 17.746718,218.48257 -0.436852,-0.43686 v -2.2225 -2.2225 h 1.250178 1.250177 l -0.10365,2.55764 -0.103649,2.55764 -0.709676,0.10171 -0.709676,0.10172 z m -3.751819,-5.52848 -0.181607,-0.29385 0.826487,-1.21628 0.826486,-1.21629 -0.778555,-0.90512 -0.778555,-0.90512 -1.031699,-0.25894 -1.031698,-0.25894 -0.442946,-0.36762 -0.442946,-0.36761 v -0.83875 -0.83875 h 8.311098 8.311098 l -0.222175,0.35949 -0.222174,0.35949 -1.650729,0.84922 -1.650729,0.84922 -0.92884,1.19013 -0.92884,1.19013 0.487868,0.6672 0.487868,0.6672 v 0.81452 0.81452 h -4.388903 -4.388902 z m 3.138578,-8.17282 -0.218028,-0.35278 h -1.56668 -1.566681 l -0.0039,-0.61736 -0.0039,-0.61736 -0.01087,-1.32292 -0.05705,-1.29982 1.440635,-0.0231 h 1.810047 v -0.31419 l 0.01155,-0.40653 1.259793,-0.0561 1.536852,0.0363 0.06208,0.3587 0.02744,0.3818 h 1.549757 1.549757 v 1.94027 1.94028 h -1.56668 -1.56668 l -0.218029,0.35278 -0.218029,0.35278 h -1.016693 -1.016694 z"
       id="path10" /></g></svg>
