<?xml version="1.0" encoding="UTF-8" standalone="no"?>
<!-- Created with Inkscape (http://www.inkscape.org/) -->

<svg
   width="27.142448mm"
   height="15.770307mm"
   viewBox="0 0 27.142448 15.770307"
   version="1.1"
   id="svg1"
   xml:space="preserve"
   xmlns="http://www.w3.org/2000/svg"
   xmlns:svg="http://www.w3.org/2000/svg"><defs
     id="defs1" /><g
     id="layer1"
     transform="translate(-152.9955,-185.41241)"><path
       style="fill:#000000;stroke-width:0.709258"
       d="m 157.63894,199.91927 c -0.1819,-0.0369 -0.33073,-0.17161 -0.33073,-0.2993 0,-0.25157 -1.14371,-1.7332 -1.66393,-2.15558 -0.25768,-0.2092 -0.24741,-0.28302 0.0524,-0.37688 0.64425,-0.20167 0.98143,-0.0236 1.95088,1.03038 0.73442,0.79846 0.91413,0.92164 0.81481,0.55854 -0.16525,-0.6041 -0.59603,-1.51569 -1.0582,-2.23924 -0.20218,-0.31654 -0.29946,-0.63098 -0.21619,-0.69877 0.18053,-0.14693 1.17456,-0.16654 1.18766,-0.0234 0.005,0.0549 0.28644,0.63016 0.62537,1.27835 l 0.61622,1.17851 -0.13211,-2.191 c -0.0991,-1.6435 -0.0513,-2.21615 0.19144,-2.2916 0.83809,-0.26057 0.99858,0.25482 1.11782,3.58965 l 0.0857,2.39576 -0.59532,0.0425 c -0.32742,0.0234 -0.59531,-0.0149 -0.59531,-0.085 0,-0.21939 -0.91632,-0.10252 -1.11595,0.14232 -0.19414,0.23811 -0.3533,0.26277 -0.93457,0.14478 z m 4.233,-0.42297 c -0.10895,-0.14697 -0.13857,-1.09532 -0.0658,-2.10744 0.12432,-1.72932 0.16418,-1.84023 0.66146,-1.84023 0.66048,0 0.75826,0.55544 0.46674,2.65122 -0.19949,1.43414 -0.59892,1.92158 -1.06239,1.29645 z m 1.60787,-0.10027 c -0.21237,-0.27841 0.35458,-2.38428 0.73925,-2.74584 0.30582,-0.28746 1.17996,-0.2602 1.11827,0.0349 -0.10458,0.50023 -0.68123,2.22541 -0.83995,2.51289 -0.22139,0.40097 -0.77986,0.50968 -1.01757,0.19807 z"
       id="path23" /><path
       style="fill:#000000;stroke-width:0.694029"
       d="m 164.60458,195.17138 c -0.15809,-0.0407 -0.28744,-0.18907 -0.28744,-0.32974 0,-0.27714 -0.99404,-1.90946 -1.44618,-2.37478 -0.22395,-0.23048 -0.21503,-0.31181 0.0455,-0.41521 0.55993,-0.22218 0.85299,-0.026 1.69557,1.13516 0.6383,0.87965 0.79449,1.01536 0.70817,0.61535 -0.14362,-0.66554 -0.51803,-1.66983 -0.91971,-2.46696 -0.17572,-0.34873 -0.26027,-0.69516 -0.1879,-0.76984 0.1569,-0.16187 1.02085,-0.18347 1.03223,-0.0258 0.004,0.0605 0.24896,0.69424 0.54353,1.40834 l 0.53558,1.29837 -0.11482,-2.41382 c -0.0861,-1.81063 -0.0446,-2.44152 0.16638,-2.52463 0.72841,-0.28707 0.8679,0.28073 0.97154,3.95468 l 0.0745,2.6394 -0.51741,0.0468 c -0.28457,0.0258 -0.5174,-0.0164 -0.5174,-0.0937 0,-0.2417 -0.79641,-0.11295 -0.96991,0.15679 -0.16873,0.26232 -0.30706,0.28949 -0.81226,0.1595 z m 3.67904,-0.46599 c -0.0947,-0.16191 -0.12044,-1.2067 -0.0572,-2.32175 0.10805,-1.90517 0.14269,-2.02737 0.57489,-2.02737 0.57405,0 0.65903,0.61192 0.40566,2.92084 -0.17338,1.57998 -0.52054,2.11698 -0.92336,1.42828 z m 1.39745,-0.11045 c -0.18458,-0.30672 0.30817,-2.62675 0.6425,-3.02508 0.2658,-0.31669 1.02554,-0.28666 0.97192,0.0384 -0.0909,0.55111 -0.59207,2.45173 -0.73002,2.76843 -0.19242,0.44175 -0.6778,0.56152 -0.8844,0.21822 z"
       id="path23-2" /><path
       style="fill:#000000;stroke-width:0.69363"
       d="m 167.87751,201.11693 c -0.1819,-0.0353 -0.33073,-0.16412 -0.33073,-0.28625 0,-0.2406 -1.14371,-1.65766 -1.66393,-2.06163 -0.25768,-0.20008 -0.24741,-0.27069 0.0524,-0.36045 0.64425,-0.19289 0.98143,-0.0226 1.95088,0.98547 0.73442,0.76365 0.91413,0.88147 0.81481,0.5342 -0.16525,-0.57777 -0.59603,-1.44963 -1.0582,-2.14165 -0.20218,-0.30274 -0.29946,-0.60348 -0.21619,-0.66832 0.18053,-0.14053 1.17456,-0.15928 1.18766,-0.0224 0.005,0.0525 0.28644,0.6027 0.62537,1.22263 l 0.61622,1.12716 -0.13211,-2.09552 c -0.0991,-1.57186 -0.0513,-2.11956 0.19144,-2.19172 0.83809,-0.24921 0.99858,0.24372 1.11782,3.4332 l 0.0857,2.29135 -0.59532,0.0406 c -0.32742,0.0224 -0.59531,-0.0142 -0.59531,-0.0813 0,-0.20982 -0.91632,-0.0981 -1.11595,0.13612 -0.19414,0.22773 -0.3533,0.25131 -0.93457,0.13847 z m 4.233,-0.40453 c -0.10895,-0.14056 -0.13857,-1.04758 -0.0658,-2.01559 0.12432,-1.65395 0.16418,-1.76003 0.66146,-1.76003 0.66048,0 0.75826,0.53123 0.46674,2.53567 -0.19949,1.37164 -0.59892,1.83783 -1.06239,1.23995 z m 1.60787,-0.0959 c -0.21237,-0.26627 0.35458,-2.28036 0.73925,-2.62617 0.30582,-0.27493 1.17996,-0.24886 1.11827,0.0333 -0.10458,0.47844 -0.68123,2.12843 -0.83995,2.40337 -0.22139,0.3835 -0.77986,0.48747 -1.01757,0.18944 z"
       id="path23-5" /><path
       style="fill:#000000;stroke-width:0.549589"
       d="m 153.17664,195.90973 c -0.37166,-0.22945 -0.13576,-0.59467 0.38411,-0.59467 h 0.46168 l -0.0812,-1.06913 c -0.0806,-1.06111 -0.043,-1.16252 0.40387,-1.08905 0.0544,0.009 0.0671,-0.075 0.0283,-0.18654 -0.0864,-0.24836 0.29007,-0.62113 0.48976,-0.48496 0.1935,0.13192 0.18601,0.0513 -0.13058,-1.40561 -0.1533,-0.70539 -0.39131,-1.38733 -0.54237,-1.554 -0.4343,-0.47912 -0.13976,-1.84733 0.39768,-1.84733 0.27299,0 0.34465,0.15808 0.49405,1.08982 0.0513,0.31954 0.0298,0.59567 -0.0506,0.65047 -0.0896,0.0612 -0.0664,0.25718 0.0648,0.54749 0.11248,0.24873 0.32023,1.09006 0.46165,1.8696 0.21471,1.18343 0.36771,1.32351 0.29695,0.27185 -0.0248,-0.36793 0.21403,-0.66323 0.45411,-0.56161 0.17777,0.0753 0.22164,0.33665 0.22164,1.32049 0,0.94666 0.044,1.22666 0.19285,1.22666 0.22321,0 0.36092,0.32526 0.36092,0.85251 0,0.3199 0.0645,0.36934 0.48196,0.36934 h 0.48196 l -0.0868,-2.10543 c -0.0938,-2.27513 7.5e-4,-3.47448 0.28425,-3.59438 0.38171,-0.16159 0.48651,0.11661 0.37757,1.00226 -0.0588,0.47832 -0.0603,0.95299 -0.003,1.05481 0.12527,0.22361 0.20025,-0.26083 0.40365,-2.60809 0.0832,-0.95988 0.18026,-1.79707 0.21576,-1.86043 0.0355,-0.0633 7.4e-4,-0.15836 -0.0762,-0.21112 -0.20126,-0.13723 -0.17382,-1.03867 0.0415,-1.36355 0.24111,-0.36377 0.65996,-0.25786 0.90796,0.22957 0.17585,0.34565 0.17344,0.45102 -0.0201,0.87904 -0.12096,0.26749 -0.25862,0.88067 -0.30594,1.36263 -0.0473,0.48197 -0.1187,1.12895 -0.15863,1.43776 -0.0674,0.52072 -0.0502,0.55501 0.23552,0.47257 l 0.30811,-0.0889 -0.0761,1.36022 c -0.0419,0.74813 -0.0493,1.1884 -0.0166,0.9784 0.14903,-0.95647 0.19994,-1.06914 0.48316,-1.06914 0.4658,0 0.29522,1.63768 -0.25972,2.49343 -0.55279,0.85244 -0.49536,1.63035 0.12035,1.63035 0.38174,0 0.39962,-0.031 0.39962,-0.6921 0,-0.48282 0.0645,-0.71942 0.21359,-0.7825 0.16907,-0.0716 0.19417,-0.23324 0.12042,-0.77576 -0.1,-0.73544 0.11105,-1.09396 0.45731,-0.77694 0.14045,0.12861 0.15974,0.0641 0.0922,-0.30857 -0.17233,-0.95061 0.28268,-1.8439 0.78742,-1.54589 0.29292,0.17295 0.39327,1.41771 0.12883,1.59801 -0.0761,0.0519 -0.13844,0.50272 -0.13844,1.00178 0,0.78846 0.0343,0.90737 0.26207,0.90737 0.29842,0 0.43014,0.28447 0.43014,0.92889 0,0.40757 0.0415,0.44571 0.48455,0.44571 0.39225,0 0.48455,0.0582 0.48455,0.30546 0,0.2404 -0.0959,0.30798 -0.44994,0.31724 -3.91428,0.10233 -10.33481,0.0852 -10.51826,-0.028 z m 1.50736,-1.85472 c -0.0384,-0.10502 -0.0698,-0.0191 -0.0698,0.19092 0,0.21001 0.0314,0.29592 0.0698,0.19091 0.0384,-0.10502 0.0384,-0.27682 0,-0.38183 z m 7.79953,0.26728 c 0,-0.042 -0.0312,-0.0763 -0.0692,-0.0763 -0.0381,0 -0.0692,0.0344 -0.0692,0.0763 0,0.042 0.0312,0.0763 0.0692,0.0763 0.0381,0 0.0692,-0.0344 0.0692,-0.0763 z m -3.87638,-1.68005 c 0,-0.042 -0.0312,-0.0763 -0.0692,-0.0763 -0.0381,0 -0.0692,0.0343 -0.0692,0.0763 0,0.042 0.0312,0.0763 0.0692,0.0763 0.0381,0 0.0692,-0.0343 0.0692,-0.0763 z"
       id="path16" /><path
       style="fill:#000000;stroke-width:0.600687"
       d="m 167.53992,197.157 c -0.0731,-0.12775 0.0112,-0.32086 0.21985,-0.5032 0.36979,-0.3232 0.34336,-0.97458 -0.0844,-2.08079 -0.27529,-0.7119 -0.25967,-1.35543 0.0359,-1.47783 0.36095,-0.14951 0.68917,0.30785 0.78723,1.097 0.0661,0.53156 0.12074,0.63724 0.22534,0.43551 0.22334,-0.43076 0.58133,-0.31044 0.68128,0.22897 0.0581,0.3138 0.1857,0.49534 0.34803,0.49534 0.14093,0 0.33885,0.0892 0.43981,0.19814 0.14278,0.15412 0.22437,0.15412 0.36715,0 0.10097,-0.10897 0.30881,-0.19814 0.46186,-0.19814 0.30603,0 0.28869,-0.23112 -0.12402,-1.65392 -0.11898,-0.41017 -0.23334,-1.04173 -0.25414,-1.40345 -0.0328,-0.5711 0.008,-0.66462 0.3064,-0.71047 0.2844,-0.0436 0.34685,0.0281 0.35945,0.41276 0.008,0.25605 0.0739,0.6513 0.14565,0.87834 0.0856,0.2709 0.10053,0.086 0.0435,-0.53787 -0.0587,-0.64186 -0.0249,-1.03139 0.10412,-1.19913 0.29499,-0.38365 0.60939,0.0118 0.60939,0.76652 0,0.35214 0.0688,0.64025 0.15298,0.64025 0.0936,0 0.15298,-0.77824 0.15298,-2.00447 0,-1.66511 -0.0424,-2.03792 -0.25024,-2.20197 -0.4195,-0.33108 -0.1539,-2.02679 0.3568,-2.27794 0.33865,-0.16654 0.42515,-0.14186 0.6763,0.1929 0.32655,0.43527 0.37459,1.01335 0.10812,1.30096 -0.12267,0.13241 -0.18811,1.15352 -0.20581,3.21151 -0.0143,1.65956 -0.0763,3.20314 -0.13794,3.43017 -0.0934,0.34425 -0.0596,0.32369 0.20357,-0.12384 0.17355,-0.29514 0.38756,-0.53662 0.47558,-0.53662 0.30411,0 0.35499,0.55269 0.0958,1.0402 -0.23905,0.44955 -0.24039,0.52178 -0.0166,0.89043 0.32635,0.5376 0.69304,0.42531 0.91263,-0.27947 0.24548,-0.78784 0.60283,-0.82246 0.92502,-0.0896 0.47125,1.07186 0.78544,1.02345 0.43724,-0.0674 -0.30312,-0.94965 -0.2365,-1.57673 0.16753,-1.57673 0.23895,0 0.31148,0.11915 0.33117,0.54403 0.0139,0.29922 0.0925,0.63358 0.17476,0.74302 0.0822,0.10945 0.18758,0.3476 0.23406,0.52923 0.0465,0.18162 0.0512,-0.0413 0.0104,-0.49535 -0.16826,-1.87461 -0.0137,-2.65567 0.48462,-2.44926 0.16111,0.0667 0.21828,0.40203 0.21828,1.28029 v 1.18989 l 0.52205,0.22109 c 0.28712,0.1216 0.60074,0.37695 0.69691,0.56745 0.0962,0.19049 0.39477,0.46452 0.66354,0.60893 0.55811,0.29989 0.71428,0.74216 0.30615,0.86705 -0.15203,0.0465 -2.97036,0.13413 -6.26296,0.19468 -4.72681,0.0869 -6.01152,0.0665 -6.10525,-0.0972 z m 4.21339,-0.73173 c 0,-0.0454 -0.0344,-0.0826 -0.0765,-0.0826 -0.0421,0 -0.0765,0.0371 -0.0765,0.0826 0,0.0454 0.0344,0.0825 0.0765,0.0825 0.0421,0 0.0765,-0.0371 0.0765,-0.0825 z m 0.71793,-3.50558 c -0.0388,-0.16066 -0.0731,-0.0692 -0.0762,0.20325 -0.003,0.27244 0.0286,0.40388 0.0705,0.29209 0.0419,-0.11179 0.0445,-0.33469 0.006,-0.49534 z"
       id="path15" /></g></svg>
