<?xml version="1.0" encoding="UTF-8" standalone="no"?>
<!-- Created with Inkscape (http://www.inkscape.org/) -->

<svg
   width="30.65369mm"
   height="13.918037mm"
   viewBox="0 0 30.65369 13.918037"
   version="1.1"
   id="svg1"
   xml:space="preserve"
   xmlns="http://www.w3.org/2000/svg"
   xmlns:svg="http://www.w3.org/2000/svg"><defs
     id="defs1" /><g
     id="layer1"
     transform="translate(-130.4249,-138.89494)"><path
       style="fill:#000000"
       d="m 156.5536,152.77258 c -0.037,-0.0326 -5.66318,-0.14013 -12.50266,-0.23896 -6.83948,-0.0988 -12.7033,-0.2443 -13.03073,-0.32328 -0.34672,-0.0836 -0.59531,-0.3447 -0.59531,-0.62519 0,-0.49602 0.65758,-1.31313 1.05677,-1.31313 0.12387,0 0.84626,-0.56518 1.60531,-1.25595 0.75905,-0.69077 1.92912,-1.6135 2.60015,-2.05052 0.78584,-0.51178 1.40839,-1.19009 1.74923,-1.90589 0.69036,-1.44986 1.02603,-1.55047 2.20031,-0.65949 0.53608,0.40675 1.34002,0.86378 1.78654,1.01562 l 0.81184,0.27608 2.01543,-2.67086 c 1.10849,-1.46898 2.1392,-2.99829 2.29046,-3.39847 0.15127,-0.40018 0.3784,-0.7276 0.50475,-0.7276 0.33209,0 2.22095,2.29941 3.21218,3.91037 0.46746,0.75971 0.93966,1.38129 1.04934,1.38129 0.10968,0 0.3337,0.29471 0.49781,0.6549 0.19592,0.43 0.90451,0.92972 2.06337,1.45517 1.93319,0.87655 3.95279,2.54904 4.6545,3.85452 0.48578,0.90377 1.52515,1.70833 2.2069,1.70833 0.26299,0 0.39142,0.17689 0.33616,0.46302 -0.0761,0.3939 -0.41456,0.46648 -2.26727,0.48617 -1.19781,0.0127 -2.2081,-0.004 -2.24508,-0.0361 z m 0.97132,-1.79972 c -0.26019,-0.86646 -2.17516,-2.48942 -3.9687,-3.36354 -1.91344,-0.93255 -2.53172,-1.5643 -4.2162,-4.30803 l -1.2745,-2.07595 -0.33539,0.62074 c -0.18446,0.3414 -0.41684,1.21604 -0.5164,1.94365 -0.0995,0.7276 -0.29078,1.5317 -0.42494,1.78689 -0.13417,0.25518 -0.2501,1.26659 -0.25763,2.24756 -0.008,0.98098 -0.17428,2.16796 -0.37056,2.63772 l -0.35688,0.85413 3.75382,0.0733 c 2.0646,0.0403 4.74029,0.091 5.94597,0.11269 l 2.19215,0.0394 z m -18.34881,-0.43626 c 0.11354,-0.21828 0.27455,-0.57546 0.35779,-0.79375 0.0832,-0.21828 0.54635,-0.9298 1.02912,-1.58116 l 0.87777,-1.18428 -1.1302,-0.60165 c -0.62161,-0.33091 -1.18067,-0.60166 -1.24235,-0.60166 -0.0617,0 -0.38329,0.74414 -0.71468,1.65365 -0.33139,0.9095 -0.88169,2.03265 -1.22289,2.49589 -0.34119,0.46323 -0.62035,0.91624 -0.62035,1.00668 0,0.35617 2.46509,-0.008 2.66579,-0.39372 z"
       id="path14" /></g></svg>
