<?xml version="1.0" encoding="UTF-8" standalone="no"?>
<!-- Created with Inkscape (http://www.inkscape.org/) -->

<svg
   width="32.529373mm"
   height="17.26531mm"
   viewBox="0 0 32.529373 17.26531"
   version="1.1"
   id="svg1"
   xml:space="preserve"
   xmlns="http://www.w3.org/2000/svg"
   xmlns:svg="http://www.w3.org/2000/svg"><defs
     id="defs1" /><g
     id="layer1"
     transform="translate(-41.540325,-54.506273)"><path
       style="fill:#000000"
       d="m 41.636481,71.266335 c 0.07822,-0.411028 0.365663,-0.52054 1.541369,-0.587254 1.2611,-0.07156 1.627002,-0.231665 2.872189,-1.256771 0.784836,-0.64612 1.52363,-1.174764 1.641763,-1.174764 0.118133,0 0.253283,-0.15992 0.300334,-0.355377 0.04705,-0.195457 1.333344,-1.415847 2.85843,-2.711979 1.525086,-1.296131 3.088958,-2.709381 3.475271,-3.140554 0.644506,-0.71935 0.761912,-0.75683 1.424733,-0.454828 0.644366,0.293592 0.819034,0.255376 1.617959,-0.353993 1.091,-0.832146 1.094682,-0.895628 0.106858,-1.842024 -0.433815,-0.41562 -1.114038,-1.241568 -1.511608,-1.835439 -0.397569,-0.59387 -0.759744,-1.132113 -0.804832,-1.196093 -0.151306,-0.214707 -1.614532,1.981085 -2.821287,4.233767 -0.768472,1.434527 -3.932791,4.48152 -4.654084,4.48152 -0.832644,0 -1.703023,-0.512757 -2.023048,-1.191816 -0.282411,-0.599245 -0.09141,-0.843956 3.175,-4.067821 1.911518,-1.886621 3.992768,-3.856252 4.624999,-4.376958 1.288871,-1.061514 2.297049,-1.229214 2.552433,-0.424571 0.204335,0.643803 1.889922,3.14733 2.543734,3.778094 0.460521,0.444288 0.545744,0.396971 2.025309,-1.124479 2.185727,-2.247602 2.328754,-2.199403 4.119548,1.38828 0.817165,1.637109 1.99141,3.750469 2.609434,4.696354 1.25274,1.917317 5.108465,5.933761 5.477418,5.705735 0.349796,-0.216185 1.465339,0.77395 1.255148,1.114045 -0.102038,0.165101 -0.949764,0.290271 -1.960327,0.289449 -2.384387,-0.0019 -10.277613,0.312726 -11.437834,0.455971 -0.509323,0.06288 -5.016322,0.191378 -10.015553,0.285544 l -9.089512,0.171211 z m 19.455816,-1.672851 c 0.261213,-0.348625 0.40656,-0.36376 0.856305,-0.08917 0.29793,0.181901 0.811197,0.325963 1.140594,0.320136 0.567437,-0.01004 0.560676,-0.03133 -0.128702,-0.405325 -0.775934,-0.420951 -0.956593,-1.027095 -0.372881,-1.251086 0.195097,-0.07487 0.522519,-0.0299 0.727604,0.09993 0.205085,0.129829 0.654652,0.237876 0.999038,0.240104 0.528298,0.0034 0.605942,0.109799 0.496811,0.680684 l -0.129347,0.676632 1.619856,-0.128635 c 0.890921,-0.07075 2.210193,-0.137109 2.931716,-0.147465 l 1.311859,-0.01883 -1.070058,-1.124479 c -2.068335,-2.173527 -4.355823,-5.554619 -6.109891,-9.030912 l -0.518338,-1.027267 -1.204589,2.482475 c -0.662524,1.365361 -1.279583,2.707517 -1.371242,2.982568 -0.148282,0.444967 -0.348285,0.481271 -1.814377,0.329339 -0.985614,-0.10214 -1.927966,-0.377045 -2.345135,-0.684129 l -0.697411,-0.513375 -0.167329,0.845494 c -0.09203,0.465022 -0.519534,1.693691 -0.950008,2.730374 l -0.782679,1.88488 0.853669,0.940354 0.85367,0.940354 2.778125,-0.156378 c 2.095032,-0.117928 2.855483,-0.259625 3.09274,-0.576276 z"
       id="path11" /></g></svg>
