<?xml version="1.0" encoding="UTF-8" standalone="no"?>
<!-- Created with Inkscape (http://www.inkscape.org/) -->

<svg
   width="30.692417mm"
   height="13.950475mm"
   viewBox="0 0 30.692417 13.950475"
   version="1.1"
   id="svg1"
   xml:space="preserve"
   xmlns="http://www.w3.org/2000/svg"
   xmlns:svg="http://www.w3.org/2000/svg"><defs
     id="defs1" /><g
     id="layer1"
     transform="translate(-115.79281,-34.40945)"><path
       style="fill:#000000"
       d="m 115.97913,48.265154 c -0.3332,-0.333198 -0.19507,-0.891121 0.22062,-0.891121 0.66404,0 1.7071,-0.814573 2.1875,-1.708332 0.7017,-1.305475 2.72131,-2.977963 4.6545,-3.854514 1.15886,-0.525451 1.86745,-1.025177 2.06336,-1.455174 0.16412,-0.360193 0.38813,-0.654896 0.49781,-0.654896 0.10969,0 0.58189,-0.621581 1.04934,-1.381291 0.99124,-1.610965 2.88009,-3.910376 3.21219,-3.910376 0.12634,0 0.35348,0.327422 0.50474,0.727604 0.15127,0.400183 1.18198,1.929491 2.29046,3.398464 l 2.01543,2.67086 0.81185,-0.276076 c 0.44651,-0.151842 1.25046,-0.608873 1.78654,-1.015623 1.17427,-0.890978 1.50994,-0.790369 2.2003,0.65949 0.34084,0.715803 0.96339,1.394112 1.74923,1.905898 0.67104,0.437016 1.84111,1.359751 2.60015,2.050521 0.75905,0.69077 1.48144,1.255945 1.60531,1.255945 0.40184,0 1.05677,0.818564 1.05677,1.320793 0,0.72856 -0.41412,0.759026 -12.56771,0.924577 -6.11187,0.08325 -12.60657,0.211546 -14.43266,0.285093 -1.82609,0.07355 -3.40367,0.05022 -3.50573,-0.05184 z m 11.50875,-1.395742 3.62452,-0.02454 -0.35987,-0.861285 c -0.19793,-0.473707 -0.36603,-1.663905 -0.37356,-2.644884 -0.008,-0.98098 -0.12346,-1.992386 -0.25762,-2.247569 -0.13417,-0.255184 -0.32539,-1.059283 -0.42495,-1.786887 -0.0996,-0.727604 -0.33193,-1.602248 -0.5164,-1.943652 l -0.33539,-0.620735 -1.2745,2.075943 c -1.68447,2.743734 -2.30275,3.375481 -4.21619,4.308033 -1.79639,0.875505 -3.70857,2.497392 -3.96986,3.367179 l -0.17189,0.572184 2.32559,-0.08462 c 1.27908,-0.04654 3.95663,-0.09566 5.95012,-0.109163 z m 12.91194,-0.439074 c 0,-0.08247 -0.27916,-0.528954 -0.62036,-0.992187 -0.34119,-0.463233 -0.89149,-1.586383 -1.22288,-2.495888 -0.33139,-0.909506 -0.64888,-1.653646 -0.70553,-1.653646 -0.0566,0 -0.61474,0.265792 -1.24021,0.590649 l -1.13722,0.590649 0.75739,1.122229 c 0.41656,0.617226 0.87011,1.191898 1.00789,1.277049 0.13777,0.08515 0.2505,0.362106 0.2505,0.615455 0,0.748584 0.56152,1.095635 1.77271,1.095635 0.62574,0 1.13771,-0.06748 1.13771,-0.149945 z"
       id="path10" /></g></svg>
