<?xml version="1.0" encoding="UTF-8" standalone="no"?>
<!-- Created with Inkscape (http://www.inkscape.org/) -->

<svg
   width="30.643591mm"
   height="13.881032mm"
   viewBox="0 0 30.643591 13.881032"
   version="1.1"
   id="svg1"
   xml:space="preserve"
   xmlns="http://www.w3.org/2000/svg"
   xmlns:svg="http://www.w3.org/2000/svg"><defs
     id="defs1" /><g
     id="layer1"
     transform="translate(-48.665007,-142.06658)"><path
       style="fill:#000000"
       d="m 74.793706,155.90714 c -0.03698,-0.0326 -5.663178,-0.14013 -12.502657,-0.23896 -6.839479,-0.0988 -12.703308,-0.2443 -13.030729,-0.32328 -0.356942,-0.0861 -0.595313,-0.344 -0.595313,-0.64409 0,-0.4371 0.209407,-0.50099 1.653646,-0.50453 1.077946,-0.003 1.523275,-0.0866 1.279168,-0.24109 -0.297063,-0.18804 -0.165591,-0.43405 0.63597,-1.19002 1.298967,-1.22508 1.031782,-1.5031 -0.443833,-0.46182 -1.260892,0.88976 -2.087108,1.13311 -2.251961,0.66329 -0.154249,-0.4396 2.191521,-2.15575 3.386456,-2.47751 1.317912,-0.35487 2.513871,-1.38247 2.921743,-2.51042 0.44723,-1.23679 0.900347,-1.3246 2.030039,-0.39342 0.529928,0.43682 1.159925,0.79421 1.399992,0.79421 0.698734,0 1.163204,0.71186 0.772017,1.18321 -0.284118,0.34234 -0.44009,0.33943 -1.289168,-0.024 -0.531269,-0.22742 -1.097911,-0.46847 -1.259205,-0.53568 -0.166361,-0.0693 -0.55624,0.5994 -0.900999,1.54538 -0.334256,0.91717 -0.886898,2.04658 -1.228093,2.50982 -0.819278,1.11231 -0.805771,1.14213 0.517353,1.14213 1.161512,0 1.772708,-0.3459 1.772708,-1.00326 0,-0.38293 0.586295,-1.22509 2.050521,-2.94539 0.472943,-0.55565 0.859896,-1.13949 0.859896,-1.29743 0,-0.15793 0.849359,-1.39365 1.887465,-2.74605 1.038106,-1.3524 2.051735,-2.84586 2.252509,-3.31881 0.454697,-1.07108 1.015171,-1.09762 1.544945,-0.0731 0.223762,0.43271 1.149554,1.40047 2.057315,2.15057 0.907761,0.7501 2.310216,1.97838 3.116567,2.7295 0.806351,0.75111 2.235101,2.00044 3.175,2.77627 2.651878,2.18896 4.800463,4.4695 4.700166,4.98882 -0.07505,0.38858 -0.421612,0.46226 -2.266436,0.48186 -1.197813,0.0127 -2.2081,-0.004 -2.245082,-0.0361 z m 1.368762,-2.30839 c -3.553607,-3.28449 -9.769069,-8.65884 -10.013996,-8.65884 -0.306649,0 -0.470777,0.47509 -0.696703,2.0167 -0.19731,1.34635 -0.584116,2.03924 -2.308285,4.13487 -1.120784,1.36225 -0.997874,1.55233 0.470481,0.7276 0.518176,-0.29104 0.998047,-0.52917 1.066381,-0.52917 0.263781,0 0.106408,1.3826 -0.256137,2.2503 l -0.38038,0.91038 3.753818,0.0733 c 2.0646,0.0403 5.063506,0.10025 6.664235,0.13318 l 2.910417,0.0599 z m -3.586366,0.0494 c -0.881036,-0.25541 -1.612436,-1.47905 -1.327655,-2.22118 0.210088,-0.54748 0.860253,-0.50556 1.280203,0.0825 0.190153,0.26629 0.673154,0.6967 1.073336,0.95647 0.819805,0.53215 0.993888,1.4835 0.264584,1.44591 -0.254662,-0.0131 -0.835373,-0.1318 -1.290468,-0.26374 z m -4.321391,-1.41949 c -0.387141,-0.46647 -0.117762,-1.4679 0.394858,-1.4679 0.409838,0 0.917521,0.79557 0.917521,1.43781 0,0.5216 -0.887578,0.54195 -1.312379,0.0301 z M 54.576044,151.5545 c 0.561047,-0.94978 0.155322,-1.07559 -0.456649,-0.1416 -0.476599,0.72738 -0.525463,0.93535 -0.219767,0.93535 0.114145,0 0.418533,-0.35719 0.676416,-0.79375 z"
       id="path15" /></g></svg>
