<?xml version="1.0" encoding="UTF-8" standalone="no"?>
<!-- Created with Inkscape (http://www.inkscape.org/) -->

<svg
   width="30.691664mm"
   height="13.913448mm"
   viewBox="0 0 30.691664 13.913448"
   version="1.1"
   id="svg1"
   xml:space="preserve"
   xmlns="http://www.w3.org/2000/svg"
   xmlns:svg="http://www.w3.org/2000/svg"><defs
     id="defs1" /><g
     id="layer1"
     transform="translate(-80.790927,-91.913509)"><path
       style="fill:#000000"
       d="m 80.976492,105.73217 c -0.102061,-0.10206 -0.185565,-0.35092 -0.185565,-0.55302 0,-0.45266 2.457206,-2.96571 4.751615,-4.8596 0.9399,-0.775834 2.36865,-2.025156 3.175,-2.776275 0.806351,-0.751119 2.208806,-1.979392 3.116567,-2.729496 0.907761,-0.750104 1.833553,-1.71786 2.057316,-2.150569 0.529773,-1.024469 1.090247,-0.997931 1.544944,0.07315 0.200774,0.472943 1.214403,1.966405 2.252509,3.318805 1.038106,1.352399 1.887465,2.588125 1.887465,2.746057 0,0.157932 0.386953,0.741775 0.859897,1.297428 1.46423,1.7203 2.05052,2.56246 2.05052,2.94539 0,0.65736 0.6112,1.00326 1.77271,1.00326 1.32312,0 1.33663,-0.0298 0.51735,-1.14213 -0.34119,-0.46324 -0.89384,-1.59265 -1.22809,-2.50982 -0.34476,-0.945987 -0.73464,-1.614702 -0.901,-1.545383 -0.16129,0.06721 -0.72794,0.308263 -1.25921,0.535681 -0.84907,0.363461 -1.00505,0.366368 -1.28916,0.02403 -0.391191,-0.471352 0.0733,-1.183211 0.77201,-1.183211 0.24007,0 0.87007,-0.357391 1.39999,-0.794202 1.1297,-0.931188 1.58281,-0.843374 2.03004,0.39342 0.40788,1.12795 1.60383,2.155541 2.92175,2.510415 1.19493,0.32176 3.5407,2.03791 3.38645,2.47751 -0.16485,0.46982 -0.99107,0.22647 -2.25196,-0.66329 -1.47561,-1.04128 -1.7428,-0.76326 -0.44383,0.46182 0.80156,0.75597 0.93303,1.00198 0.63597,1.19002 -0.24411,0.15451 0.20122,0.23845 1.27917,0.24109 1.45304,0.004 1.65364,0.0657 1.65364,0.51219 0,0.75052 -0.35422,0.77711 -12.567705,0.94348 -6.111875,0.0833 -12.606574,0.21155 -14.432664,0.28509 -1.826091,0.0736 -3.403669,0.0502 -3.505729,-0.0518 z m 11.508746,-1.39717 3.62452,-0.0231 -0.383374,-0.91754 c -0.364953,-0.87346 -0.52382,-2.25746 -0.25913,-2.25746 0.06833,0 0.548206,0.23813 1.066381,0.52917 1.468356,0.82473 1.591265,0.63464 0.470481,-0.7276 -1.724169,-2.095634 -2.110974,-2.788525 -2.308285,-4.134873 -0.225926,-1.541606 -0.390053,-2.016694 -0.696703,-2.016694 -0.246402,0 -6.534506,5.438587 -10.013996,8.661107 l -1.20983,1.12048 3.042708,-0.10517 c 1.67349,-0.0579 4.673742,-0.11558 6.667228,-0.1283 z m -6.667228,-1.05102 c 0,-0.27431 0.327422,-0.71128 0.727604,-0.97104 0.400182,-0.25977 0.883184,-0.69018 1.073336,-0.95647 0.796386,-1.11527 1.668768,-0.24692 1.10918,1.10405 -0.232733,0.56186 -0.598488,0.86089 -1.286902,1.0521 -1.356296,0.37673 -1.623218,0.33914 -1.623218,-0.22864 z m 4.7625,-1.23845 c 0,-0.64224 0.507683,-1.43781 0.917521,-1.43781 0.512621,0 0.781999,1.00143 0.394858,1.4679 -0.424801,0.51186 -1.312379,0.4915 -1.312379,-0.0301 z m 15.875,0.008 c 0,-0.0779 -0.19229,-0.43507 -0.4273,-0.79375 -0.61198,-0.93399 -1.0177,-0.80818 -0.45665,0.1416 0.41489,0.70236 0.88395,1.04841 0.88395,0.65215 z"
       id="path12" /></g></svg>
