<?xml version="1.0" encoding="UTF-8" standalone="no"?>
<!-- Created with Inkscape (http://www.inkscape.org/) -->

<svg
   width="21.440348mm"
   height="18.368755mm"
   viewBox="0 0 21.440348 18.368755"
   version="1.1"
   id="svg1"
   xml:space="preserve"
   xmlns="http://www.w3.org/2000/svg"
   xmlns:svg="http://www.w3.org/2000/svg"><defs
     id="defs1" /><g
     id="layer1"
     transform="translate(-81.717475,-106.21905)"><path
       style="fill:#000000"
       d="m 82.888616,124.48226 c -0.933235,-0.0772 -0.992187,-0.13491 -0.992187,-0.97055 0,-0.48864 -0.06637,-1.0614 -0.147497,-1.2728 -0.214274,-0.55839 0.722856,-0.8447 1.095727,-0.33477 0.438262,0.59936 0.823151,0.50426 1.012503,-0.25018 0.10719,-0.42708 0.351733,-0.66146 0.690141,-0.66146 0.463631,0 0.524126,-0.18143 0.524126,-1.57188 0,-0.86454 -0.119063,-1.64547 -0.264583,-1.73541 -0.505376,-0.31234 -0.313592,-2.4687 0.246209,-2.76829 0.96463,-0.51626 1.834223,1.03123 1.50487,2.67799 -0.129105,0.64553 -0.09225,0.75735 0.176186,0.53457 0.661734,-0.54919 1.065026,0.0719 0.873972,1.34591 -0.140933,0.93981 -0.09297,1.21987 0.230155,1.34387 0.224505,0.0862 0.408191,0.3295 0.408191,0.54079 0,0.37617 1.48588,0.8806 1.766711,0.59977 0.07775,-0.0778 -0.242148,-0.67542 -0.710894,-1.32814 -0.670221,-0.93326 -0.879721,-1.53012 -0.980794,-2.79422 -0.119402,-1.49334 -0.08942,-1.60746 0.422351,-1.60746 0.541273,0 0.638577,0.19517 0.923393,1.85208 0.06254,0.36381 0.04822,-0.3989 -0.03181,-1.69489 l -0.145508,-2.35635 0.588852,0.15398 c 0.54613,0.14282 0.578785,0.0834 0.450103,-0.81864 -0.07631,-0.53495 -0.212734,-1.65575 -0.30316,-2.49067 -0.09043,-0.83492 -0.353539,-1.89716 -0.584694,-2.36052 -0.369902,-0.74148 -0.374509,-0.92403 -0.03843,-1.5228 0.473949,-0.8444 1.274446,-1.02786 1.73524,-0.39768 0.411521,0.56279 0.463959,2.12439 0.07932,2.36212 -0.147894,0.0914 -0.213402,0.25598 -0.145573,0.36573 0.06783,0.10975 0.253387,1.56004 0.41235,3.22286 0.388725,4.06624 0.532015,4.90546 0.771426,4.51808 0.109016,-0.17639 0.10621,-0.99866 -0.0062,-1.82726 -0.206744,-1.5235 -0.0076,-2.01607 0.704601,-1.74277 0.472318,0.18124 0.648996,1.39117 0.648996,4.44446 v 2.69991 l 0.5881,-0.021 c 0.447744,-0.016 0.62726,0.16843 0.752185,0.77275 0.133464,0.64561 0.201814,0.70734 0.36625,0.33072 0.11119,-0.25466 0.368019,-0.46302 0.570731,-0.46302 0.28444,0 0.368567,-0.48503 0.368567,-2.12497 0,-1.70432 0.08385,-2.15714 0.423578,-2.28751 0.458824,-0.17607 0.915176,0.33552 0.867863,0.9729 -0.135233,1.82181 0.157185,1.57916 0.567517,-0.47094 0.270291,-1.35043 0.66732,-2.80788 0.882286,-3.23879 0.250886,-0.50292 0.295275,-0.84254 0.123958,-0.94842 -0.244231,-0.15095 -0.146682,-1.33942 0.209443,-2.55175 0.17572,-0.59818 1.067773,-0.59818 1.387753,0 0.53836,1.00645 0.54288,2.20462 0.0103,2.73718 -0.28871,0.28871 -0.74358,1.47007 -1.03654,2.69204 -0.621868,2.59389 -0.621927,2.59472 -0.171276,2.42179 0.436586,-0.16753 1.079146,0.5532 0.839256,0.94136 -0.0961,0.1555 -0.0766,0.26568 0.0434,0.24484 0.67678,-0.11757 0.87957,0.10165 0.87957,0.95082 0,0.76031 0.0981,0.92604 0.5481,0.92604 0.41586,0 0.52919,0.14428 0.46973,0.59802 -0.0431,0.32892 0.12587,0.88962 0.37549,1.246 0.31477,0.44939 0.36934,0.73235 0.17809,0.92333 -0.25273,0.25236 -17.451984,0.41723 -20.158394,0.19324 z m 17.174704,-3.29132 c -0.0734,-0.1819 -0.133448,-0.0331 -0.133448,0.33073 0,0.3638 0.06005,0.51263 0.133448,0.33073 0.0734,-0.1819 0.0734,-0.47956 0,-0.66146 z m -14.727308,0.46302 c 0,-0.0728 -0.05953,-0.13229 -0.132291,-0.13229 -0.07276,0 -0.132292,0.0595 -0.132292,0.13229 0,0.0728 0.05953,0.13229 0.132292,0.13229 0.07276,0 0.132291,-0.0595 0.132291,-0.13229 z m 8.378472,-0.57327 c -0.09701,-0.097 -0.176388,-0.0176 -0.176388,0.17639 0,0.19403 0.07937,0.27341 0.176388,0.17639 0.09701,-0.097 0.09701,-0.25576 0,-0.35278 z m -0.970138,-2.33715 c 0,-0.0728 -0.05953,-0.13229 -0.132292,-0.13229 -0.07276,0 -0.132292,0.0595 -0.132292,0.13229 0,0.0728 0.05953,0.13229 0.132292,0.13229 0.07276,0 0.132292,-0.0595 0.132292,-0.13229 z"
       id="path18" /></g></svg>
