<?xml version="1.0" encoding="UTF-8" standalone="no"?>
<!-- Created with Inkscape (http://www.inkscape.org/) -->

<svg
   width="21.894377mm"
   height="18.178852mm"
   viewBox="0 0 21.894377 18.178852"
   version="1.1"
   id="svg1"
   xml:space="preserve"
   xmlns="http://www.w3.org/2000/svg"
   xmlns:svg="http://www.w3.org/2000/svg"><defs
     id="defs1" /><g
     id="layer1"
     transform="translate(-80.076588,-52.662008)"><path
       style="fill:#000000"
       d="m 80.182311,70.603974 c -0.126519,-0.204711 0.0194,-0.514164 0.380225,-0.806341 0.639562,-0.517886 0.593861,-1.561665 -0.145986,-3.334267 -0.476124,-1.140746 -0.449111,-2.171941 0.06203,-2.368086 0.624289,-0.239563 1.191943,0.493311 1.361552,1.757842 0.114247,0.851775 0.208821,1.021123 0.389728,0.69786 0.386274,-0.690234 1.00544,-0.497435 1.178308,0.366907 0.100568,0.50284 0.321175,0.79375 0.601927,0.79375 0.243747,0 0.586052,0.142875 0.760677,0.3175 0.246945,0.246944 0.388056,0.246944 0.635,0 0.174625,-0.174625 0.534081,-0.3175 0.798791,-0.3175 0.529293,0 0.499319,-0.370358 -0.214491,-2.650251 -0.205785,-0.657273 -0.403578,-1.669279 -0.43954,-2.248902 -0.05678,-0.915129 0.01298,-1.064997 0.529928,-1.138464 0.491887,-0.0699 0.599894,0.045 0.621686,0.661402 0.0145,0.410304 0.127867,1.043663 0.251915,1.407465 0.148014,0.434087 0.173857,0.137816 0.07518,-0.861897 -0.101518,-1.028518 -0.04303,-1.652683 0.180064,-1.921492 0.510204,-0.614758 1.053965,0.01894 1.053965,1.228286 0,0.564265 0.119063,1.025936 0.264584,1.025936 0.161859,0 0.264583,-1.247048 0.264583,-3.211977 0,-2.668182 -0.07327,-3.265556 -0.432788,-3.52844 -0.725545,-0.530531 -0.266174,-3.24773 0.6171,-3.650177 0.585697,-0.266861 0.73531,-0.227324 1.169686,0.309108 0.564772,0.697464 0.647867,1.623788 0.187003,2.084652 -0.212173,0.212173 -0.325355,1.848417 -0.355969,5.146146 -0.02469,2.659285 -0.132042,5.132719 -0.238566,5.496522 -0.161521,0.551627 -0.10306,0.518678 0.35208,-0.198438 0.300167,-0.472943 0.670309,-0.859896 0.822535,-0.859896 0.525972,0 0.613979,0.885635 0.165635,1.666829 -0.413433,0.720366 -0.415761,0.836106 -0.0287,1.426832 0.564445,0.861452 1.198645,0.68152 1.578445,-0.447827 0.424561,-1.262443 1.042616,-1.317921 1.599864,-0.143609 0.815035,1.717561 1.35844,1.639982 0.756225,-0.107962 -0.524271,-1.521707 -0.409036,-2.526554 0.289745,-2.526554 0.413276,0 0.538714,0.19092 0.572761,0.871758 0.02398,0.479468 0.159992,1.015249 0.302257,1.190625 0.142265,0.175377 0.324438,0.556992 0.404828,0.848033 0.08039,0.291042 0.08849,-0.06615 0.018,-0.79375 -0.29101,-3.003886 -0.02373,-4.255453 0.838163,-3.924715 0.278657,0.106931 0.37753,0.644222 0.37753,2.051556 v 1.906684 l 0.902903,0.354271 c 0.496596,0.194849 1.039003,0.604025 1.205347,0.90928 0.166339,0.305254 0.682769,0.744347 1.147609,0.975762 0.96528,0.480545 1.23537,1.189241 0.5295,1.389365 -0.26294,0.07455 -5.137355,0.214926 -10.83204,0.311957 -8.175217,0.139296 -10.397176,0.106515 -10.559285,-0.155783 z m 7.287216,-1.172543 c 0,-0.07276 -0.05953,-0.132292 -0.132291,-0.132292 -0.07276,0 -0.132292,0.05953 -0.132292,0.132292 0,0.07276 0.05953,0.132291 0.132292,0.132291 0.07276,0 0.132291,-0.05953 0.132291,-0.132291 z m 1.241687,-5.617361 c -0.06708,-0.257431 -0.126381,-0.110869 -0.131773,0.325694 -0.0054,0.436562 0.04949,0.647188 0.121969,0.468056 0.07248,-0.179131 0.07689,-0.536319 0.0098,-0.79375 z"
       id="path15" /></g></svg>
