<?xml version="1.0" encoding="UTF-8" standalone="no"?>
<!-- Created with Inkscape (http://www.inkscape.org/) -->

<svg
   width="21.938984mm"
   height="18.196539mm"
   viewBox="0 0 21.938984 18.196539"
   version="1.1"
   id="svg1"
   xml:space="preserve"
   xmlns="http://www.w3.org/2000/svg"
   xmlns:svg="http://www.w3.org/2000/svg"><defs
     id="defs1" /><g
     id="layer1"
     transform="translate(-34.612677,-103.8599)"><path
       style="fill:#000000"
       d="m 40.118057,121.81995 c -2.862314,-0.0728 -5.288039,-0.21646 -5.390499,-0.31932 -0.332944,-0.33426 0.08487,-0.93322 0.903868,-1.29575 0.440392,-0.19493 0.936169,-0.60753 1.101727,-0.91687 0.165557,-0.30935 0.70732,-0.72188 1.203916,-0.91673 l 0.902903,-0.35427 v -1.90668 c 0,-1.40733 0.09887,-1.94463 0.37753,-2.05156 0.861888,-0.33073 1.129173,0.92083 0.838163,3.92472 -0.07049,0.7276 -0.06239,1.08479 0.018,0.79375 0.08039,-0.29104 0.262563,-0.67266 0.404828,-0.84803 0.142265,-0.17538 0.278281,-0.71116 0.302258,-1.19063 0.03405,-0.68084 0.159485,-0.87176 0.572761,-0.87176 0.69878,0 0.814015,1.00485 0.289745,2.52656 -0.602216,1.74794 -0.05881,1.82552 0.756224,0.10796 0.557248,-1.17431 1.175304,-1.11884 1.599864,0.14361 0.3798,1.12934 1.014,1.30928 1.578445,0.44782 0.387059,-0.59072 0.38473,-0.70646 -0.0287,-1.42683 -0.448344,-0.78119 -0.360337,-1.66683 0.165635,-1.66683 0.152227,0 0.522368,0.38696 0.822535,0.8599 0.45514,0.71712 0.513601,0.75006 0.35208,0.19844 -0.106524,-0.36381 -0.213879,-2.83724 -0.238566,-5.49652 -0.03061,-3.29773 -0.143796,-4.93398 -0.355968,-5.14615 -0.460865,-0.46087 -0.37777,-1.38719 0.187002,-2.08465 0.434376,-0.53643 0.583989,-0.57597 1.169686,-0.30911 0.883275,0.40245 1.342645,3.11964 0.6171,3.65018 -0.359516,0.26288 -0.432788,0.86025 -0.432788,3.52844 0,1.96493 0.102725,3.21197 0.264584,3.21197 0.14552,0 0.264583,-0.46167 0.264583,-1.02593 0,-1.20935 0.543761,-1.84305 1.053965,-1.22829 0.223091,0.26881 0.281582,0.89298 0.180064,1.92149 -0.09868,0.99972 -0.07283,1.29599 0.07518,0.8619 0.124048,-0.3638 0.23741,-0.99716 0.251915,-1.40746 0.02179,-0.61641 0.129799,-0.73131 0.621686,-0.66141 0.516946,0.0735 0.586706,0.22334 0.529928,1.13847 -0.03596,0.57962 -0.233755,1.59163 -0.43954,2.2489 -0.71381,2.27989 -0.743784,2.65025 -0.214491,2.65025 0.26471,0 0.624166,0.14288 0.798791,0.3175 0.246944,0.24694 0.388055,0.24694 0.635,0 0.174625,-0.17462 0.51693,-0.3175 0.760677,-0.3175 0.280752,0 0.501359,-0.29091 0.601927,-0.79375 0.172868,-0.86434 0.792034,-1.05714 1.178308,-0.36691 0.180907,0.32327 0.275481,0.15392 0.389728,-0.69786 0.169609,-1.26453 0.737263,-1.9974 1.361552,-1.75784 0.511146,0.19615 0.538159,1.22734 0.06204,2.36809 -0.739847,1.7726 -0.785548,2.81638 -0.145986,3.33426 1.467518,1.18833 0.445749,1.24115 -15.947656,0.82443 z m 9.305248,-1.19063 c 0,-0.0728 -0.05953,-0.13229 -0.132291,-0.13229 -0.07276,0 -0.132292,0.0595 -0.132292,0.13229 0,0.0728 0.05953,0.13229 0.132292,0.13229 0.07276,0 0.132291,-0.0595 0.132291,-0.13229 z m -1.404146,-5.61736 c -0.06708,-0.25743 -0.126381,-0.11087 -0.131774,0.3257 -0.0054,0.43656 0.0495,0.64718 0.12197,0.46805 0.07248,-0.17913 0.07689,-0.53632 0.0098,-0.79375 z"
       id="path17" /></g></svg>
