<svg width="696" height="515" viewBox="0 0 696 515" fill="none" xmlns="http://www.w3.org/2000/svg">
<path d="M111.472 185.887L119.961 249.915L89.2341 274.371L86.4611 276.578L84.7319 279.672L69.4743 306.967L21.7465 301.722L41.5537 208.611L111.472 185.887ZM81.2545 88.9749L150.201 38.407L229.776 60.3404L231.502 60.816L233.287 60.9425L238.8 61.3331L241.961 61.5572L245.009 60.6877L302.532 44.2792L316.509 51.5782L305.319 81.4775L257.79 139.479L255.8 141.907L254.75 144.865L227.77 220.851L208.336 219.144L169.739 137.482L168.869 130.914L161.731 126.415L143.443 114.888L136.035 110.219L127.789 113.165L69.781 133.891L67.7658 129.267L81.2545 88.9749ZM610.933 370.055L649.127 340.487L667.361 349.211L676.949 383.541L662.396 417.188L619.222 433.973L594.293 405.291L610.933 370.055ZM364.752 255.253L358.157 257.36L354.674 263.345L326.777 311.282L295.837 321.774L278.356 285.175L317.049 160.441L453.553 21.9291L616.51 103.08L660.291 253.186L658.914 267.407L653.693 270.376L636.768 270.098L629.333 269.975L623.98 275.136L586.231 311.523L554.538 325.953H548.709L537.455 313.814L536.249 312.514L534.814 311.474L505.059 289.922L501.566 287.392L497.306 286.72L455.415 280.108L395.869 250.627L389.342 247.395L382.404 249.612L364.752 255.253ZM90.7105 397.641L92.664 398.897L94.8723 399.616L169.429 423.885L172.144 424.769H175H227.707L233.03 443.073L207.614 465.547L126.746 472.149L41.2397 462.581L28.6479 398.184L55.196 374.812L90.7105 397.641ZM366.694 392.71L378.246 391.236L381.636 380.095L399.307 322.019L496.102 364.107L510.363 446.559L433.796 495.027L345.205 473.235L318.427 459.807L305.865 430.72L317.601 398.974L366.694 392.71ZM132.424 328.608L167.698 294.23L205.638 281.719L238.391 350.28L226.81 365.823L153.805 357.825L132.424 328.608Z" stroke="black" stroke-width="36"/>
</svg>
