<svg width="800" height="528" viewBox="0 0 800 528" fill="none" xmlns="http://www.w3.org/2000/svg">
<path d="M690.909 309.091H681.819C701.819 287.272 712.728 256.364 709.092 225.455C703.637 170.909 654.547 127.273 596.366 127.273H510.911C492.73 127.273 476.366 118.183 467.275 103.637L409.094 21.8187C398.184 9.09062 380.003 0 363.639 0H338.184C312.73 0 290.911 21.8187 290.911 47.2734C290.911 56.3641 292.73 63.6375 298.184 70.9094L332.73 127.273H200C140 127.273 90.9094 176.364 90.9094 236.364C90.9094 265.455 101.819 290.909 120 309.091C116.364 309.091 112.727 309.091 109.091 309.091C49.0906 309.091 0 358.181 0 418.181C0 478.181 49.0906 527.272 109.091 527.272H690.909C750.909 527.272 800 478.181 800 418.181C800 358.181 750.909 309.091 690.909 309.091ZM109.091 490.908C69.0906 490.908 36.3641 458.181 36.3641 418.181C36.3641 378.181 69.0906 345.455 109.091 345.455C149.091 345.455 181.817 378.181 181.817 418.181C181.819 458.181 149.091 490.908 109.091 490.908ZM189.091 490.908C192.727 487.272 196.364 483.634 198.181 478.181C203.636 483.636 205.455 487.272 209.091 490.908H189.091ZM200 358.181C196.364 352.727 192.727 349.091 189.091 345.455C192.727 345.455 196.364 345.455 200 345.455C203.636 345.455 207.273 345.455 210.909 345.455C207.273 349.091 203.636 352.727 200 358.181ZM290.909 490.908C250.909 490.908 218.183 458.181 218.183 418.181C218.183 378.181 250.909 345.455 290.909 345.455C330.909 345.455 363.636 378.181 363.636 418.181C363.636 458.181 330.909 490.908 290.909 490.908ZM690.909 490.908H372.727C381.817 479.998 389.091 467.272 394.545 454.544H527.272C538.181 454.544 545.453 447.27 545.453 436.363C545.453 425.455 538.18 418.181 527.272 418.181H400C400 358.181 350.909 309.091 290.909 309.091C287.273 309.091 283.636 309.091 280 309.091C298.181 289.091 309.091 263.636 309.091 236.364H363.636C374.545 236.364 381.817 229.091 381.817 218.183C381.817 207.273 374.544 200.002 363.636 200.002H289.091C283.636 200.002 278.181 201.82 274.545 207.275C270.909 212.73 269.091 216.366 270.909 221.82C272.728 227.275 272.728 230.911 272.728 236.366C272.728 276.366 240.002 309.092 200.002 309.092C160.002 309.092 127.275 276.366 127.275 236.366C127.273 196.362 160 163.636 200 163.636H363.636C370.909 163.636 376.362 160 380 154.545C383.638 149.091 383.636 141.819 380 136.364L329.091 52.7281C327.272 50.9094 327.272 49.0922 327.272 47.2734C327.272 41.8187 332.727 36.3641 338.181 36.3641H363.636C369.091 36.3641 374.545 40 378.181 43.6375L436.363 125.456C452.727 149.091 481.819 163.636 510.909 163.636H596.364C636.364 163.636 669.091 192.727 672.728 229.091C672.728 230.909 672.728 234.545 672.728 236.364H545.455C534.545 236.364 527.273 243.637 527.273 254.545C527.273 265.455 534.547 272.727 545.455 272.727H663.636C661.817 276.362 658.181 281.817 654.545 285.453C640 299.998 621.819 309.089 600 309.089H418.181C407.272 309.089 400 316.363 400 327.27C400 338.178 407.273 345.452 418.181 345.452H690.908C709.089 345.452 725.453 352.725 738.181 363.633H581.819C570.909 363.633 563.638 370.906 563.638 381.814C563.638 392.722 570.911 399.995 581.819 399.995H761.819C763.637 405.45 763.638 412.723 763.638 418.177C763.636 458.181 730.909 490.908 690.909 490.908Z" fill="black"/>
</svg>
