<?xml version="1.0" encoding="UTF-8" standalone="no"?>
<!-- Created with Inkscape (http://www.inkscape.org/) -->

<svg
   width="26.573137mm"
   height="21.665619mm"
   viewBox="0 0 26.573137 21.665619"
   version="1.1"
   id="svg1"
   xml:space="preserve"
   xmlns="http://www.w3.org/2000/svg"
   xmlns:svg="http://www.w3.org/2000/svg"><defs
     id="defs1" /><g
     id="layer1"
     transform="translate(-57.880784,-195.62025)"><path
       style="fill:#000000;stroke-width:2.69144"
       d="m 59.204419,217.02264 c -0.322443,-0.47247 0.676112,-0.83449 2.301637,-0.83449 h 1.588995 l -0.09605,-0.70477 c -0.174817,-1.28296 -0.184631,-1.2876 -1.561628,-0.73614 -0.702085,0.28119 -1.783002,0.58001 -2.402039,0.66407 -1.639494,0.22257 -1.530367,-0.37932 0.311254,-1.71693 0.790225,-0.57397 1.436773,-1.08931 1.436773,-1.14522 0,-0.0558 -0.316367,-0.0443 -0.70304,0.0256 -0.946939,0.1716 -1.82175,-0.44434 -1.586133,-1.11661 0.09147,-0.26096 0.317917,-0.47444 0.503244,-0.47444 0.372234,0 3.355904,-2.55385 3.175031,-2.71764 -0.06225,-0.0564 -0.747373,0.095 -1.522465,0.33654 -2.431846,0.75766 -2.647529,0.28852 -0.644887,-1.40272 0.757298,-0.63956 1.310258,-1.22423 1.2288,-1.29933 -0.08145,-0.075 -0.753554,0.0686 -1.493543,0.31936 -1.265998,0.42895 -1.830554,0.42831 -1.830554,-0.002 0,-0.10271 0.67499,-0.80427 1.499972,-1.55937 0.824985,-0.75509 1.950148,-1.83641 2.500362,-2.40292 1.179118,-1.21407 1.510778,-1.26293 2.308306,-0.3401 l 0.596258,0.68993 0.883706,-0.61038 c 0.802303,-0.55417 2.747736,-2.96381 2.747736,-3.40341 0,-0.0996 0.350214,-0.5994 0.778253,-1.11036 0.428037,-0.51094 0.952049,-1.16914 1.164468,-1.46263 0.334805,-0.46258 0.438406,-0.49439 0.778254,-0.23896 0.215629,0.16212 0.392035,0.57829 0.392035,0.92498 0,0.98501 1.565939,5.11245 2.307102,6.08097 l 0.667811,0.87263 1.086763,-1.11221 c 0.597718,-0.61171 1.254199,-1.11028 1.458846,-1.10792 0.204655,0.002 0.743437,0.35795 1.19731,0.79021 0.453876,0.43223 1.25626,1.07217 1.783078,1.42206 1.466116,0.97374 2.993276,2.34926 2.993276,2.69605 0,0.27328 -0.26509,0.411 -1.63074,0.84709 -0.21277,0.0679 0.19498,0.77019 1.26752,2.18277 1.261345,1.66127 1.524755,2.14419 1.302105,2.38715 -0.15352,0.1675 -0.489655,0.30457 -0.746955,0.30457 -0.44392,0 -0.43937,0.0325 0.0892,0.63854 0.30635,0.35122 0.699605,0.64396 0.873895,0.65055 0.17427,0.008 0.28014,0.18287 0.23522,0.3915 -0.0687,0.31956 -0.34559,0.37755 -1.753665,0.36725 -0.9196,-0.008 -2.02222,-0.0922 -2.450253,-0.18978 -0.690158,-0.15752 -0.778254,-0.12678 -0.778254,0.27046 0,0.6485 0.287601,0.73438 2.573127,0.76834 1.34163,0.0205 2.088335,0.11961 2.150295,0.28693 0.20536,0.55463 -1.032815,0.72518 -6.265504,0.8631 l -5.402324,0.1424 v -0.44119 c 0,-0.5054 0.77364,-0.71225 2.664018,-0.71225 1.001533,0 1.167378,-0.0607 1.167378,-0.42687 0,-0.25049 -0.123681,-0.38541 -0.299326,-0.32648 -0.570029,0.19132 -3.413632,0.47992 -3.711667,0.37681 -0.164635,-0.0569 -0.299327,-0.28827 -0.299327,-0.51404 0,-0.36638 -0.186639,-0.40892 -1.7361,-0.39583 -1.426809,0.0128 -1.640113,0.0566 -1.197313,0.24997 0.296335,0.12934 0.53879,0.40418 0.53879,0.61057 0,0.61571 -0.954023,0.66135 -2.442616,0.11679 -1.472942,-0.53875 -1.563114,-0.48363 -1.101211,0.67311 l 0.287567,0.72016 h 1.62813 c 1.437817,0 1.62813,0.0479 1.62813,0.41048 0,0.22565 -0.170461,0.46973 -0.378776,0.54213 -0.733841,0.2551 -9.878909,0.14753 -10.060282,-0.11807 z m 5.889277,-1.0241 c 0,-0.10424 -0.163192,-0.60844 -0.362658,-1.1204 -0.448146,-1.15021 -0.281868,-1.72589 0.498524,-1.72589 0.667466,0 0.749218,-0.25536 0.211217,-0.65964 -0.206607,-0.15521 -0.339379,-0.52774 -0.299327,-0.83975 0.07588,-0.59107 0.546967,-0.69416 1.506938,-0.32975 0.382071,0.14496 0.329343,0.0102 -0.264672,-0.67547 -1.332755,-1.53893 -1.659776,-2.52486 -0.922451,-2.78109 0.330449,-0.11474 0.330449,-0.19285 0,-0.77141 -0.611254,-1.0704 -0.498246,-1.38622 0.439053,-1.22699 l 0.806621,0.13702 -1.239373,-1.14294 c -0.681652,-0.62862 -1.46421,-1.43217 -1.739016,-1.7857 l -0.499646,-0.64278 -1.079487,1.07647 c -0.593718,0.59205 -1.050131,1.10452 -1.014246,1.13879 0.03589,0.0343 0.360368,-0.0594 0.721074,-0.20822 0.56851,-0.23461 0.698037,-0.21848 0.972783,0.12191 0.367141,0.45469 0.1051,1.20625 -0.714441,2.04904 l -0.49309,0.5071 0.877365,-0.1483 c 0.750553,-0.12678 0.918157,-0.0791 1.159592,0.32932 0.245185,0.41487 0.165314,0.63126 -0.60859,1.64883 -0.489948,0.64419 -1.281158,1.48248 -1.758245,1.86282 -0.499061,0.39786 -0.66405,0.61945 -0.388509,0.52184 1.136292,-0.40259 2.035427,-0.4196 2.035427,-0.0384 0,0.57258 -0.457516,1.25906 -1.28133,1.92259 l -0.754097,0.60739 1.276129,-0.56551 c 0.701869,-0.31104 1.389909,-0.5312 1.528973,-0.48922 0.139067,0.042 0.289696,0.7363 0.334737,1.54295 0.04503,0.80663 0.144611,1.55849 0.221257,1.6708 0.175609,0.25733 0.829491,0.26885 0.829491,0.0154 z m 13.178846,-1.3141 c -0.338119,-0.57213 -0.311966,-1.43315 0.05145,-1.6936 0.33082,-0.23717 1.466448,-0.21719 2.933408,0.0512 l 0.95785,0.17545 -0.77825,-0.72429 c -0.44704,-0.41602 -0.77825,-0.94954 -0.77825,-1.25361 0,-0.48383 0.072,-0.51874 0.83812,-0.40615 0.46096,0.0679 0.83811,0.0932 0.83811,0.0566 0,-0.0366 -0.70042,-1.01531 -1.5565,-2.17482 -1.899251,-2.57243 -1.940468,-2.79753 -0.475828,-2.59866 1.338388,0.18185 1.285888,-0.14061 -0.178437,-1.09599 -0.548474,-0.3578 -1.457934,-1.02653 -2.021022,-1.48609 l -1.023797,-0.83557 -0.664805,0.63188 c -0.365645,0.34756 -1.09584,1.04866 -1.622655,1.55803 l -0.957849,0.92616 0.838116,-0.0397 c 0.460967,-0.0231 0.972818,-0.0297 1.137447,-0.0179 0.428034,0.0315 0.369887,0.78322 -0.08714,1.12671 -0.212546,0.15981 -0.701493,0.78157 -1.086523,1.38187 -0.38503,0.60027 -0.876384,1.31856 -1.091897,1.59619 l -0.391843,0.50482 0.852289,-0.14471 c 0.483797,-0.0822 0.915137,-0.0528 0.997656,0.0681 0.127952,0.18748 -0.672011,2.1383 -1.272419,3.10288 -0.198376,0.31871 -0.07998,0.32335 1.345892,0.0528 0.859878,-0.16315 1.664378,-0.35327 1.787779,-0.42232 0.504833,-0.28255 0.920318,0.38574 0.769797,1.23816 -0.134231,0.76017 -0.09831,0.84208 0.369259,0.84208 0.437882,0 0.479633,-0.0648 0.270074,-0.41945 z m -5.516055,-1.64061 c 0,-0.0597 -0.05388,-0.10834 -0.119722,-0.10834 -0.06584,0 -0.119722,0.0487 -0.119722,0.10834 0,0.0597 0.05388,0.10834 0.119722,0.10834 0.06584,0 0.119722,-0.0489 0.119722,-0.10834 z m -2.921266,-0.73494 c 0.07701,-0.2113 0.01103,-0.24485 -0.220551,-0.11218 -0.181717,0.10399 -0.869185,0.25305 -1.527705,0.33116 l -1.197311,0.14215 1.417855,-0.03 c 0.9748,-0.0205 1.452179,-0.12397 1.527703,-0.33114 z m 1.529886,-1.45738 c -0.114913,-1.98252 0.09512,-2.43235 0.943675,-2.0211 0.762115,0.36936 0.738985,0.21028 -0.12849,-0.88302 -1.02281,-1.28924 -1.033772,-1.36482 -0.264219,-1.82141 l 0.596349,-0.35385 -0.640006,-1.03806 c -0.754878,-1.22436 -0.643876,-1.88151 0.290499,-1.71977 0.46125,0.0799 0.540479,0.041 0.34691,-0.17032 -0.137964,-0.1506 -0.657193,-1.37284 -1.153825,-2.71616 l -0.902961,-2.44247 -0.685615,1.0653 c -0.377088,0.58593 -1.050986,1.54879 -1.497548,2.13969 -0.784928,1.03862 -0.7955,1.07988 -0.317818,1.23988 0.602599,0.20182 0.603201,0.2177 0.04593,1.21819 -0.838911,1.50588 -0.842891,1.70832 -0.03855,1.96224 0.59815,0.18876 0.726224,0.34786 0.726224,0.90185 0,0.36992 -0.154963,0.94399 -0.344382,1.27566 -0.310929,0.54449 -0.301861,0.63605 0.09336,0.94247 0.392349,0.30422 0.475603,0.30512 0.803037,0.008 0.240858,-0.21822 0.576169,-0.28289 0.98423,-0.19004 0.672469,0.1529 0.689993,0.23512 0.664052,3.11407 -0.0085,0.94672 0.07817,1.35531 0.287595,1.35531 0.225274,0 0.272902,-0.46422 0.191589,-1.86704 z m 1.866638,0.94545 c 0.002,-0.0894 -0.157961,-0.16264 -0.355528,-0.16264 -0.405507,0 -0.419945,0.0379 -0.206126,0.54257 0.122097,0.28811 0.194021,0.30265 0.355527,0.072 0.11135,-0.15905 0.204118,-0.36244 0.206127,-0.45188 z m -3.442495,-2.27141 c -0.122465,-0.1109 -1.54719,0.82112 -1.566157,1.02451 -0.0057,0.0597 0.338688,0.31395 0.765003,0.56516 l 0.775114,0.45674 0.07404,-0.96796 c 0.04073,-0.53237 0.01923,-1.01767 -0.048,-1.07845 z m -2.859677,-0.20438 c -0.08779,-0.0794 -0.159629,-0.0154 -0.159629,0.14445 0,0.15905 0.07184,0.2241 0.159629,0.14445 0.08779,-0.0794 0.08779,-0.20951 0,-0.28913 z m 0.718387,0.21693 c -0.08782,-0.0794 -0.231496,-0.0794 -0.319284,0 -0.08779,0.0794 -0.01584,0.14445 0.159629,0.14445 0.175609,0 0.247448,-0.0651 0.159629,-0.14445 z m 6.066376,-1.80708 c 0,-0.11936 -0.114121,-0.21694 -0.253584,-0.21694 -0.139464,0 -0.187007,0.0976 -0.105609,0.21694 0.0814,0.11935 0.19552,0.21693 0.253585,0.21693 0.05806,0 0.105608,-0.0976 0.105608,-0.21693 z m -6.46548,-0.54211 c 0,-0.0597 -0.05388,-0.10834 -0.119721,-0.10834 -0.06584,0 -0.119722,0.0489 -0.119722,0.10834 0,0.0597 0.05388,0.10834 0.119722,0.10834 0.06584,0 0.119721,-0.0487 0.119721,-0.10834 z m 5.268167,-0.43371 c 0,-0.0597 -0.05388,-0.10834 -0.119721,-0.10834 -0.06584,0 -0.119722,0.0489 -0.119722,0.10834 0,0.0597 0.05388,0.10833 0.119722,0.10833 0.06584,0 0.119721,-0.0487 0.119721,-0.10833 z m -5.889727,-3.06003 c 0.10838,-0.25587 0.04579,-0.31388 -0.233419,-0.21694 -0.209831,0.073 -0.432921,0.13267 -0.495774,0.13267 -0.06284,0 -0.04769,0.0976 0.03371,0.21694 0.219645,0.32186 0.527813,0.26311 0.69548,-0.13267 z m 6.847577,0.26757 c 0,-0.0451 -0.18859,-0.21591 -0.41906,-0.3795 -0.3798,-0.26974 -0.388268,-0.26206 -0.09042,0.082 0.312826,0.36123 0.509469,0.4761 0.509469,0.29764 z"
       id="path32" /></g></svg>
