<?xml version="1.0" encoding="UTF-8" standalone="no"?>
<!-- Created with Inkscape (http://www.inkscape.org/) -->

<svg
   width="19.16699mm"
   height="19.686308mm"
   viewBox="0 0 19.16699 19.686308"
   version="1.1"
   id="svg1"
   xml:space="preserve"
   xmlns="http://www.w3.org/2000/svg"
   xmlns:svg="http://www.w3.org/2000/svg"><defs
     id="defs1" /><g
     id="layer1"
     transform="translate(-37.067047,-201.82422)"><path
       style="fill:#000000;stroke-width:2.53769"
       d="m 46.000948,221.26448 c -0.30557,-0.4432 0.64072,-0.78285 2.18118,-0.78285 h 1.50582 l -0.091,-0.66115 c -0.16567,-1.20354 -0.17497,-1.20787 -1.47989,-0.69054 -0.66534,0.26375 -1.70317,0.54591 -2.30629,0.627 l -1.09658,0.14752 0.11197,-0.52505 0.11199,-0.52507 h -3.37246 c -3.19512,0 -3.37247,-0.0216 -3.37247,-0.39764 0,-0.44861 0.58816,-0.58772 2.8366,-0.67085 l 1.36159,-0.0505 0.0667,-1.47484 c 0.0366,-0.81117 0.012,-1.47486 -0.0548,-1.47486 -0.0668,0 -0.60739,0.33445 -1.20133,0.74324 -2.81562,1.93789 -5.5422,2.15389 -3.31929,0.26295 0.76189,-0.64811 2.28727,-3.16707 2.04783,-3.38173 -0.0576,-0.0517 -0.51913,0.0954 -1.02549,0.32708 -1.88581,0.86244 -2.3232,0.30636 -0.99088,-1.2598 0.49848,-0.586 1.06898,-1.35392 1.26775,-1.70651 l 0.36141,-0.64112 -0.89784,0.10793 c -1.47226,0.17707 -1.42331,-0.34739 0.16108,-1.72561 0.73895,-0.6428 1.59845,-1.62644 1.91002,-2.18588 0.48628,-0.87311 0.9703,-1.54648 2.38778,-3.3218 0.37343,-0.46771 0.98901,0.0363 0.98901,0.80983 0,1.36081 2.14078,6.26749 2.73733,6.27401 0.0702,7.7e-4 0.63186,-0.54793 1.24811,-1.2193 1.47602,-1.60806 1.83225,-1.69924 2.6935,-0.68949 0.37122,0.43521 1.47116,1.48701 2.4443,2.33733 2.05929,1.79934 2.29434,2.41948 0.91836,2.42301 l -0.85098,0.002 0.97448,0.83537 c 1.15928,0.99377 1.12552,1.29622 -0.14468,1.29622 -0.51912,0 -0.94374,0.0514 -0.94356,0.1146 4.7e-4,0.18789 1.2556,1.20769 1.48773,1.20877 0.11799,5.9e-4 0.52088,0.22898 0.89531,0.50772 l 0.68078,0.50668 -0.44049,0.306 c -0.24227,0.16843 -0.90605,0.30815 -1.47504,0.31074 l -1.03455,0.004 0.86323,0.69704 c 0.47477,0.38338 1.06195,0.75358 1.30483,0.8227 0.60192,0.17131 0.56282,0.83606 -0.0577,0.98155 -0.28289,0.0664 -1.0698,-0.0896 -1.81542,-0.35949 -1.39586,-0.50543 -1.48131,-0.45372 -1.04357,0.63142 l 0.27251,0.67559 h 1.54291 c 1.36256,0 1.54291,0.045 1.54291,0.38511 0,0.21167 -0.16153,0.44065 -0.35895,0.50854 -0.69543,0.23932 -9.36185,0.13841 -9.53373,-0.11075 z m 5.58104,-0.96069 c 0,-0.0978 -0.15465,-0.5708 -0.34368,-1.05106 -0.42469,-1.07904 -0.26712,-1.61907 0.47244,-1.61907 0.63253,0 0.71,-0.23954 0.20015,-0.61883 -0.19579,-0.14561 -0.32161,-0.49505 -0.28365,-0.78775 0.0719,-0.55452 0.51833,-0.65122 1.42807,-0.30937 0.36206,0.13599 0.3121,0.01 -0.25083,-0.63363 -1.26299,-1.44371 -1.5729,-2.36862 -0.87417,-2.60898 0.31316,-0.10759 0.31316,-0.18092 0,-0.72364 -0.57926,-1.00419 -0.47216,-1.30043 0.41607,-1.15106 l 0.76441,0.12854 -1.17451,-1.0722 c -0.64598,-0.58969 -1.38758,-1.34353 -1.648,-1.67517 l -0.47349,-0.60298 -1.02299,1.00985 c -0.56264,0.5554 -0.99516,1.03615 -0.96116,1.06831 0.034,0.0322 0.3415,-0.0558 0.68334,-0.19534 0.53875,-0.22008 0.6615,-0.20471 0.92186,0.11437 0.34793,0.42652 0.0996,1.13159 -0.67705,1.92221 l -0.46728,0.47569 0.83144,-0.13912 c 0.7091,-0.11869 0.87035,-0.074 1.09582,0.30375 0.30382,0.50891 -0.26471,1.42237 -1.83689,2.95136 l -0.8842,0.8599 0.90036,-0.21552 c 0.49519,-0.11845 0.96689,-0.1557 1.04822,-0.0829 0.26006,0.23307 -0.13407,1.18758 -0.6998,1.69474 -0.62928,0.5641 -0.39656,0.63222 0.59289,0.17348 1.00598,-0.46634 1.16116,-0.31663 1.24688,1.20307 0.0426,0.75672 0.13704,1.46205 0.20967,1.56741 0.16642,0.2414 0.78608,0.25221 0.78608,0.0144 z m -7.67257,-4.21821 c -0.1089,-1.85982 0.0901,-2.2818 0.89429,-1.896 0.72411,0.3474 0.69968,0.19654 -0.13747,-0.84795 -1.01671,-1.26862 -0.93562,-1.70841 0.28047,-1.52122 l 0.84858,0.13071 -0.4681,-0.36269 c -0.25747,-0.19942 -0.70845,-0.78334 -1.00219,-1.2975 -0.63717,-1.11527 -0.50871,-1.70292 0.34045,-1.5574 0.4371,0.075 0.51219,0.0385 0.32875,-0.15977 -0.13074,-0.14128 -0.6228,-1.28786 -1.09343,-2.54807 l -0.85571,-2.29128 -0.64972,0.99938 c -0.35735,0.54963 -0.99597,1.4529 -1.41917,2.00722 -0.74384,0.97437 -0.75386,1.01305 -0.30118,1.16317 0.59181,0.19629 0.60849,0.0994 -0.31592,1.83411 -0.4313,0.80934 -0.7464,1.50542 -0.70022,1.54683 0.0461,0.0413 0.30492,-0.0308 0.57498,-0.16027 1.27641,-0.61234 1.46036,0.35607 0.46567,2.45146 -0.36888,0.77709 -0.59149,1.41286 -0.4947,1.41286 0.0968,0 0.60563,-0.32969 1.13077,-0.73265 0.73906,-0.56708 1.08161,-0.70411 1.51589,-0.60639 0.60789,0.13671 0.62824,0.23498 0.60384,2.91561 -0.007,0.88813 0.074,1.2714 0.27255,1.2714 0.21348,0 0.25862,-0.43546 0.18156,-1.75148 z m 3.16558,1.32972 0.53573,-0.42179 -0.70454,0.10572 c -1.037,0.15546 -1.74661,-0.35069 -1.5599,-1.11273 0.0899,-0.36711 0.052,-0.59049 -0.10025,-0.59049 -0.31265,0 -0.32014,1.52823 -0.01,2.04767 0.30745,0.51497 1.16576,0.50177 1.83904,-0.0283 z m 1.67992,-4.41801 c -0.0616,-0.0552 -0.24216,-0.008 -0.40119,0.1055 -0.15901,0.11317 -0.67209,0.26774 -1.14012,0.34335 -0.97839,0.1581 -0.97976,0.1605 -0.46318,0.86732 l 0.38781,0.53059 0.86437,-0.87314 c 0.47539,-0.48023 0.81393,-0.91833 0.75231,-0.97357 z m -1.14293,-1.67114 c 0.53926,-0.53416 0.35676,-0.66429 -0.53905,-0.38436 -0.58313,0.18237 -0.67363,0.28184 -0.46286,0.50949 0.35019,0.37827 0.51442,0.35776 1.00191,-0.12517 z m -1.70322,-1.70297 c 0,-0.0423 -0.17872,-0.20255 -0.39713,-0.356 -0.35992,-0.25304 -0.36795,-0.24585 -0.0857,0.0768 0.29645,0.33885 0.4828,0.44661 0.4828,0.27919 z"
       id="path34" /></g></svg>
