<?xml version="1.0" encoding="UTF-8" standalone="no"?>
<!-- Created with Inkscape (http://www.inkscape.org/) -->

<svg
   width="19.388929mm"
   height="18.388277mm"
   viewBox="0 0 19.388929 18.388277"
   version="1.1"
   id="svg1"
   xml:space="preserve"
   xmlns="http://www.w3.org/2000/svg"
   xmlns:svg="http://www.w3.org/2000/svg"><defs
     id="defs1" /><g
     id="layer1"
     transform="translate(-89.276229,-200.08348)"><path
       style="fill:#000000;stroke-width:2.46785"
       d="m 90.506911,218.23383 c -0.299803,-0.42723 0.628631,-0.7546 2.140012,-0.7546 h 1.477412 l -0.0893,-0.63729 c -0.162541,-1.16012 -0.171666,-1.16431 -1.451968,-0.66563 -0.652785,0.25424 -1.657798,0.52447 -2.233363,0.60048 -1.524365,0.20126 -1.422901,-0.34302 0.289397,-1.55256 0.734734,-0.51901 1.335881,-0.98501 1.335881,-1.03557 0,-0.0505 -0.294152,-0.0401 -0.653672,0.0232 -0.880442,0.15517 -1.693825,-0.4018 -1.474751,-1.0097 0.08504,-0.23595 0.295592,-0.42901 0.467902,-0.42901 0.346096,0 3.120248,-2.30934 2.952077,-2.45745 -0.05788,-0.051 -0.694894,0.0859 -1.415557,0.30432 -2.261074,0.68514 -2.461611,0.2609 -0.5996,-1.26841 0.70412,-0.5783 1.21825,-1.10702 1.142512,-1.1749 -0.07573,-0.0679 -0.700638,0.0621 -1.388663,0.28878 -1.177097,0.38786 -1.702009,0.38728 -1.702009,-0.002 0,-0.0926 0.627588,-0.72727 1.394641,-1.41007 0.767053,-0.68277 1.813205,-1.66056 2.324781,-2.17285 0.511576,-0.51227 1.077861,-0.9314 1.25841,-0.9314 0.180554,0 0.654402,0.37501 1.053005,0.83336 0.956942,1.1004 2.446583,2.48468 2.919208,2.71276 0.651642,0.31449 1.839944,-1.3199 2.737524,-3.76519 0.42935,-1.16968 0.78065,-2.38226 0.78065,-2.6946 0,-0.74382 0.60442,-1.22876 0.97034,-0.77849 1.39074,1.71126 1.86562,2.36031 2.34273,3.20194 0.30568,0.53923 1.14897,1.48737 1.87397,2.10699 1.5545,1.32849 1.60253,1.83395 0.15805,1.66331 l -0.88091,-0.10398 0.35459,0.61795 c 0.19502,0.33989 0.75475,1.0801 1.24383,1.64495 1.30718,1.50962 0.87805,2.04566 -0.97218,1.21434 -0.49681,-0.22327 -0.94958,-0.3651 -1.00614,-0.31528 -0.23491,0.20682 1.26169,2.63499 2.00919,3.2597 2.18096,1.82268 -0.49416,1.6145 -3.25666,-0.25346 -0.58272,-0.39404 -1.11312,-0.71643 -1.17865,-0.71643 -0.0655,0 -0.0897,0.63975 -0.0537,1.42162 l 0.0654,1.42165 1.33588,0.0484 c 2.19151,0.0797 2.78309,0.21539 2.78309,0.63829 0,0.35367 -0.23476,0.37817 -4.14446,0.43232 -5.624808,0.0778 -6.302267,0.0259 -6.543988,-0.50169 -0.297344,-0.64908 -0.256342,0.0537 0.04613,0.79026 l 0.267373,0.65121 h 1.5138 c 1.336855,0 1.513795,0.0433 1.513795,0.37118 0,0.20427 -0.15849,0.42475 -0.352177,0.49023 -0.682306,0.23067 -9.185189,0.1334 -9.353825,-0.10677 z m 5.475718,-0.92603 c 0,-0.0943 -0.151733,-0.55021 -0.337192,-1.01312 -0.416673,-1.04011 -0.262074,-1.56068 0.463519,-1.56068 0.620596,0 0.696607,-0.2309 0.196385,-0.59648 -0.192098,-0.14035 -0.315546,-0.47718 -0.27831,-0.75931 0.07055,-0.53451 0.50856,-0.62773 1.40112,-0.29821 0.355239,0.13108 0.306217,0.009 -0.246086,-0.61077 -1.239165,-1.39161 -1.543223,-2.28314 -0.857674,-2.51484 0.307244,-0.10375 0.307244,-0.17416 0,-0.69755 -0.568331,-0.96792 -0.463259,-1.2535 0.408221,-1.10949 l 0.749976,0.1239 -1.152338,-1.0335 c -0.633789,-0.56842 -1.361391,-1.29505 -1.616899,-1.61473 l -0.464561,-0.58122 -1.003685,0.97339 c -0.552026,0.53538 -0.976386,0.99876 -0.943021,1.02977 0.03337,0.031 0.335061,-0.0537 0.670438,-0.18829 0.528586,-0.21214 0.649017,-0.19732 0.904473,0.11025 0.341359,0.41113 0.09772,1.09075 -0.664272,1.85283 l -0.458464,0.45854 0.815754,-0.1341 c 0.697848,-0.11464 0.853683,-0.0716 1.078163,0.29779 0.227968,0.37517 0.153706,0.57082 -0.565853,1.49096 -0.455543,0.58254 -1.191192,1.34054 -1.634778,1.68446 -0.464016,0.35977 -0.617418,0.56017 -0.361227,0.47189 1.056498,-0.36405 1.892496,-0.37943 1.892496,-0.0347 0,0.51773 -0.425389,1.13849 -1.191353,1.73851 l -0.701143,0.54924 1.186517,-0.51139 c 0.652583,-0.28126 1.292307,-0.48032 1.421606,-0.44236 0.129301,0.038 0.269353,0.6658 0.311231,1.3952 0.04186,0.72942 0.134456,1.4093 0.20572,1.51085 0.163277,0.23267 0.771239,0.24309 0.771239,0.0139 z m 4.667751,-2.16873 c 0.29494,-0.48534 0.30084,-1.97375 0.008,-1.97375 -0.12247,0 -0.22266,0.12923 -0.22266,0.28723 0,0.4165 -0.720903,0.69255 -1.822196,0.69776 l -0.960888,0.005 0.859511,0.68176 c 0.957431,0.75943 1.789213,0.87708 2.138393,0.30246 z m 1.74704,-0.84626 c -0.0239,-2.58385 -0.004,-2.67855 0.59245,-2.8104 0.42609,-0.0943 0.76217,0.038 1.48728,0.58453 0.51524,0.38842 1.01449,0.70621 1.10945,0.70621 0.095,0 -0.12347,-0.61283 -0.48538,-1.36186 -0.97592,-2.0198 -0.79543,-2.95328 0.45689,-2.363 0.26497,0.12483 0.51883,0.19431 0.56413,0.15448 0.0453,-0.0398 -0.26385,-0.71085 -0.68701,-1.49099 -0.90697,-1.67214 -0.8906,-1.57876 -0.30996,-1.76793 0.44414,-0.14475 0.43431,-0.18203 -0.2955,-1.12119 -0.4152,-0.53432 -1.04178,-1.40499 -1.39238,-1.93479 l -0.63747,-0.96331 -0.83956,2.20859 c -0.46175,1.21473 -0.94451,2.31999 -1.0728,2.45612 -0.17942,0.19037 -0.11036,0.22674 0.29922,0.15795 1.11501,-0.18783 1.02607,0.78056 -0.20183,2.19729 l -0.78659,0.90756 0.78419,-0.12946 c 1.14275,-0.18875 1.21161,0.25538 0.22678,1.46268 -0.82134,1.00685 -0.84532,1.15223 -0.13488,0.81736 0.78897,-0.37188 0.98425,0.035 0.87741,1.82759 -0.0756,1.26853 -0.0313,1.68828 0.17814,1.68828 0.19473,0 0.27533,-0.36947 0.2674,-1.22555 z m -2.782341,-2.70037 c 0.597691,-0.74403 0.528471,-1.12121 -0.0861,-0.46905 -0.20054,0.21284 -0.560885,0.28859 -1.140494,0.23991 -0.985291,-0.0827 -1.01077,-0.0431 -0.363236,0.56385 0.656745,0.61568 0.860883,0.5727 1.589818,-0.33471 z m 0.180817,-2.79004 c 0.157992,-0.25814 0.125331,-0.34316 -0.131773,-0.34316 -0.193361,0 -0.341804,0.17023 -0.341804,0.39217 0,0.32065 -0.14842,0.39219 -0.813769,0.39219 h -0.813762 l 0.406113,0.39522 0.40611,0.3952 0.539428,-0.44423 c 0.296683,-0.24434 0.633943,-0.59866 0.749463,-0.78739 z m 0.668064,-1.47065 c 0.27694,-0.31101 0.26907,-0.31794 -0.0841,-0.0741 -0.2143,0.14799 -0.389635,0.30244 -0.389635,0.34316 0,0.16142 0.182845,0.0574 0.473695,-0.26912 z"
       id="path33" /></g></svg>
