<?xml version="1.0" encoding="UTF-8" standalone="no"?>
<!-- Created with Inkscape (http://www.inkscape.org/) -->

<svg
   width="20.331951mm"
   height="18.84656mm"
   viewBox="0 0 20.331951 18.84656"
   version="1.1"
   id="svg1"
   xml:space="preserve"
   xmlns="http://www.w3.org/2000/svg"
   xmlns:svg="http://www.w3.org/2000/svg"><defs
     id="defs1" /><g
     id="layer1"
     transform="translate(-108.81888,-203.52927)"><path
       style="fill:#000000;stroke-width:2.54349"
       d="m 109.46032,222.14235 c 0.0553,-0.17018 0.55744,-0.30197 1.30194,-0.34195 l 1.21196,-0.0651 v -0.98697 -0.98698 l -0.69455,0.46687 c -1.37699,0.92557 -2.06818,1.19732 -2.34089,0.92039 -0.19487,-0.1976 -0.12621,-0.39436 0.2983,-0.85495 0.61151,-0.66361 1.3307,-1.99007 1.16837,-2.15492 -0.0573,-0.0582 -0.29859,-3.6e-4 -0.53601,0.12866 -1.099,0.59722 -1.3974,0.13046 -0.59994,-0.9384 0.27553,-0.36933 0.60794,-0.87685 0.73869,-1.12784 0.21355,-0.41015 0.18705,-0.44652 -0.26218,-0.35933 -0.85751,0.16634 -0.88664,-0.37957 -0.0593,-1.11171 0.42048,-0.37211 0.94159,-1.01837 1.15801,-1.43608 1.17036,-2.25892 2.19812,-3.24087 2.19812,-2.10015 0,0.67058 0.69089,2.70806 0.80274,2.36737 0.0482,-0.14686 0.22162,-0.26722 0.38504,-0.26722 0.32988,0 2.9906,-2.55664 2.83022,-2.71951 -0.0555,-0.0564 -0.66701,0.0951 -1.35876,0.3368 -2.17036,0.75817 -2.36285,0.28869 -0.57554,-1.40371 0.67585,-0.63998 1.16937,-1.22508 1.09665,-1.3002 -0.0727,-0.0751 -0.67251,0.0687 -1.33293,0.31958 -1.12987,0.42924 -1.63372,0.42858 -1.63372,-0.002 0,-0.10252 0.60242,-0.80482 1.33869,-1.56041 0.73628,-0.75561 1.74044,-1.83767 2.23149,-2.40458 0.49105,-0.5669 1.03708,-1.03074 1.21339,-1.03074 0.17644,0 0.76059,0.58064 1.29839,1.29027 0.53779,0.70966 1.55322,1.79846 2.25647,2.41952 1.58253,1.39761 1.74895,2.14776 0.47722,2.15148 l -0.80142,0.002 0.91774,0.89109 c 1.09175,1.06007 1.05997,1.3827 -0.13631,1.3827 -0.4889,0 -0.88878,0.0548 -0.88863,0.12225 4.5e-4,0.20555 1.13592,1.16415 1.85397,1.56536 l 0.67827,0.37896 0.45827,-0.65348 c 0.25216,-0.35943 0.62003,-0.65015 0.81772,-0.64605 0.19765,0.005 1.07265,0.67073 1.94435,1.48142 1.55387,1.44513 1.78723,1.9831 0.86018,1.9831 -0.55898,0 -0.54514,0.0459 0.47091,1.56512 0.80978,1.2108 0.85448,1.34754 0.52132,1.59489 -0.33872,0.25142 -0.33223,0.30094 0.0921,0.70233 0.63563,0.6013 0.24181,0.77881 -1.32809,0.59848 -1.01204,-0.11636 -1.26385,-0.0871 -1.18906,0.13711 0.0636,0.1912 0.50304,0.28457 1.3372,0.28457 1.21915,0 1.84645,0.37796 1.0283,0.6196 -0.90769,0.26806 -6.00689,0.38488 -6.15534,0.14096 -0.22086,-0.36266 -0.0252,-0.47343 1.05733,-0.59725 1.40311,-0.16069 1.19918,-0.43514 -0.23349,-0.3145 l -1.20587,0.1015 0.14135,-0.57196 0.14136,-0.57192 h -3.77022 c -3.12979,0 -3.72979,0.0495 -3.5322,0.29123 0.45882,0.56131 -0.68574,0.8466 -1.22578,0.30553 -0.21809,-0.21837 -0.25757,-0.10226 -0.20295,0.59673 l 0.0677,0.868 1.17543,0.10842 c 0.64646,0.0597 1.1754,0.20606 1.1754,0.32549 0,0.13302 -1.31032,0.24015 -3.38561,0.27686 -2.66984,0.0471 -3.36661,0.001 -3.29568,-0.21709 z m 3.58248,-0.69805 c 0,-0.17197 -0.0962,-0.37304 -0.2138,-0.4468 -0.11762,-0.0738 -0.21379,0.0669 -0.21379,0.31268 0,0.24579 0.0962,0.4468 0.21379,0.4468 0.11763,0 0.2138,-0.1407 0.2138,-0.31268 z m 12.60905,-0.7723 c 0,-0.11943 -0.0962,-0.21708 -0.2138,-0.21708 -0.11763,0 -0.2138,0.0976 -0.2138,0.21708 0,0.11944 0.0962,0.21709 0.2138,0.21709 0.11763,0 0.2138,-0.0977 0.2138,-0.21709 z m -12.25117,-1.42037 0.54345,0.1384 -0.53697,-0.69664 c -0.44632,-0.57905 -0.49857,-0.78224 -0.30951,-1.20354 0.16407,-0.36551 0.15826,-0.66104 -0.0202,-1.05961 -0.33428,-0.7449 -0.31242,-0.96626 0.0954,-0.96626 0.18881,0 0.29906,-0.122 0.24484,-0.27127 -0.0543,-0.14916 -0.26869,-0.80831 -0.47656,-1.46473 -0.39342,-1.24222 -0.74874,-1.84734 -0.75821,-1.29112 -0.003,0.173 -0.33041,0.75005 -0.72774,1.28225 -0.59505,0.79703 -0.66949,1.00742 -0.42227,1.1935 0.25217,0.18991 0.22087,0.38421 -0.19714,1.21935 l -0.49716,0.99349 0.49472,-0.0961 c 0.70204,-0.13635 0.80344,0.35369 0.30643,1.48086 -0.50274,1.14016 -0.41879,1.32872 0.2904,0.65222 0.73734,-0.70332 1.17715,-0.45528 1.2214,0.68888 l 0.0358,0.92905 0.0851,-0.83368 c 0.0785,-0.77089 0.12595,-0.82325 0.62846,-0.69518 z m 11.82375,0.41069 c 0.52894,-0.052 1.28695,-0.0928 1.68445,-0.0905 0.68302,0.005 0.70359,-0.0179 0.37401,-0.38714 -0.50898,-0.57105 -0.42762,-0.89962 0.22288,-0.89962 h 0.57152 l -0.42292,-0.48825 c -0.23248,-0.26852 -0.68483,-0.90527 -1.00492,-1.41496 -0.5822,-0.92708 -0.57665,-0.95343 0.24838,-1.17756 0.1671,-0.0454 -0.16332,-0.46031 -0.80135,-1.00653 -1.2014,-1.02862 -1.21092,-1.02793 -2.13209,0.15301 l -0.65023,0.83361 0.50272,-0.0977 c 0.7126,-0.1384 0.8695,0.28444 0.35303,0.95114 -0.24283,0.31332 -0.44133,0.71174 -0.44133,0.88535 0,0.17352 -0.21607,0.4933 -0.47997,0.71036 l -0.47999,0.39464 0.61026,-0.11841 0.6103,-0.11841 -0.15398,0.73509 c -0.0848,0.40431 -0.31168,0.92059 -0.5043,1.14733 -0.33584,0.39532 -0.32388,0.40549 0.29094,0.24784 0.35262,-0.0905 1.0739,-0.20708 1.60284,-0.25919 z m -10.75689,-1.08798 c -0.0782,-0.0795 -0.14236,-0.0154 -0.14236,0.14481 0,0.15916 0.0641,0.22426 0.14236,0.14455 0.0783,-0.0794 0.0783,-0.20965 0,-0.28933 z m 3.28192,-0.99456 c -0.14539,-1.02667 -0.17189,-1.03187 -1.74973,-0.34336 -0.94643,0.41302 -0.97877,0.45501 -0.64113,0.8322 0.24989,0.27908 0.67768,0.40261 1.43854,0.4153 l 1.08292,0.0179 z m 1.91842,0.73252 c 0,-0.10431 -0.14565,-0.60888 -0.32365,-1.12117 -0.39995,-1.15102 -0.25166,-1.72708 0.44491,-1.72708 0.5957,0 0.66865,-0.25552 0.18856,-0.66011 -0.18452,-0.15532 -0.30288,-0.52808 -0.26714,-0.8403 0.0677,-0.59151 0.48815,-0.69467 1.3449,-0.33001 0.34099,0.14507 0.29392,0.0103 -0.23626,-0.6759 -1.18946,-1.54001 -1.48131,-2.52663 -0.82328,-2.78303 0.29492,-0.11482 0.29492,-0.19299 0,-0.77191 -0.54552,-1.07117 -0.44466,-1.38718 0.39185,-1.22784 l 0.71989,0.13712 -1.10611,-1.14373 c -0.60835,-0.62902 -1.30676,-1.43316 -1.55201,-1.78692 l -0.44592,-0.6432 -0.96342,1.07721 c -0.52988,0.59246 -0.9372,1.10525 -0.90517,1.13957 0.0321,0.0343 0.3216,-0.0595 0.64354,-0.20837 0.50735,-0.23476 0.62296,-0.21836 0.86816,0.122 0.32766,0.45498 0.0939,1.20708 -0.63761,2.05045 l -0.44006,0.50742 0.78302,-0.1484 c 0.66984,-0.12686 0.81942,-0.0792 1.03489,0.32955 0.21884,0.41515 0.14741,0.63169 -0.54315,1.64993 -0.43727,0.64467 -1.14338,1.4835 -1.56918,1.8641 -0.44539,0.39813 -0.59265,0.61991 -0.34672,0.52221 1.01411,-0.40288 1.81654,-0.41987 1.81654,-0.0384 0,0.57295 -0.40831,1.25993 -1.14354,1.92392 l -0.673,0.60781 1.13891,-0.56593 c 0.62639,-0.31125 1.24045,-0.53154 1.36456,-0.48953 0.12419,0.042 0.25855,0.7368 0.29874,1.54398 0.0401,0.80721 0.12898,1.55959 0.19739,1.67198 0.15675,0.2575 0.74028,0.26903 0.74028,0.0154 z m 2.30964,-0.34761 c 0.22616,-0.50421 0.18552,-0.56247 -0.66025,-0.94466 -0.49577,-0.224 -0.94098,-0.3733 -0.98937,-0.33172 -0.0485,0.0415 0.0391,0.46664 0.19436,0.94463 0.33857,1.04164 1.06252,1.20669 1.45513,0.33175 z m 1.21662,-1.84964 c 0.0737,-0.12097 -0.0861,-0.21555 -0.36138,-0.21375 -0.39701,0.003 -0.4308,0.0443 -0.17291,0.21375 0.39766,0.26093 0.37544,0.26093 0.53427,0 z m -7.77075,-0.85496 0.50453,-0.42096 -0.89186,0.0325 c -0.78666,0.0287 -0.86768,0.0782 -0.68703,0.42095 0.26054,0.49432 0.44988,0.48863 1.07436,-0.0323 z m 7.01948,-0.28428 c 0.002,-0.0894 -0.25191,-0.16275 -0.56412,-0.16275 h -0.56741 l 0.3914,0.43911 c 0.37019,0.41536 0.72893,0.28139 0.74013,-0.27636 z"
       id="path35" /></g></svg>
