<?xml version="1.0" encoding="UTF-8" standalone="no"?>
<!-- Created with Inkscape (http://www.inkscape.org/) -->

<svg
   width="13.880742mm"
   height="22.158926mm"
   viewBox="0 0 13.880742 22.158926"
   version="1.1"
   id="svg1"
   xml:space="preserve"
   xmlns="http://www.w3.org/2000/svg"
   xmlns:svg="http://www.w3.org/2000/svg"><defs
     id="defs1" /><g
     id="layer1"
     transform="translate(-42.503491,-163.42692)"><path
       style="fill:#000000"
       d="m 43.81652,185.06392 c 0,-0.58888 0.678608,-0.76889 3.307292,-0.87733 l 1.5875,-0.0655 0.07774,-1.91823 c 0.04275,-1.05503 0.01402,-1.91823 -0.06386,-1.91823 -0.07788,0 -0.70817,0.435 -1.400653,0.96668 -3.282828,2.52046 -6.461826,2.80139 -3.870066,0.34199 0.888297,-0.84293 2.666801,-4.11919 2.387631,-4.39836 -0.06722,-0.0672 -0.605266,0.12421 -1.195654,0.4254 -2.198732,1.12171 -2.708687,0.39845 -1.155301,-1.63854 0.581202,-0.76214 1.246352,-1.76093 1.478112,-2.21953 l 0.421381,-0.83382 -1.046828,0.14041 c -1.716543,0.23023 -1.659467,-0.45179 0.187823,-2.24437 0.861557,-0.83603 1.863683,-2.11538 2.226948,-2.84298 0.56697,-1.13562 1.131304,-2.01141 2.783991,-4.32045 0.434843,-0.60754 1.153111,0.0468 1.153111,1.05044 0,1.44632 1.80488,6.43938 2.797709,7.73965 1.09683,1.43648 1.09045,2.07808 -0.02281,2.29465 l -0.790519,0.15379 1.389062,1.37045 c 0.763985,0.75375 1.389063,1.54866 1.389063,1.76648 0,0.47416 -1.347838,0.54291 -2.156722,0.11001 -0.892567,-0.47769 -0.788607,-0.15645 0.467152,1.44352 0.667691,0.85071 1.136906,1.6971 1.056698,1.90612 -0.187079,0.48752 -1.151107,0.47722 -2.109351,-0.0225 -1.003899,-0.52357 -0.961944,-0.55606 -0.961944,0.74481 0,1.7384 0.338525,2.00616 2.645833,2.09276 1.783161,0.0669 1.984375,0.12813 1.984375,0.60364 v 0.52917 l -6.283854,0.0709 -6.283854,0.0709 z m 6.664739,-3.08857 c -0.126962,-2.41894 0.105097,-2.96777 1.042673,-2.466 0.844275,0.45185 0.815772,0.2557 -0.160266,-1.10287 -1.170337,-1.62903 -1.088496,-2.22837 0.269498,-1.97361 l 0.931889,0.17483 -0.934751,-1.2246 c -1.459167,-1.91161 -1.564852,-3.21812 -0.23983,-2.96483 0.486749,0.0931 0.5688,0.0439 0.355581,-0.21302 -0.152449,-0.18369 -0.726139,-1.67503 -1.274868,-3.31408 l -0.997689,-2.9801 -0.757539,1.2998 c -0.416647,0.7149 -1.16124,1.8897 -1.654651,2.61068 -0.86727,1.26726 -0.878951,1.31758 -0.351158,1.51283 0.690008,0.25525 0.70946,0.12927 -0.368341,2.3855 -0.502863,1.05267 -0.870248,1.958 -0.816411,2.01183 0.05384,0.0538 0.355512,-0.04 0.670388,-0.20851 1.488202,-0.79646 1.702683,0.46309 0.542942,3.18844 -0.430078,1.01067 -0.689635,1.83758 -0.576791,1.83758 0.112843,0 0.706129,-0.4288 1.318414,-0.95289 0.861689,-0.73757 1.261065,-0.9158 1.767416,-0.78871 0.708755,0.17789 0.732482,0.30569 0.704036,3.79213 -0.0094,1.15512 0.08637,1.65364 0.317766,1.65364 0.248898,0 0.301531,-0.56639 0.211692,-2.27804 z m 2.331094,-8.40519 c 0,-0.0549 -0.208359,-0.2633 -0.46302,-0.46302 -0.419644,-0.3291 -0.429003,-0.31975 -0.0999,0.0999 0.345643,0.44073 0.562915,0.58088 0.562915,0.36312 z"
       id="path20" /></g></svg>
