<?xml version="1.0" encoding="UTF-8" standalone="no"?>
<!-- Created with Inkscape (http://www.inkscape.org/) -->

<svg
   width="13.985778mm"
   height="22.14941mm"
   viewBox="0 0 13.985778 22.14941"
   version="1.1"
   id="svg1"
   xml:space="preserve"
   xmlns="http://www.w3.org/2000/svg"
   xmlns:svg="http://www.w3.org/2000/svg"><defs
     id="defs1" /><g
     id="layer1"
     transform="translate(-88.36723,-166.03901)"><path
       style="fill:#000000"
       d="m 88.440522,187.80424 c -0.279863,-0.72931 0.200795,-0.93871 2.154722,-0.93871 2.237353,0 2.507236,-0.22597 2.507236,-2.09927 0,-1.23052 0.03934,-1.20269 -0.961944,-0.68049 -0.958244,0.49976 -1.922273,0.51006 -2.109351,0.0225 -0.08021,-0.20902 0.389006,-1.05542 1.056698,-1.90612 1.255758,-1.59997 1.359718,-1.92121 0.467151,-1.44352 -0.808883,0.4329 -2.156721,0.36415 -2.156721,-0.11001 0,-0.21782 0.625078,-1.01274 1.389062,-1.76648 l 1.389063,-1.37046 -0.790519,-0.15378 c -1.113266,-0.21658 -1.119645,-0.85818 -0.02282,-2.29465 0.992829,-1.30027 2.79771,-6.29333 2.79771,-7.73965 0,-1.00367 0.718267,-1.65799 1.15311,-1.05045 1.652688,2.30905 2.217022,3.18483 2.783992,4.32045 0.363264,0.72761 1.365391,2.00695 2.226949,2.84299 1.84729,1.79258 1.90437,2.4746 0.18783,2.24436 l -1.046837,-0.14041 0.421382,0.83382 c 0.231765,0.45861 0.896915,1.4574 1.478115,2.21954 1.55339,2.03699 1.04343,2.76025 -1.1553,1.63854 -0.590392,-0.3012 -1.128437,-0.49263 -1.195658,-0.42541 -0.27917,0.27917 1.499338,3.55544 2.387638,4.39837 2.59176,2.4594 -0.58724,2.17847 -3.870073,-0.342 -0.692483,-0.53167 -1.322777,-0.96667 -1.400654,-0.96667 -0.07788,0 -0.106612,0.8632 -0.06386,1.91823 l 0.07774,1.91823 1.5875,0.0655 c 2.621527,0.10815 3.307287,0.28907 3.307287,0.87255 0,0.49853 -0.2245,0.51718 -6.226008,0.51718 -5.198905,0 -6.250334,-0.0634 -6.373445,-0.38421 z m 6.464177,-2.59236 c -0.02845,-3.48644 -0.0047,-3.61424 0.704036,-3.79212 0.506351,-0.12709 0.905727,0.0511 1.767416,0.78871 0.612284,0.52409 1.205571,0.95289 1.318414,0.95289 0.112843,0 -0.146713,-0.82691 -0.576791,-1.83758 -1.159742,-2.72535 -0.94526,-3.9849 0.542941,-3.18844 0.314877,0.16852 0.616551,0.26235 0.670388,0.20851 0.05384,-0.0538 -0.313547,-0.95916 -0.81641,-2.01184 -1.077802,-2.25622 -1.05835,-2.13024 -0.368342,-2.3855 0.527794,-0.19524 0.516113,-0.24556 -0.351157,-1.51282 -0.493412,-0.72098 -1.238005,-1.89578 -1.654652,-2.61068 l -0.757539,-1.29981 -0.997689,2.9801 c -0.548729,1.63906 -1.122419,3.1304 -1.274867,3.31409 -0.213219,0.25691 -0.131168,0.30606 0.35558,0.21302 1.325023,-0.2533 1.219337,1.05322 -0.239829,2.96483 l -0.934751,1.22459 0.931889,-0.17482 c 1.357994,-0.25476 1.439835,0.34458 0.269498,1.9736 -0.976039,1.35858 -1.004542,1.55472 -0.160267,1.10288 0.937576,-0.50178 1.169636,0.0471 1.042674,2.466 -0.08984,1.71165 -0.03721,2.27804 0.211692,2.27804 0.231394,0 0.327191,-0.49853 0.317766,-1.65365 z m -2.297637,-9.39271 c 0.329107,-0.41964 0.319749,-0.429 -0.0999,-0.0999 -0.254661,0.19972 -0.463021,0.40808 -0.463021,0.46302 0,0.21776 0.217272,0.0776 0.562916,-0.36313 z"
       id="path21" /></g></svg>
