<?xml version="1.0" encoding="UTF-8" standalone="no"?>
<!-- Created with Inkscape (http://www.inkscape.org/) -->

<svg
   width="23.212145mm"
   height="20.370659mm"
   viewBox="0 0 23.212145 20.370659"
   version="1.1"
   id="svg1"
   xml:space="preserve"
   xmlns="http://www.w3.org/2000/svg"
   xmlns:svg="http://www.w3.org/2000/svg"><defs
     id="defs1" /><g
     id="layer1"
     transform="translate(-69.899237,-196.29745)"><path
       style="fill:#000000"
       d="m 69.90635,216.38263 c 0.119433,-0.35621 0.257853,-0.40497 1.348609,-0.47501 0.444533,-0.0285 0.463521,-0.30878 0.293573,-4.33291 -0.158395,-3.75057 -0.1279,-4.34704 0.237768,-4.65052 0.699357,-0.58041 1.626811,-0.28306 1.72294,0.55239 0.058,0.50407 0.235494,0.7276 0.577739,0.7276 0.342244,0 0.519739,-0.22353 0.577738,-0.7276 0.07491,-0.65106 0.202008,-0.73616 1.208199,-0.80896 1.095471,-0.0793 1.124479,-0.0605 1.124479,0.7276 0,0.63258 0.115381,0.80896 0.529167,0.80896 0.408872,0 0.529167,-0.17638 0.529167,-0.77592 0,-0.85241 0.652786,-1.24053 1.5875,-0.94387 0.490222,0.15559 0.529166,0.0476 0.529166,-1.46807 0,-1.4633 -0.101088,-1.77374 -0.957483,-2.94038 -0.799738,-1.08947 -0.98001,-1.585 -1.09422,-3.00781 -0.165147,-2.05739 0.112453,-2.50561 1.551807,-2.50561 0.988683,0 1.028456,0.0353 1.192044,1.05833 0.142274,0.88973 0.269222,1.05833 0.796877,1.05833 0.540262,0 0.627642,-0.12822 0.627642,-0.921 0,-0.75132 0.116902,-0.95034 0.634547,-1.08026 1.280186,-0.3213 1.872364,-0.0522 1.963055,0.89221 0.0778,0.81014 0.146765,0.86925 0.926041,0.79375 0.735996,-0.0713 0.85241,-0.18971 0.924828,-0.94062 0.08847,-0.91732 0.698219,-1.25699 1.940763,-1.08111 0.508609,0.072 0.637219,0.26925 0.704342,1.08026 0.104066,1.25739 0.775243,1.35679 0.893306,0.13229 0.08142,-0.84443 0.106701,-0.85989 1.405826,-0.85989 h 1.322917 l 0.07775,2.07718 c 0.07745,2.06892 0.0735,2.08269 -0.992187,3.46402 l -1.069943,1.38685 v 6.12712 6.12712 h 0.926042 c 0.509323,0 0.926041,0.11906 0.926041,0.26458 0,0.16579 -1.654846,0.26526 -4.431771,0.26639 -2.437474,9.9e-4 -7.632991,0.0796 -11.545593,0.1748 -6.059768,0.14737 -7.095281,0.1177 -6.988681,-0.20024 z m 10.448429,-2.02688 c -0.06655,-0.25466 -0.121,-0.0463 -0.121,0.46302 0,0.50932 0.05445,0.71768 0.121,0.46302 0.06655,-0.25466 0.06655,-0.67138 0,-0.92604 z m -0.0016,-1.17409 c -0.08446,-0.21107 -0.147157,-0.14837 -0.159853,0.15985 -0.01149,0.27892 0.05105,0.43519 0.138965,0.34727 0.08792,-0.0879 0.09732,-0.31613 0.02089,-0.50712 z m 7.488275,-7.028 c -0.0055,-2.16167 -0.404238,-2.82476 -1.758208,-2.92416 -1.542905,-0.11327 -2.206641,0.75713 -2.206641,2.8937 v 1.55182 h 1.984375 1.984375 z"
       id="path2" /></g></svg>
