<?xml version="1.0" encoding="UTF-8" standalone="no"?>
<!-- Created with Inkscape (http://www.inkscape.org/) -->

<svg
   width="19.073154mm"
   height="18.766218mm"
   viewBox="0 0 19.073154 18.766218"
   version="1.1"
   id="svg1"
   xml:space="preserve"
   xmlns="http://www.w3.org/2000/svg"
   xmlns:svg="http://www.w3.org/2000/svg"><defs
     id="defs1" /><g
     id="layer1"
     transform="translate(-82.418963,-81.878986)"><path
       style="fill:#000000"
       d="m 88.594164,100.30296 c -0.268483,-0.699655 0.161916,-0.879729 2.191851,-0.917045 l 1.101223,-0.02024 0.182399,-1.07961 c 0.251704,-1.489818 -0.06269,-3.418306 -0.557277,-3.418306 -0.213932,0 -0.455437,-0.173219 -0.536678,-0.38493 -0.119931,-0.312534 -0.337598,-0.259269 -1.157339,0.28321 -0.694175,0.459384 -1.286102,0.641653 -1.894505,0.583367 -0.774763,-0.07422 -0.965951,-0.254133 -1.536365,-1.44573 L 85.735987,92.542715 84.3126,92.424676 c -0.824705,-0.06839 -1.522724,-0.27496 -1.659566,-0.491125 -0.405807,-0.641044 -0.26693,-1.725787 0.284884,-2.225171 0.376245,-0.340498 0.529166,-0.814908 0.529166,-1.641647 0,-2.043711 1.263417,-3.517728 3.015132,-3.517728 0.460036,0 0.764888,-0.22057 1.00563,-0.727605 0.71934,-1.515021 3.696925,-2.186659 5.033432,-1.135363 l 0.658889,0.518283 0.565667,-0.650574 c 0.828875,-0.95329 2.046268,-0.88784 2.631994,0.141502 0.247893,0.435643 0.649939,0.79283 0.893435,0.79375 0.598327,0.0023 2.060879,1.263992 2.351634,2.028734 0.129391,0.340325 0.413743,0.618773 0.631883,0.618773 0.87224,0 1.69698,3.368241 0.93939,3.836458 -0.14552,0.08994 -0.26855,0.364854 -0.27339,0.610927 -0.0108,0.548706 -0.74367,1.455724 -1.505813,1.863609 -0.406515,0.21756 -0.559927,0.540279 -0.542822,1.141884 0.03297,1.15955 -1.115122,2.069016 -2.614145,2.070807 -0.906027,0.0011 -1.083324,0.08286 -1.006678,0.464335 0.05117,0.254662 0.22506,1.065465 0.386428,1.801785 l 0.293397,1.338764 1.517718,-0.109782 c 1.117726,-0.08085 1.602923,-0.0071 1.841022,0.279777 0.613239,0.738911 -0.277031,0.920821 -5.437516,1.111071 -4.5701,0.16849 -5.109812,0.14353 -5.258207,-0.24318 z m 5.969648,-2.590935 c -0.0087,-0.909505 -0.11488,-2.248958 -0.236012,-2.976562 -0.259458,-1.558488 -0.138839,-1.799135 0.504231,-1.005991 0.676029,0.833796 1.720004,1.029053 2.559838,0.478772 0.623387,-0.408458 0.676002,-0.568256 0.532301,-1.616667 l -0.159463,-1.163406 h 0.888584 c 1.070945,0 1.600699,-0.551549 1.378829,-1.435557 -0.08955,-0.356774 -0.04331,-0.722534 0.10274,-0.812801 0.70875,-0.438026 0.0293,-2.778725 -0.806634,-2.778725 -0.132354,0 -0.316394,-0.301813 -0.408977,-0.670695 -0.162966,-0.649308 -1.284211,-1.445972 -2.035098,-1.445972 -0.202149,0 -0.503165,-0.297656 -0.668925,-0.661458 -0.466928,-1.024797 -1.735731,-0.989253 -2.618341,0.07335 l -0.585825,0.705292 -0.75157,-0.72005 c -0.564529,-0.540853 -1.017606,-0.720049 -1.820564,-0.720049 -1.310769,0 -1.934271,0.604726 -2.130287,2.066139 l -0.140684,1.048878 -0.723587,-0.415281 c -1.488879,-0.8545 -2.91895,0.426704 -2.91895,2.615093 0,0.667288 -0.210295,1.341037 -0.570745,1.828572 -0.785085,1.061884 -0.314516,1.659373 1.212721,1.539814 l 1.076289,-0.08426 0.662221,1.322917 c 0.848477,1.694997 1.457863,1.810675 2.86094,0.54308 l 1.045001,-0.944096 0.434761,0.663528 c 0.239118,0.364941 0.653556,0.663529 0.920974,0.663529 0.503709,0 0.816703,1.427031 0.822205,3.748673 0.0033,1.376198 0.231565,1.807577 0.956648,1.807577 0.601959,0 0.632374,-0.08147 0.617379,-1.653646 z"
       id="path25" /></g></svg>
