<?xml version="1.0" encoding="UTF-8" standalone="no"?>
<!-- Created with Inkscape (http://www.inkscape.org/) -->

<svg
   width="16.971392mm"
   height="19.445297mm"
   viewBox="0 0 16.971392 19.445297"
   version="1.1"
   id="svg1"
   xml:space="preserve"
   xmlns="http://www.w3.org/2000/svg"
   xmlns:svg="http://www.w3.org/2000/svg"><defs
     id="defs1" /><g
     id="layer1"
     transform="translate(-69.608284,-83.506107)"><path
       style="fill:#000000"
       d="m 72.917993,102.64516 c -0.254659,-0.66363 0.170703,-0.92857 1.490852,-0.92857 0.710428,0 1.364884,-0.11843 1.454348,-0.26319 0.08946,-0.14475 0.233491,-1.513969 0.320063,-3.042704 0.132176,-2.334049 0.0954,-2.779518 -0.229447,-2.779518 -0.212768,0 -0.621813,-0.218902 -0.908991,-0.486448 -0.356253,-0.331901 -0.687328,-0.421869 -1.042078,-0.28318 -0.285965,0.111798 -0.95867,0.211637 -1.4949,0.221865 -2.247922,0.04288 -3.191729,-1.010832 -2.618654,-2.923585 0.233634,-0.779802 0.245665,-1.173063 0.04211,-1.376614 -0.609218,-0.609218 -0.322856,-2.04799 0.574941,-2.888689 0.472943,-0.442864 0.826195,-0.96129 0.785006,-1.152057 -0.04119,-0.190767 0.09299,-0.748645 0.298178,-1.239727 0.512925,-1.227603 1.84187,-1.822834 3.952996,-1.770536 0.904502,0.02241 2.203823,-0.04437 2.88738,-0.1484 0.953699,-0.145138 1.337305,-0.09467 1.648922,0.21695 0.223349,0.22335 0.533762,0.448648 0.689806,0.500662 0.242874,0.08096 0.418876,0.553975 0.499239,1.341738 0.01113,0.109141 0.556025,0.198437 1.210869,0.198437 1.36513,0 2.388302,0.761492 2.165899,1.611962 -0.08053,0.307949 0.0039,0.504705 0.216601,0.504705 0.655889,0 1.718542,1.577546 1.718542,2.551236 0,1.279069 -0.329814,1.776418 -1.539867,2.322076 -0.739838,0.333621 -1.008888,0.600141 -0.925961,0.917254 0.06429,0.245845 -0.137146,0.769948 -0.447636,1.164671 -0.753279,0.957639 -1.699569,0.933647 -2.634113,-0.06678 -0.40304,-0.431456 -0.807996,-0.709268 -0.899903,-0.617361 -0.407731,0.40773 0.06042,4.978009 0.665311,6.495053 0.298292,0.74811 0.417555,0.80603 1.548835,0.75221 0.880324,-0.0419 1.437962,0.3523 1.237484,0.87473 -0.136946,0.35688 -0.715921,0.42809 -3.676576,0.45221 -1.932718,0.0157 -4.263663,0.0707 -5.179877,0.12214 -1.256389,0.0705 -1.701125,0.002 -1.809383,-0.28054 z m 6.524904,-1.59842 c 0.265182,-0.31953 0.270481,-0.6251 0.02504,-1.444297 -0.336761,-1.124007 -0.468262,-5.59612 -0.178345,-6.065215 0.294862,-0.477096 0.910415,-0.325445 1.518712,0.374158 0.316322,0.363802 0.812175,0.661458 1.101896,0.661458 0.613125,0 1.494474,-0.72031 1.494474,-1.221407 0,-0.190104 0.47625,-0.817158 1.058333,-1.393453 0.582083,-0.576295 1.058333,-1.279214 1.058333,-1.562043 0,-0.648482 -0.97343,-1.908513 -1.474412,-1.908513 -0.207719,0 -0.377671,-0.229621 -0.377671,-0.510268 0,-0.844047 -0.735064,-1.341816 -1.981483,-1.341816 -1.066237,0 -1.185223,-0.07222 -1.634747,-0.992187 -0.463173,-0.947902 -0.537954,-0.989204 -1.675437,-0.925349 -1.631038,0.09156 -2.486685,0.09705 -3.558715,0.02283 -1.145178,-0.07929 -1.893387,0.559661 -2.319054,1.98041 -0.174322,0.581835 -0.590012,1.330946 -0.923757,1.66469 -0.628345,0.628346 -0.798554,1.656197 -0.348746,2.106004 0.167692,0.167692 0.152417,0.602278 -0.04362,1.241021 -0.618498,2.01525 0.713951,2.938988 2.733171,1.894809 0.731793,-0.378425 0.846311,-0.378425 1.264466,0 0.252888,0.22886 0.596505,0.41611 0.763592,0.41611 0.970266,0 1.588053,2.85538 1.112944,5.143966 -0.171602,0.826602 -0.246259,1.674242 -0.165905,1.883642 0.200371,0.52216 2.11247,0.50376 2.550925,-0.0245 z"
       id="path26" /></g></svg>
