<svg width="536" height="536" viewBox="0 0 536 536" fill="none" xmlns="http://www.w3.org/2000/svg">
<path d="M204.667 191.485C204.667 163.519 227.388 140.782 255.333 140.782H280.667C308.613 140.782 331.333 163.519 331.333 191.485V194.337C331.333 211.608 322.546 227.69 308.058 236.959L274.65 258.429C254.7 271.263 242.667 293.366 242.667 317.054V318.163C242.667 332.186 253.988 343.515 268 343.515C282.013 343.515 293.333 332.186 293.333 318.163V317.054C293.333 310.558 296.658 304.537 302.042 301.051L335.45 279.582C364.425 260.885 382 228.799 382 194.258V191.406C382 135.395 336.638 90 280.667 90H255.333C199.363 90.0792 154 135.474 154 191.485C154 205.508 165.321 216.837 179.333 216.837C193.346 216.837 204.667 205.508 204.667 191.485ZM268 445C276.399 445 284.453 441.661 290.392 435.718C296.33 429.776 299.667 421.715 299.667 413.311C299.667 404.906 296.33 396.846 290.392 390.903C284.453 384.96 276.399 381.621 268 381.621C259.601 381.621 251.547 384.96 245.608 390.903C239.67 396.846 236.333 404.906 236.333 413.311C236.333 421.715 239.67 429.776 245.608 435.718C251.547 441.661 259.601 445 268 445Z" fill="white"/>
<circle cx="268" cy="268" r="250.5" stroke="white" stroke-width="35"/>
</svg>
