<svg width="536" height="536" viewBox="0 0 536 536" fill="none" xmlns="http://www.w3.org/2000/svg">
<path d="M232.5 125.5C232.5 116.085 236.24 107.055 242.898 100.398C249.555 93.7402 258.585 90 268 90C277.415 90 286.445 93.7402 293.102 100.398C299.76 107.055 303.5 116.085 303.5 125.5C303.5 134.915 299.76 143.945 293.102 150.602C286.445 157.26 277.415 161 268 161C258.585 161 249.555 157.26 242.898 150.602C236.24 143.945 232.5 134.915 232.5 125.5ZM197 232C197 218.909 207.576 208.333 220.667 208.333H268C281.091 208.333 291.667 218.909 291.667 232V397.667H315.333C328.424 397.667 339 408.243 339 421.333C339 434.424 328.424 445 315.333 445H220.667C207.576 445 197 434.424 197 421.333C197 408.243 207.576 397.667 220.667 397.667H244.333V255.667H220.667C207.576 255.667 197 245.091 197 232Z" fill="white"/>
<circle cx="268" cy="268" r="250.5" stroke="white" stroke-width="35"/>
</svg>
