<svg width="878" height="774" viewBox="0 0 878 774" fill="none" xmlns="http://www.w3.org/2000/svg">
<path d="M853.434 372L836.113 382L853.434 372L659.207 35.5898L641.887 45.5898L659.207 35.5896C653.848 26.3079 643.945 20.5898 633.227 20.5898H244.773C234.055 20.5898 224.152 26.3079 218.793 35.5898L236.113 45.5898L218.793 35.5898L24.5662 372C19.2073 381.282 19.2073 392.718 24.5662 402L218.793 738.41L236.113 728.41L218.793 738.41C224.152 747.692 234.055 753.41 244.773 753.41H633.227C643.944 753.41 653.848 747.692 659.207 738.41L853.434 402C858.793 392.718 858.793 381.282 853.434 372Z" fill="#585858" stroke="#585858" stroke-width="40"/>
</svg>
