<?xml version="1.0" encoding="UTF-8" standalone="no"?>
<!-- Created with Inkscape (http://www.inkscape.org/) -->

<svg
   width="27.252081mm"
   height="3.4583802mm"
   viewBox="0 0 27.252081 3.4583802"
   version="1.1"
   id="svg1"
   xml:space="preserve"
   xmlns="http://www.w3.org/2000/svg"
   xmlns:svg="http://www.w3.org/2000/svg"><defs
     id="defs1" /><g
     id="layer1"
     transform="translate(-152.68494,-150.92794)"><path
       style="fill:#000000;stroke-width:0.510911"
       d="m 152.68494,154.26318 c 0,-0.15115 0.89479,-0.58951 2.29628,-1.12496 1.34834,-0.51514 1.6508,-0.58598 2.09308,-0.49016 0.16834,0.0365 0.4874,0.0481 0.70903,0.026 0.24137,-0.0242 0.5659,0.0204 0.8093,0.11108 l 0.40635,0.15143 0.81864,-0.34729 c 1.24133,-0.52661 1.99209,-0.54584 2.81065,-0.072 0.55382,0.32058 0.64489,0.29145 1.15929,-0.3708 0.38751,-0.49889 1.10531,-0.74666 2.16315,-0.74666 0.86715,0 1.81548,0.10715 1.81548,0.20513 0,0.0342 0.12104,0.14523 0.26897,0.2468 0.22661,0.15558 0.33252,0.17089 0.67252,0.0972 0.33196,-0.0719 0.53261,-0.0625 1.13099,0.053 l 0.72744,0.14039 1.29688,-0.61629 c 1.13808,-0.54082 1.37647,-0.61376 1.94679,-0.59571 0.83266,0.0264 0.94492,0.0877 1.67979,0.9184 l 0.611,0.69065 0.82073,-0.0214 c 0.64911,-0.0169 1.05021,0.0344 1.91823,0.24574 0.60362,0.14693 1.09749,0.31972 1.09749,0.38399 0,0.1864 -0.93833,0.13772 -1.76351,-0.0915 l -0.75003,-0.20834 -0.13229,0.22561 c -0.14812,0.25259 -0.99648,0.34242 -1.56001,0.16517 -0.1777,-0.0559 -0.7159,-0.50919 -1.19602,-1.00736 l -0.87293,-0.90574 -1.29437,0.65863 c -1.32096,0.67216 -1.67158,0.74734 -2.53452,0.54349 -0.45729,-0.10803 -0.51185,-0.10693 -0.86524,0.0172 -0.56,0.19683 -1.22764,0.0564 -1.86337,-0.39203 -0.44639,-0.31486 -0.62144,-0.36982 -1.11904,-0.35135 -0.62436,0.0232 -0.93056,0.22315 -1.28828,0.84142 -0.21866,0.37793 -0.79036,0.69064 -1.26263,0.69064 -0.43561,0 -1.0286,-0.1735 -1.60108,-0.46844 -0.50758,-0.26152 -0.71418,-0.24787 -1.32379,0.0875 -0.42799,0.23543 -1.47497,0.34897 -1.47497,0.15996 0,-0.0613 -0.0774,-0.0627 -0.29682,-0.005 -0.16326,0.0426 -0.44887,0.0623 -0.6347,0.0437 -0.18583,-0.0186 -0.41674,-5.2e-4 -0.51314,0.0402 -0.0964,0.0407 -0.43586,0.0575 -0.75437,0.0372 -0.61235,-0.0389 -0.65847,-0.0237 -2.36247,0.77876 -0.75521,0.35567 -1.7885,0.50371 -1.7885,0.25624 z m 6.87917,-0.0217 c 0,-0.27342 1.80154,-0.61344 2.24896,-0.42447 0.0899,0.038 0.38611,0.0691 0.65817,0.0691 0.58577,0 1.3262,0.17627 1.3262,0.31573 0,0.12064 -1.371,0.13376 -2.17926,0.0209 -0.44689,-0.0624 -0.61917,-0.0556 -0.87167,0.0346 -0.42864,0.15301 -1.1824,0.143 -1.1824,-0.0157 z m 17.87325,0.0219 c -0.28341,-0.056 -0.72847,-0.0841 -0.98902,-0.0625 -0.26056,0.0216 -0.82156,-0.0144 -1.24667,-0.0799 -0.71242,-0.10985 -0.80648,-0.11043 -1.20145,-0.007 -0.53722,0.14023 -1.04546,0.0925 -1.44351,-0.13553 -0.33599,-0.19249 0.0448,-0.40742 0.57127,-0.32248 0.30501,0.0492 1.66659,0.093 3.14818,0.10137 1.11874,0.006 2.519,0.32065 2.24833,0.50477 -0.19469,0.13244 -0.42269,0.13277 -1.08713,0.002 z m -12.83247,-0.33849 c -0.25475,-0.0801 -0.14121,-0.14898 0.58837,-0.35679 1.03788,-0.29562 1.52831,-0.28528 2.18474,0.0461 0.54157,0.27338 0.16669,0.42432 -0.70209,0.2827 -0.45911,-0.0749 -0.62222,-0.0718 -1.00642,0.019 -0.56388,0.13321 -0.667,0.13408 -1.0646,0.009 z"
       id="path38" /></g></svg>
