<?xml version="1.0" encoding="UTF-8" standalone="no"?>
<!-- Created with Inkscape (http://www.inkscape.org/) -->

<svg
   width="30.111927mm"
   height="4.7683854mm"
   viewBox="0 0 30.111927 4.7683854"
   version="1.1"
   id="svg1"
   xml:space="preserve"
   xmlns="http://www.w3.org/2000/svg"
   xmlns:svg="http://www.w3.org/2000/svg"><defs
     id="defs1" /><g
     id="layer1"
     transform="translate(-132.61916,-138.33512)"><path
       style="fill:#000000;stroke-width:0.531703"
       d="m 151.43695,143.0077 c -0.21557,-0.0734 -0.0898,-0.18629 0.50138,-0.44983 0.43404,-0.19348 0.78917,-0.38016 0.78917,-0.41483 0,-0.0347 0.16069,-0.10075 0.3571,-0.14683 0.41942,-0.0984 0.97046,0.0198 2.1353,0.45817 0.40997,0.15427 0.90284,0.2805 1.09526,0.2805 0.53068,0 0.73068,0.14271 0.37147,0.26507 -0.54384,0.18526 -1.23462,0.12158 -2.04013,-0.18809 l -0.77261,-0.297 -0.57492,0.21984 c -0.77373,0.29586 -1.48764,0.40053 -1.86202,0.273 z m -11.39225,-0.08 c -0.31117,-0.106 -0.0909,-0.28916 0.64425,-0.53581 0.30302,-0.10165 4.32873,-0.0567 4.74928,0.0529 0.13824,0.036 0.51951,0.0656 0.84727,0.0656 0.5462,0 0.60248,-0.039 0.67468,-0.4675 0.07,-0.41534 0.1432,-0.47009 0.65618,-0.49074 0.82414,-0.0331 2.20072,0.18738 2.20072,0.3526 0,0.0762 0.17859,0.18042 0.39687,0.23164 0.45966,0.10785 0.52521,0.34275 0.11562,0.41431 -0.36931,0.0645 -1.15523,-0.14144 -1.67361,-0.4386 l -0.41433,-0.23751 -0.006,0.3203 c -0.003,0.17617 -0.18324,0.44021 -0.39985,0.58677 -0.37825,0.25594 -0.43771,0.26504 -1.50361,0.23023 -0.61038,-0.0199 -1.24284,-0.0877 -1.40546,-0.15056 -0.19265,-0.0745 -0.8217,-0.1212 -1.80517,-0.13408 -1.26449,-0.0165 -1.5968,0.007 -2.04747,0.14348 -0.63672,0.19322 -0.63026,0.19286 -1.02934,0.057 z m 20.9581,-1.31695 c -1.00479,-0.2089 -2.2394,-0.71669 -3.24099,-1.333 l -0.40708,-0.25048 -0.47783,0.14926 c -0.28104,0.0878 -0.54023,0.32017 -0.62933,0.56424 -0.15801,0.43283 -0.5838,0.56949 -1.21679,0.39054 -0.20701,-0.0585 -0.65498,-0.0851 -1.0627,-0.0631 -0.49874,0.0269 -0.75404,0.002 -0.87311,-0.0859 -0.15656,-0.11534 -0.20215,-0.1153 -0.65489,5.6e-4 -0.7398,0.18928 -1.24608,0.081 -2.13663,-0.45702 -0.77339,-0.46724 -0.96113,-0.62888 -1.58283,-1.36271 -0.29457,-0.34772 -0.68803,-0.39606 -1.40378,-0.17246 -0.25608,0.08 -0.83925,0.15573 -1.29594,0.1683 -0.60228,0.0166 -0.92566,0.0794 -1.17736,0.22855 -0.33567,0.19899 -1.37646,0.29463 -1.37646,0.12649 0,-0.19135 -0.65884,0.0695 -1.69359,0.67056 -0.61464,0.35701 -1.20321,0.68831 -1.30794,0.73622 -0.2889,0.13214 -0.80113,0.0424 -1.19546,-0.20944 -0.27174,-0.17356 -0.47306,-0.21516 -0.86916,-0.17963 -0.28352,0.0254 -0.69745,0.004 -0.91984,-0.0486 -0.40176,-0.0943 -0.68816,-0.0383 -0.97089,0.18947 -0.14567,0.11739 -0.98008,-0.0188 -1.2179,-0.1988 -0.21177,-0.16028 -0.26795,-0.14984 -0.98583,0.18298 -0.77189,0.35786 -1.68731,0.47869 -1.68731,0.22271 0,-0.0742 0.34772,-0.28997 0.7727,-0.47942 l 0.7727,-0.34445 2.54886,0.005 c 2.25075,0.004 2.59289,0.0228 2.92538,0.157 0.45948,0.18546 0.36292,0.21553 1.65797,-0.51637 1.15156,-0.65081 1.60945,-0.80163 2.35297,-0.77499 0.26334,0.009 0.81397,-0.0218 1.22363,-0.0693 0.40965,-0.0476 0.8859,-0.0867 1.05833,-0.087 0.17243,-2.6e-4 0.50816,-0.0972 0.74608,-0.21546 0.36489,-0.18136 0.6052,-0.21567 1.53594,-0.2193 0.63652,-0.002 1.14182,0.0333 1.19425,0.0846 0.05,0.0489 0.2823,0.32448 0.51627,0.61246 0.23397,0.28798 0.73934,0.76849 1.12305,1.0678 0.64254,0.5012 0.73288,0.53519 1.14362,0.4301 0.55483,-0.14196 1.2287,-0.14727 1.41347,-0.0111 0.087,0.0641 0.38796,0.0895 0.79751,0.0674 0.49826,-0.0269 0.69816,-0.0964 0.82428,-0.28647 0.17228,-0.25961 2.09459,-0.80991 2.64726,-0.75782 0.15279,0.0144 0.47484,0.17485 0.71566,0.35655 0.67899,0.51231 2.25284,1.20419 3.31784,1.45854 0.66742,0.1594 0.91313,0.26906 0.79607,0.3553 -0.23301,0.17167 -0.44663,0.15887 -1.7002,-0.10175 z"
       id="path37" /></g></svg>
