<?xml version="1.0" encoding="UTF-8" standalone="no"?>
<!-- Created with Inkscape (http://www.inkscape.org/) -->

<svg
   width="15.335417mm"
   height="20.369467mm"
   viewBox="0 0 15.335417 20.369467"
   version="1.1"
   id="svg1"
   xml:space="preserve"
   xmlns="http://www.w3.org/2000/svg"
   xmlns:svg="http://www.w3.org/2000/svg"><defs
     id="defs1" /><g
     id="layer1"
     transform="translate(-40.889064,-183.76318)"><path
       style="fill:#000000"
       d="m 40.916206,203.86801 c 0,-0.14552 0.416719,-0.26458 0.926042,-0.26458 h 0.926041 l 0.0075,-3.50573 c 0.0041,-1.92815 0.07879,-4.77885 0.165932,-6.33487 l 0.158431,-2.82915 -0.978239,-1.33263 c -1.024043,-1.39502 -1.476711,-3.40267 -1.102962,-4.89181 0.152176,-0.60631 0.304828,-0.68498 1.329197,-0.68498 1.24692,0 1.478475,0.24627 1.478475,1.57245 0,0.64178 0.08422,0.71932 0.661458,0.60897 0.545238,-0.10423 0.661458,-0.27876 0.661458,-0.99333 0,-0.96406 0.328371,-1.18809 1.741432,-1.18809 0.857213,0 0.904402,0.0483 0.904402,0.92604 0,0.88194 0.0441,0.92604 0.926041,0.92604 0.875864,0 0.926042,-0.0485 0.926042,-0.89518 0,-0.93654 0.402203,-1.20954 1.794241,-1.21787 0.613665,-0.004 0.684771,0.0982 0.966826,1.38545 0.240312,1.09672 0.9431,0.93854 0.9431,-0.21227 v -0.93987 l 1.38906,0.08 1.38906,0.08 0.07,2.08477 c 0.0691,2.06071 0.0584,2.0988 -0.92604,3.3 l -0.995999,1.21523 -0.0857,6.29115 -0.0857,6.29115 h 0.945595 c 0.66415,0 0.9456,0.11812 0.9456,0.39687 0,0.3435 -1.01423,0.39688 -7.540622,0.39688 -4.850694,0 -7.540625,-0.0944 -7.540625,-0.26459 z m 9.327795,-1.85208 c -0.110371,-2.02441 -0.321484,-2.81892 -0.884384,-3.32834 -1.168728,-1.05769 -2.558989,0.73213 -2.602449,3.35038 -0.01107,0.66697 0.02991,1.26272 0.09107,1.32387 0.06116,0.0612 0.864829,0.0512 1.785937,-0.0221 l 1.674742,-0.13324 z"
       id="path1" /></g></svg>
