<?xml version="1.0" encoding="UTF-8" standalone="no"?>
<!-- Created with Inkscape (http://www.inkscape.org/) -->

<svg
   width="24.870831mm"
   height="20.854998mm"
   viewBox="0 0 24.870831 20.854998"
   version="1.1"
   id="svg1"
   xml:space="preserve"
   xmlns="http://www.w3.org/2000/svg"
   xmlns:svg="http://www.w3.org/2000/svg"><defs
     id="defs1" /><g
     id="layer1"
     transform="translate(-109.29684,-188.7617)"><path
       style="fill:#000000"
       d="m 109.29692,209.36024 c 0,-0.14552 0.24731,-0.26459 0.54958,-0.26459 0.53947,0 0.54799,-0.0888 0.46302,-4.82864 l -0.0866,-4.82865 1.12448,-0.0814 c 1.09547,-0.0793 1.12448,-0.0605 1.12448,0.72761 0,0.62331 0.1174,0.80896 0.51159,0.80896 0.36142,0 0.53617,-0.21359 0.59531,-0.72761 0.0726,-0.63077 0.21496,-0.73848 1.06988,-0.80936 l 0.98616,-0.0818 0.0785,4.84426 c 0.0742,4.57987 0.0818,4.49178 0.13832,-1.61399 l 0.0598,-6.45825 -1.01495,-1.34696 c -0.76902,-1.02059 -1.05502,-1.68798 -1.18033,-2.7544 -0.26055,-2.21722 -0.0361,-2.87034 1.04694,-3.04608 1.3628,-0.22116 1.67751,-8.1e-4 1.67751,1.17454 0,0.96338 0.0503,1.03002 0.77778,1.03002 0.70777,0 0.78516,-0.0893 0.85989,-0.99218 0.0813,-0.98263 0.0942,-0.99297 1.33889,-1.07283 l 1.25677,-0.0806 v 0.94053 c 0,0.96844 0.15907,1.06804 1.24202,0.77764 0.4153,-0.11137 0.60359,-0.39278 0.66146,-0.98858 0.0789,-0.8123 0.11361,-0.83289 1.40381,-0.83289 h 1.32292 l 0.0821,0.99219 c 0.10931,1.3208 0.84392,1.38881 0.84392,0.0781 0,-0.83483 0.0801,-0.92909 0.9243,-1.08746 0.50837,-0.0954 1.20866,-0.10203 1.5562,-0.0148 0.59862,0.15025 0.63386,0.27427 0.66932,2.3556 0.0367,2.15163 0.0183,2.21937 -0.89005,3.28054 -1.15622,1.35078 -1.38462,2.01686 -1.20838,3.52392 0.13532,1.15709 0.16525,1.19063 1.06268,1.19063 0.81911,0 0.93898,0.0897 1.06093,0.79375 0.17764,1.02552 1.19063,1.15537 1.19063,0.15261 0,-0.4802 0.18826,-0.69181 0.74999,-0.843 1.59499,-0.4293 1.61658,-0.34814 1.62629,6.11435 0.005,3.22662 0.0195,3.30935 0.60028,3.39184 0.32742,0.0465 0.59531,0.17607 0.59531,0.28793 0,0.11187 -3.9485,0.28218 -8.77444,0.37848 -12.30035,0.24543 -16.09639,0.22433 -16.09639,-0.0895 z m 14.21813,-8.99584 c 0.32095,0 0.37434,-0.34193 0.28906,-1.85123 -0.12233,-2.16492 -0.53681,-2.75252 -1.94159,-2.75252 -1.45631,0 -2.06588,0.79354 -2.19751,2.86068 l -0.10873,1.70759 1.02188,0.11443 c 0.56203,0.0629 1.36419,0.0709 1.78256,0.0177 0.41837,-0.0532 0.93782,-0.0967 1.15433,-0.0967 z"
       id="path3" /></g></svg>
