<?xml version="1.0" encoding="UTF-8" standalone="no"?>
<!-- Created with Inkscape (http://www.inkscape.org/) -->

<svg
   width="19.077873mm"
   height="20.161137mm"
   viewBox="0 0 19.077873 20.161137"
   version="1.1"
   id="svg1"
   xml:space="preserve"
   xmlns="http://www.w3.org/2000/svg"
   xmlns:svg="http://www.w3.org/2000/svg"><defs
     id="defs1" /><g
     id="layer1"
     transform="translate(-150.36133,-166.79432)"><path
       style="fill:#000000"
       d="m 150.80575,184.73934 c -0.057,-1.21872 -0.12941,-5.34321 -0.16097,-9.16554 -0.0316,-3.82233 -0.12842,-7.30491 -0.21525,-7.73906 -0.14855,-0.74277 -0.10855,-0.78938 0.67747,-0.78938 0.619,0 0.89733,0.15419 1.07464,0.59532 0.16479,0.40998 0.24451,0.45998 0.25606,0.1606 0.009,-0.2391 0.21213,-0.50969 0.45092,-0.60132 0.52191,-0.20027 1.41793,0.0477 1.41793,0.3924 0,0.13572 0.11906,0.24675 0.26458,0.24675 0.14552,0 0.26459,-0.18613 0.26459,-0.41363 0,-0.30729 0.22109,-0.39233 0.85989,-0.33073 l 0.8599,0.0829 -0.0947,3.50573 c -0.0763,2.82442 -0.0248,3.50494 0.26459,3.50167 0.56171,-0.006 0.95054,-0.34505 1.05839,-0.92199 0.12707,-0.67978 1.81438,-0.94142 1.81438,-0.28134 0,0.60139 0.70749,0.50749 0.87041,-0.11553 0.0933,-0.35669 0.3609,-0.52917 0.82106,-0.52917 0.53011,0 0.76914,0.20695 1.0696,0.92604 0.23909,0.57223 0.56899,0.92609 0.86345,0.92615 0.43953,1e-4 0.46925,-0.26951 0.38294,-3.47315 -0.0731,-2.71121 -0.015,-3.52307 0.26458,-3.70023 0.62158,-0.39387 1.19341,-0.25565 1.49045,0.36026 0.22859,0.47396 0.29076,0.50093 0.30502,0.13229 0.0257,-0.6639 1.86999,-0.67107 1.86999,-0.007 0,0.36974 0.0797,0.34194 0.42242,-0.14735 0.25823,-0.36867 0.63518,-0.57153 0.96978,-0.52189 0.54342,0.0806 0.54691,0.15168 0.484,9.86835 -0.0348,5.38294 -0.11605,9.83984 -0.18044,9.90424 -0.0644,0.0644 -4.21322,0.16965 -9.21961,0.23391 l -9.10253,0.11682 z m 10.32481,-0.66461 c 0.082,-2.00751 -0.25393,-2.74187 -1.25426,-2.74187 -0.81226,0 -1.14748,0.73408 -1.2803,2.80368 l -0.12775,1.99074 1.29259,-0.0821 1.29259,-0.0821 z m -6.67093,-6.0378 c 0.26098,-1.03982 -0.22474,-2.12802 -0.94984,-2.12802 -0.70067,0 -1.15268,1.10749 -0.88587,2.17052 0.22477,0.89556 1.60832,0.86352 1.83571,-0.0425 z m 12.67921,-1.19836 c 0,-1.18688 -0.0867,-1.46829 -0.47573,-1.5432 -0.78522,-0.15122 -1.24406,0.46109 -1.24406,1.66017 0,1.3195 0.0559,1.39592 0.99678,1.36125 0.69653,-0.0257 0.72301,-0.0798 0.72301,-1.47822 z m -13.2508,-3.6038 c 0.55786,-0.21407 0.56015,-2.04122 0.003,-2.59811 -0.71918,-0.71918 -1.43683,-0.0855 -1.43683,1.26871 0,1.47549 0.30815,1.76126 1.43357,1.3294 z m 13.2508,-1.55557 c 0,-1.09391 -0.0874,-1.33613 -0.51168,-1.41784 -0.66262,-0.12761 -1.20811,0.63333 -1.20811,1.68527 0,1.02526 0.19016,1.23024 1.04843,1.13015 0.61853,-0.0721 0.67136,-0.18211 0.67136,-1.39758 z"
       id="path4" /></g></svg>
