<?xml version="1.0" encoding="UTF-8" standalone="no"?>
<!-- Created with Inkscape (http://www.inkscape.org/) -->

<svg
   width="23.199066mm"
   height="20.336756mm"
   viewBox="0 0 23.199066 20.336756"
   version="1.1"
   id="svg1"
   xml:space="preserve"
   xmlns="http://www.w3.org/2000/svg"
   xmlns:svg="http://www.w3.org/2000/svg"><defs
     id="defs1" /><g
     id="layer1"
     transform="translate(-157.65378,-198.90959)"><path
       style="fill:#000000"
       d="m 164.44121,219.08001 c -4.06501,-0.0439 -6.54843,-0.16931 -6.54843,-0.33073 0,-0.14302 0.41672,-0.26004 0.92604,-0.26004 h 0.92604 v -6.12713 -6.12712 l -1.06994,-1.38684 c -1.06569,-1.38134 -1.06964,-1.3951 -0.99219,-3.46403 l 0.0778,-2.07717 h 1.32291 c 1.29913,0 1.32441,0.0155 1.40583,0.85989 0.11806,1.22449 0.78924,1.1251 0.8933,-0.13229 0.0671,-0.81102 0.19574,-1.00827 0.70435,-1.08026 1.24254,-0.17588 1.85229,0.16378 1.94076,1.08111 0.0724,0.75091 0.18883,0.86931 0.92483,0.94062 0.77927,0.0755 0.84824,0.0164 0.92604,-0.79375 0.0907,-0.94437 0.68287,-1.21352 1.96305,-0.89221 0.51765,0.12992 0.63455,0.32893 0.63455,1.08026 0,0.79278 0.0874,0.921 0.62764,0.921 0.52766,0 0.65461,-0.1686 0.79688,-1.05833 0.16359,-1.02302 0.20336,-1.05834 1.19204,-1.05834 1.43936,0 1.71696,0.44823 1.55181,2.50562 -0.11421,1.42281 -0.29448,1.91834 -1.09422,3.0078 -0.85639,1.16664 -0.95748,1.47708 -0.95748,2.94038 0,1.51562 0.0389,1.62367 0.52916,1.46808 0.93472,-0.29667 1.5875,0.0915 1.5875,0.94387 0,0.59953 0.1203,0.77592 0.52917,0.77592 0.41379,0 0.52917,-0.17639 0.52917,-0.80896 0,-0.7881 0.029,-0.80687 1.12448,-0.72761 1.00619,0.0728 1.13328,0.1579 1.2082,0.80897 0.058,0.50406 0.23549,0.7276 0.57773,0.7276 0.34225,0 0.51974,-0.22354 0.57774,-0.7276 0.0961,-0.83546 1.02359,-1.13281 1.72294,-0.55239 0.36567,0.30348 0.39617,0.89994 0.23777,4.65052 -0.16995,4.02412 -0.15096,4.30436 0.29357,4.33291 1.0849,0.0697 1.22858,0.117 1.33713,0.44055 0.0903,0.26907 -0.91226,0.32352 -4.87202,0.26459 -2.74212,-0.0408 -7.93246,-0.10601 -11.53411,-0.14489 z m 6.06937,-2.11213 c -0.0665,-0.25466 -0.121,-0.0463 -0.121,0.46302 0,0.50933 0.0545,0.71769 0.121,0.46302 0.0666,-0.25466 0.0666,-0.67138 0,-0.92604 z m -0.002,-1.17409 c -0.0845,-0.21106 -0.14715,-0.14837 -0.15985,0.15986 -0.0115,0.27891 0.0511,0.43518 0.13897,0.34726 0.0879,-0.0879 0.0973,-0.31612 0.0209,-0.50712 z m -3.61997,-7.05845 c 0,-2.13657 -0.66374,-3.00697 -2.20664,-2.8937 -1.35397,0.0994 -1.75267,0.76249 -1.75821,2.92416 l -0.004,1.52135 h 1.98438 1.98437 z"
       id="path5" /></g></svg>
