<?xml version="1.0" encoding="UTF-8" standalone="no"?>
<!-- Created with Inkscape (http://www.inkscape.org/) -->

<svg
   width="30.093029mm"
   height="15.148702mm"
   viewBox="0 0 30.093029 15.148702"
   version="1.1"
   id="svg1"
   xml:space="preserve"
   xmlns="http://www.w3.org/2000/svg"
   xmlns:svg="http://www.w3.org/2000/svg"><defs
     id="defs1" /><g
     id="layer1"
     transform="translate(-91.548624,-140.4966)"><path
       style="fill:#000000"
       d="m 97.982213,155.35611 c -0.251485,-0.40691 -0.134742,-0.48792 3.951017,-2.74177 l 3.6722,-2.02571 0.58236,0.5471 c 0.98791,0.9281 4.76898,2.0643 8.32444,2.50148 3.30275,0.40611 3.9537,0.62847 3.58522,1.22467 -0.44144,0.71426 -7.63189,-0.42235 -10.98501,-1.73643 l -1.65954,-0.65037 -1.34697,1.24773 c -0.74083,0.68625 -1.5043,1.3992 -1.6966,1.58433 -0.43712,0.42084 -4.171758,0.46215 -4.427117,0.049 z m -6.291655,-5.97417 c -0.401224,-0.40122 -0.05636,-0.66995 2.403299,-1.87274 1.418828,-0.69381 3.436288,-1.83769 4.483245,-2.54195 l 1.903558,-1.28047 1.00686,0.32798 c 0.55377,0.18039 1.72123,0.65112 2.59436,1.04607 1.75897,0.79565 2.8116,1.06265 7.27604,1.84557 4.50885,0.7907 5.07606,0.98178 4.977,1.67665 -0.095,0.6662 0.0184,0.66827 -3.65408,-0.0665 -1.52797,-0.3057 -3.71982,-0.74203 -4.87078,-0.96962 -1.15096,-0.22758 -2.7583,-0.71355 -3.57188,-1.07992 -3.10091,-1.3964 -3.19405,-1.37514 -7.886361,1.79957 l -1.909225,1.29174 h -1.287823 c -0.708303,0 -1.367199,-0.0794 -1.464213,-0.17639 z m 14.816662,-4.49791 c -0.44908,-0.44908 -0.0424,-0.91073 1.60955,-1.82708 0.98227,-0.54487 2.30519,-1.34385 2.93984,-1.77551 l 1.15389,-0.78484 1.88881,0.58608 c 1.03885,0.32235 3.04458,0.84319 4.45717,1.15743 2.68421,0.59712 3.45768,1.00115 2.9289,1.52992 -0.34172,0.34173 -5.15967,-0.5123 -6.83196,-1.21103 -1.30066,-0.54345 -1.79381,-0.51591 -2.38102,0.13295 -0.97716,1.07974 -3.44909,2.36847 -4.54301,2.36847 -0.57518,0 -1.12515,-0.0794 -1.22217,-0.17639 z"
       id="path1" /></g></svg>
