<?xml version="1.0" encoding="UTF-8" standalone="no"?>
<!-- Created with Inkscape (http://www.inkscape.org/) -->

<svg
   width="32.843479mm"
   height="16.786325mm"
   viewBox="0 0 32.843479 16.786325"
   version="1.1"
   id="svg1"
   xml:space="preserve"
   xmlns="http://www.w3.org/2000/svg"
   xmlns:svg="http://www.w3.org/2000/svg"><defs
     id="defs1" /><g
     id="layer1"
     transform="translate(-132.27898,-104.54825)"><path
       style="fill:#000000"
       d="m 136.61361,121.31831 c -0.86728,-0.12822 -0.71923,-0.88417 0.30015,-1.53264 0.864,-0.54963 8.03504,-4.07482 8.2891,-4.07482 0.0725,0 0.46667,0.28181 0.876,0.62625 0.75739,0.63729 2.41892,1.13686 6.21131,1.86755 2.82293,0.5439 6.28917,1.47243 6.60324,1.76887 0.15947,0.15051 0.10796,0.38431 -0.13908,0.63136 -0.34672,0.34672 -0.72991,0.30262 -3.29596,-0.37932 -1.59699,-0.42441 -4.01092,-0.96002 -5.36429,-1.19025 -1.35337,-0.23022 -3.0532,-0.71884 -3.77741,-1.08582 l -1.31673,-0.66724 -0.9851,0.72948 c -0.5418,0.40122 -1.5804,1.2262 -2.308,1.83329 -1.08091,0.90187 -1.61333,1.14564 -2.91042,1.33255 -0.87313,0.12581 -1.85539,0.18914 -2.18281,0.14074 z m 27.11834,-4.44033 c -0.0857,-0.0857 -0.64645,-0.26603 -1.24616,-0.40078 -0.59971,-0.13474 -1.55005,-0.53517 -2.11186,-0.88982 -0.56182,-0.35466 -2.13425,-1.23054 -3.49429,-1.9464 -1.36004,-0.71586 -3.07461,-1.63486 -3.81014,-2.04221 l -1.33734,-0.74064 -1.73756,1.3655 c -0.95566,0.75102 -1.90552,1.61844 -2.11079,1.9276 -0.69584,1.04799 -4.46863,1.19809 -4.45153,0.17711 0.008,-0.49197 1.71479,-1.62301 5.27357,-3.49511 l 3.13852,-1.65102 1.75689,1.16378 c 0.96629,0.64008 2.85253,1.7082 4.19165,2.3736 1.33912,0.66539 2.70479,1.4211 3.03483,1.67933 0.33004,0.25824 1.43136,0.72203 2.44739,1.03064 1.47218,0.44716 1.84733,0.66702 1.84733,1.08266 0,0.5033 -0.99202,0.76425 -1.39051,0.36576 z m -31.36925,-7.71557 c 0.0633,-0.54999 0.4543,-0.97411 1.60181,-1.73743 0.83495,-0.55541 2.01704,-1.4751 2.62687,-2.04376 0.86894,-0.81027 1.18709,-0.96894 1.47078,-0.7335 0.5977,0.49605 4.57574,2.08347 6.52976,2.60567 2.04084,0.54541 2.84815,1.11027 2.32893,1.62949 -0.24249,0.24249 -0.52692,0.24819 -1.17929,0.0236 -0.47285,-0.16278 -1.27644,-0.38108 -1.78577,-0.48512 -0.50932,-0.10405 -1.81901,-0.57691 -2.91041,-1.05082 -3.23847,-1.40618 -2.94234,-1.44937 -4.50907,0.65756 l -1.38452,1.86191 h -1.43641 -1.4364 z"
       id="path10" /></g></svg>
