<?xml version="1.0" encoding="UTF-8" standalone="no"?>
<!-- Created with Inkscape (http://www.inkscape.org/) -->

<svg
   width="26.125635mm"
   height="13.893049mm"
   viewBox="0 0 26.125635 13.893049"
   version="1.1"
   id="svg1"
   xml:space="preserve"
   xmlns="http://www.w3.org/2000/svg"
   xmlns:svg="http://www.w3.org/2000/svg"><defs
     id="defs1" /><g
     id="layer1"
     transform="translate(-58.213907,-54.049954)"><path
       style="fill:#000000"
       d="m 83.417225,67.743561 c -0.06123,-0.10914 -0.186648,-0.51415 -0.278709,-0.900021 -0.591088,-2.477544 -2.853248,-4.029705 -6.279577,-4.308677 -2.61838,-0.213189 -4.371577,0.420772 -6.516821,2.356499 -1.513035,1.365264 -2.190631,1.58155 -2.190631,0.699241 0,-0.486343 1.165438,-1.68252 2.592387,-2.660765 L 71.61647,62.33163 71.161098,61.631085 c -0.583233,-0.897245 -1.86613,-2.060877 -2.864138,-2.597872 -0.594543,-0.319904 -1.236092,-0.385547 -2.69195,-0.275441 -2.865995,0.216755 -3.766697,0.756228 -6.278124,3.760269 -0.516356,0.617638 -0.73485,0.723636 -0.984773,0.47774 -0.684885,-0.673846 1.512796,-3.680509 3.305793,-4.522679 0.375511,-0.176378 0.980061,-0.459685 1.343444,-0.629571 0.363383,-0.169887 1.741389,-0.318715 3.062235,-0.330729 l 2.401539,-0.02184 1.197262,-1.145097 c 2.343918,-2.241792 5.758391,-2.928615 8.32422,-1.67442 1.546179,0.755783 3.668631,2.612129 3.668631,3.208671 0,0.839539 -0.715842,0.798299 -1.634801,-0.09418 -3.157258,-3.06629 -6.917146,-3.234541 -9.657011,-0.432141 l -0.812773,0.831325 1.414013,1.337315 c 0.777707,0.735523 1.482558,1.55328 1.566335,1.817237 0.14022,0.441794 0.225134,0.4495 1.068787,0.097 1.414867,-0.591169 5.762783,-0.119649 7.451501,0.808095 1.904049,1.046043 3.686132,3.865693 3.224534,5.101928 -0.219717,0.588441 -0.632755,0.781612 -0.848597,0.396875 z"
       id="path6" /></g></svg>
