<?xml version="1.0" encoding="UTF-8" standalone="no"?>
<!-- Created with Inkscape (http://www.inkscape.org/) -->

<svg
   width="26.116774mm"
   height="13.820713mm"
   viewBox="0 0 26.116774 13.820713"
   version="1.1"
   id="svg1"
   xml:space="preserve"
   xmlns="http://www.w3.org/2000/svg"
   xmlns:svg="http://www.w3.org/2000/svg"><defs
     id="defs1" /><g
     id="layer1"
     transform="translate(-138.29628,-75.106428)"><path
       style="fill:#000000"
       d="m 138.37304,88.425327 c -0.46986,-1.258793 1.29315,-4.067531 3.21634,-5.124087 1.68872,-0.927744 6.03663,-1.399264 7.4515,-0.808094 0.84365,0.352501 0.92857,0.344794 1.06879,-0.097 0.0838,-0.263958 0.78862,-1.081715 1.56633,-1.817238 l 1.41401,-1.337315 -0.81277,-0.831324 c -2.73986,-2.8024 -6.49975,-2.63415 -9.65701,0.432141 -0.91896,0.892481 -1.6348,0.933722 -1.6348,0.09418 0,-0.596541 2.12245,-2.452888 3.66863,-3.208671 2.56583,-1.254195 5.9803,-0.567372 8.32422,1.674421 l 1.19726,1.145097 2.40154,0.02184 c 1.37664,0.01252 2.71173,0.168774 3.12838,0.366129 0.39976,0.189357 1.00431,0.472664 1.34345,0.629571 1.7255,0.798347 3.91152,3.826233 3.23964,4.48728 -0.24992,0.245895 -0.46841,0.139898 -0.98477,-0.477741 -2.51143,-3.00404 -3.41213,-3.543514 -6.27812,-3.760269 -1.45586,-0.110106 -2.09741,-0.04446 -2.69195,0.275441 -0.99801,0.536995 -2.28091,1.700627 -2.86414,2.597873 l -0.45537,0.700544 0.87259,0.598208 c 1.42695,0.978245 2.59239,2.174423 2.59239,2.660765 0,0.882309 -0.6776,0.666024 -2.19063,-0.69924 -2.14525,-1.935728 -3.89844,-2.569689 -6.51682,-2.3565 -3.52186,0.28675 -5.40454,1.589782 -6.26092,4.33326 -0.34796,1.114743 -0.82948,1.326653 -1.13777,0.500722 z"
       id="path8" /></g></svg>
