<?xml version="1.0" encoding="UTF-8" standalone="no"?>
<!-- Created with Inkscape (http://www.inkscape.org/) -->

<svg
   width="32.843483mm"
   height="16.759958mm"
   viewBox="0 0 32.843483 16.759958"
   version="1.1"
   id="svg1"
   xml:space="preserve"
   xmlns="http://www.w3.org/2000/svg"
   xmlns:svg="http://www.w3.org/2000/svg"><defs
     id="defs1" /><g
     id="layer1"
     transform="translate(-51.782317,-90.510597)"><path
       style="fill:#000000"
       d="m 78.112182,107.15136 c -1.295165,-0.18704 -1.82538,-0.43084 -2.910416,-1.33824 -0.729707,-0.61025 -1.770032,-1.43782 -2.311832,-1.83904 l -0.985092,-0.72949 -1.316735,0.66725 c -0.724204,0.36698 -2.424038,0.8556 -3.777408,1.08582 -1.35337,0.23023 -3.767303,0.76584 -5.364295,1.19025 -2.56605,0.68194 -2.949233,0.72604 -3.295952,0.37932 -0.247045,-0.24705 -0.298551,-0.48085 -0.139087,-0.63136 0.314074,-0.29644 3.780312,-1.22497 6.603244,-1.76887 3.792394,-0.73069 5.453921,-1.23026 6.211307,-1.86756 0.409336,-0.34443 0.803538,-0.62624 0.876003,-0.62624 0.254061,0 7.425104,3.52519 8.289098,4.07481 1.802284,1.14651 0.917731,1.8072 -1.878835,1.40335 z M 51.782317,102.5046 c 0,-0.45281 0.330802,-0.65206 1.847328,-1.11269 1.016031,-0.30861 2.117359,-0.7724 2.447396,-1.03064 0.330037,-0.25823 1.695709,-1.013937 3.034826,-1.679335 1.339118,-0.665398 3.225361,-1.733516 4.191653,-2.373594 l 1.756894,-1.16378 3.138513,1.651019 c 3.558777,1.872099 5.265334,3.003134 5.273574,3.49511 0.0171,1.02098 -3.75569,0.87088 -4.45153,-0.17711 -0.205273,-0.309159 -1.155127,-1.176581 -2.110788,-1.927605 l -1.737564,-1.365498 -1.337338,0.740642 c -0.735536,0.407353 -2.450099,1.326345 -3.81014,2.042205 -1.360041,0.715856 -2.932471,1.591736 -3.494288,1.946396 -0.938976,0.59275 -2.149007,1.00375 -4.020931,1.36575 -0.606068,0.1172 -0.727605,0.0486 -0.727605,-0.41087 z m 28.58615,-8.514138 c -1.566727,-2.106929 -1.270602,-2.063745 -4.509066,-0.65756 -1.091407,0.473904 -2.401094,0.946769 -2.910417,1.050812 -0.509323,0.104043 -1.312917,0.322349 -1.785765,0.485125 -0.65237,0.224576 -0.936797,0.218883 -1.179286,-0.02361 -0.519228,-0.519229 0.288088,-1.084088 2.328928,-1.629494 1.954021,-0.522204 5.932059,-2.10962 6.529761,-2.605669 0.283685,-0.235437 0.601839,-0.07677 1.470772,0.7335 0.609831,0.568658 1.791924,1.488348 2.626874,2.043756 1.147511,0.763324 1.538528,1.187448 1.601811,1.737437 l 0.08372,0.727604 h -1.436403 -1.436404 z"
       id="path9" /></g></svg>
