<?xml version="1.0" encoding="UTF-8" standalone="no"?>
<!-- Created with Inkscape (http://www.inkscape.org/) -->

<svg
   width="30.061131mm"
   height="15.120525mm"
   viewBox="0 0 30.061131 15.120525"
   version="1.1"
   id="svg1"
   xml:space="preserve"
   xmlns="http://www.w3.org/2000/svg"
   xmlns:svg="http://www.w3.org/2000/svg"><defs
     id="defs1" /><g
     id="layer1"
     transform="translate(-115.28133,-45.00722)"><path
       style="fill:#000000"
       d="m 134.52425,59.828363 c -0.19812,-0.190963 -0.96636,-0.908683 -1.7072,-1.594933 l -1.34697,-1.247727 -1.65954,0.650368 c -3.35312,1.314078 -10.54357,2.450695 -10.985,1.736435 -0.36848,-0.596209 0.28247,-0.818567 3.58521,-1.224672 3.55506,-0.43713 7.33651,-1.573364 8.32415,-2.501201 l 0.58206,-0.546816 3.80478,2.106865 c 2.09263,1.158776 3.80478,2.266285 3.80478,2.461132 0,0.503973 -3.89846,0.646149 -4.40227,0.160549 z m 6.62727,-6.657186 c -0.66802,-0.49402 -2.15797,-1.446365 -3.311,-2.116322 -2.33315,-1.355652 -2.31727,-1.355415 -5.15572,-0.07721 -0.81357,0.366368 -2.42092,0.852331 -3.57187,1.07992 -1.15096,0.227588 -3.34281,0.663915 -4.87078,0.969614 -3.67252,0.734759 -3.5591,0.732695 -3.65408,0.06649 -0.0991,-0.694876 0.46814,-0.885956 4.977,-1.676656 4.46444,-0.782911 5.51707,-1.049911 7.27604,-1.845566 0.87312,-0.39495 2.04058,-0.865683 2.59436,-1.046072 l 1.00686,-0.32798 1.90355,1.280471 c 1.04696,0.704258 3.07256,1.852109 4.50134,2.550778 1.5192,0.742885 2.55412,1.402695 2.49264,1.589162 -0.0609,0.184777 -0.70826,0.346759 -1.53945,0.385219 -1.26912,0.05872 -1.57418,-0.03708 -2.64889,-0.831853 z m -14.66041,-4.60843 c -0.87313,-0.559355 -1.75091,-1.216161 -1.95063,-1.459567 -0.4513,-0.55002 -1.01491,-0.558348 -2.27092,-0.03356 -1.67228,0.698725 -6.49024,1.552756 -6.83196,1.211034 -0.52878,-0.528777 0.2447,-0.932803 2.92891,-1.529922 1.41259,-0.314239 3.41831,-0.835082 4.45716,-1.157428 l 1.88882,-0.586084 1.15389,0.784836 c 0.63464,0.43166 1.96367,1.234052 2.95339,1.783093 2.15874,1.197546 2.30353,1.823947 0.44708,1.9341 -0.99347,0.05895 -1.44846,-0.0962 -2.77574,-0.946505 z"
       id="path7" /></g></svg>
