<svg width="449" height="512" viewBox="0 0 449 512" fill="none" xmlns="http://www.w3.org/2000/svg">
<path d="M188.141 164.062L188.163 164.071L188.185 164.079C211.176 173.007 236.924 173.007 259.915 164.079L259.921 164.077C282.537 155.288 312.373 146 336.1 146C366.445 146 389.251 162.205 405.319 188.717C421.678 215.709 430.1 252.275 430.1 288C430.1 348.319 411.238 400.483 383.7 437.2C355.951 474.199 320.76 494 288.1 494C275.002 494 256.028 488.439 242.558 483.715L242.519 483.701L242.481 483.688C230.571 479.571 217.629 479.571 205.719 483.688L205.681 483.701L205.642 483.715C192.172 488.439 173.198 494 160.1 494C127.383 494 92.1679 474.192 64.4103 437.197C36.862 400.481 18 348.319 18 288C18 252.275 26.4221 215.709 42.781 188.717C58.8493 162.205 81.6553 146 112 146C135.739 146 165.492 155.2 188.141 164.062ZM240 94H226V80C226 45.7411 253.741 18 288 18H302V32C302 66.2589 274.259 94 240 94Z" stroke="black" stroke-width="36"/>
</svg>
