<svg width="460" height="449" viewBox="0 0 460 449" fill="none" xmlns="http://www.w3.org/2000/svg">
<path d="M450.177 52.5183C463.684 38.9183 461.532 18.7183 445.276 7.41829C429.02 -3.88171 404.874 -2.08171 391.367 11.5183L229.522 174.018L67.6765 11.5183C54.1695 -2.08171 30.0242 -3.88171 13.768 7.41829C-2.48829 18.7183 -4.63985 38.9183 8.86718 52.5183L179.677 224.018L8.86718 395.518C-4.63985 409.118 -2.48829 429.318 13.768 440.618C30.0242 451.918 54.1695 450.118 67.6765 436.518L229.522 274.018L391.367 436.518C404.874 450.118 429.02 451.918 445.276 440.618C461.532 429.318 463.684 409.118 450.177 395.518L279.366 224.018L450.177 52.5183Z" fill="#FF0000"/>
</svg>
