<?xml version="1.0" encoding="UTF-8" standalone="no"?>
<!-- Created with Inkscape (http://www.inkscape.org/) -->

<svg
   width="30.624023mm"
   height="5.5477471mm"
   viewBox="0 0 30.624023 5.5477471"
   version="1.1"
   id="svg1"
   xml:space="preserve"
   xmlns="http://www.w3.org/2000/svg"
   xmlns:svg="http://www.w3.org/2000/svg"><defs
     id="defs1" /><g
     id="layer1"
     transform="translate(-168.37661,-139.71601)"><path
       style="fill:#000000;stroke-width:0.579205"
       d="m 182.32656,144.97651 c -1.09555,-0.34182 -1.84023,-0.33944 -2.51891,0.008 -0.4955,0.25369 -1.54272,0.27726 -1.97608,0.0445 -0.17781,-0.0955 -0.50504,-0.14832 -0.77334,-0.12477 -0.70021,0.0614 -1.1614,-0.27743 -0.62327,-0.45796 0.61856,-0.20751 1.32507,-0.16924 1.9345,0.10479 0.29857,0.13425 0.54662,0.19519 0.55123,0.13542 0.0117,-0.15183 1.41604,-0.37952 2.34082,-0.37952 0.42416,0 1.09193,0.0846 1.48394,0.18809 l 0.71273,0.18808 0.59677,-0.18808 c 0.78937,-0.24879 1.33769,-0.23731 1.94119,0.0406 l 0.49661,0.22871 0.78222,-0.51719 c 0.85536,-0.56553 1.09712,-0.6553 1.5929,-0.59148 0.30428,0.0392 1.01296,0.60015 1.35533,1.07287 0.21486,0.29666 -0.90125,0.27668 -1.23996,-0.0222 -0.33109,-0.29215 -0.65738,-0.28035 -1.05041,0.038 -0.70431,0.57044 -1.693,0.64358 -2.63743,0.19512 l -0.38054,-0.1807 -0.47546,0.26229 c -0.60524,0.33387 -0.92121,0.32721 -2.11284,-0.0446 z m -13.70655,-1.28696 c -0.33685,-0.0715 -0.32955,-0.1227 0.0562,-0.39406 0.48888,-0.34392 1.75434,-0.61194 2.69423,-0.57062 0.33327,0.0147 0.80109,-0.0277 1.0396,-0.0941 0.35102,-0.0977 0.51051,-0.0993 0.83693,-0.008 0.4962,0.13816 0.46528,0.14916 1.25134,-0.44559 0.35488,-0.2685 0.93143,-0.63341 1.28124,-0.81092 0.34982,-0.17749 0.84771,-0.45229 1.10644,-0.61065 l 0.47041,-0.28793 0.52177,0.15841 c 0.28698,0.0871 0.52178,0.20731 0.52178,0.26708 0,0.0598 0.3098,0.33567 0.68845,0.61314 0.63853,0.4679 0.72157,0.49442 1.14531,0.36577 0.67371,-0.20454 1.31996,-0.16904 1.61188,0.0885 0.28188,0.24872 0.36977,0.24138 1.85771,-0.15519 0.76036,-0.20266 1.00395,-0.35007 1.28786,-0.77939 0.19257,-0.29121 0.27431,-0.66506 0.18163,-0.83077 -0.12028,-0.21511 -0.0535,-0.33333 0.2335,-0.41323 0.70187,-0.19542 1.12918,0.0414 1.32519,0.73456 0.1753,0.61984 0.87581,1.84042 1.10379,1.92325 0.0617,0.0224 0.55361,-0.12972 1.09312,-0.33809 0.56102,-0.21668 1.20746,-0.37721 1.5101,-0.37502 1.52511,0.011 2.49436,0.0683 2.85474,0.16865 0.23219,0.0647 0.68122,0.0884 1.06326,0.0562 0.51554,-0.0434 0.88565,0.0118 1.67895,0.25064 0.85124,0.25624 1.11259,0.29188 1.59834,0.21801 0.79931,-0.12156 1.45987,-0.0197 1.35608,0.20915 -0.0578,0.12733 -0.42104,0.22535 -1.14199,0.30811 l -1.05728,0.12137 -1.08961,-0.35875 c -0.86792,-0.28576 -1.12214,-0.33031 -1.24952,-0.21895 -0.21887,0.19134 -0.79223,0.17539 -1.36805,-0.0381 -0.26389,-0.0978 -0.78836,-0.17427 -1.16548,-0.16989 -0.37713,0.004 -0.92381,-0.0162 -1.21486,-0.0458 -0.4219,-0.0429 -0.70551,0.0374 -1.39915,0.39587 -1.46053,0.75487 -2.0658,0.69508 -2.83032,-0.27958 l -0.46115,-0.58791 -1.7036,0.43258 c -1.7657,0.44835 -3.12531,0.56754 -3.4305,0.30072 -0.12179,-0.10647 -0.24424,-0.0937 -0.63609,0.0666 -0.63527,0.25977 -0.97985,0.14572 -2.04466,-0.67673 l -0.7883,-0.60887 -0.47219,0.2982 c -0.25971,0.16401 -0.93985,0.61177 -1.51141,0.99502 -0.95501,0.64036 -1.09487,0.69325 -1.72605,0.65278 -0.37775,-0.0242 -0.89179,-10e-4 -1.14231,0.0514 -0.34462,0.0722 -0.62156,0.0589 -1.13782,-0.0546 l -0.68234,-0.14999 -0.66985,0.35598 c -0.71052,0.37759 -0.83529,0.40096 -1.44728,0.2711 z"
       id="path36" /></g></svg>
